<svg xmlns="http://www.w3.org/2000/svg" width="810" viewBox="0 0 810 810" height="810" version="1.0"><defs><clipPath id="a"><path d="M 0 258 L 188 258 L 188 778.664062 L 0 778.664062 Z M 0 258"/></clipPath><clipPath id="b"><path d="M 249 253 L 810 253 L 810 778.664062 L 249 778.664062 Z M 249 253"/></clipPath><clipPath id="c"><path d="M 0 31.664062 L 188 31.664062 L 188 201 L 0 201 Z M 0 31.664062"/></clipPath></defs><g clip-path="url(#a)"><path fill="#E095F6" d="M 21.398438 258.875 L 166.375 258.875 C 167.058594 258.875 167.738281 258.910156 168.417969 258.976562 C 169.097656 259.042969 169.773438 259.144531 170.441406 259.277344 C 171.113281 259.410156 171.773438 259.574219 172.425781 259.773438 C 173.082031 259.972656 173.722656 260.203125 174.351562 260.464844 C 174.984375 260.726562 175.601562 261.015625 176.203125 261.339844 C 176.804688 261.660156 177.390625 262.011719 177.957031 262.390625 C 178.523438 262.769531 179.070312 263.175781 179.601562 263.609375 C 180.128906 264.042969 180.632812 264.5 181.117188 264.984375 C 181.597656 265.46875 182.054688 265.972656 182.488281 266.5 C 182.921875 267.027344 183.328125 267.578125 183.707031 268.144531 C 184.085938 268.710938 184.4375 269.296875 184.757812 269.898438 C 185.082031 270.5 185.371094 271.117188 185.632812 271.75 C 185.894531 272.378906 186.125 273.023438 186.324219 273.675781 C 186.519531 274.328125 186.6875 274.992188 186.820312 275.660156 C 186.953125 276.332031 187.054688 277.007812 187.121094 277.6875 C 187.1875 278.367188 187.21875 279.046875 187.21875 279.730469 L 187.21875 757.808594 C 187.21875 758.492188 187.1875 759.175781 187.121094 759.855469 C 187.054688 760.535156 186.953125 761.207031 186.820312 761.878906 C 186.6875 762.546875 186.519531 763.210938 186.324219 763.863281 C 186.125 764.515625 185.894531 765.160156 185.632812 765.789062 C 185.371094 766.421875 185.082031 767.039062 184.757812 767.640625 C 184.4375 768.242188 184.085938 768.828125 183.707031 769.394531 C 183.328125 769.964844 182.921875 770.511719 182.488281 771.039062 C 182.054688 771.566406 181.597656 772.074219 181.117188 772.554688 C 180.632812 773.039062 180.128906 773.496094 179.601562 773.929688 C 179.070312 774.363281 178.523438 774.769531 177.957031 775.148438 C 177.390625 775.527344 176.804688 775.878906 176.203125 776.199219 C 175.601562 776.523438 174.984375 776.816406 174.351562 777.074219 C 173.722656 777.335938 173.082031 777.566406 172.425781 777.765625 C 171.773438 777.964844 171.113281 778.128906 170.441406 778.261719 C 169.773438 778.394531 169.097656 778.496094 168.417969 778.5625 C 167.738281 778.628906 167.058594 778.664062 166.375 778.664062 L 21.398438 778.664062 C 20.714844 778.664062 20.035156 778.628906 19.355469 778.5625 C 18.675781 778.496094 18 778.394531 17.332031 778.261719 C 16.660156 778.128906 16 777.964844 15.347656 777.765625 C 14.691406 777.566406 14.050781 777.335938 13.421875 777.074219 C 12.789062 776.816406 12.171875 776.523438 11.570312 776.199219 C 10.96875 775.878906 10.382812 775.527344 9.816406 775.148438 C 9.25 774.769531 8.703125 774.363281 8.171875 773.929688 C 7.644531 773.496094 7.140625 773.039062 6.65625 772.554688 C 6.175781 772.074219 5.71875 771.566406 5.285156 771.039062 C 4.851562 770.511719 4.445312 769.964844 4.066406 769.394531 C 3.6875 768.828125 3.335938 768.242188 3.015625 767.640625 C 2.691406 767.039062 2.402344 766.421875 2.140625 765.789062 C 1.878906 765.160156 1.648438 764.515625 1.449219 763.863281 C 1.253906 763.210938 1.085938 762.546875 0.953125 761.878906 C 0.820312 761.207031 0.71875 760.535156 0.652344 759.855469 C 0.585938 759.175781 0.550781 758.492188 0.550781 757.808594 L 0.550781 279.730469 C 0.550781 279.046875 0.585938 278.367188 0.652344 277.6875 C 0.71875 277.007812 0.820312 276.332031 0.953125 275.660156 C 1.085938 274.992188 1.253906 274.328125 1.449219 273.675781 C 1.648438 273.023438 1.878906 272.378906 2.140625 271.75 C 2.402344 271.117188 2.691406 270.5 3.015625 269.898438 C 3.335938 269.296875 3.6875 268.710938 4.066406 268.144531 C 4.445312 267.578125 4.851562 267.027344 5.285156 266.5 C 5.71875 265.972656 6.175781 265.46875 6.65625 264.984375 C 7.140625 264.5 7.644531 264.042969 8.171875 263.609375 C 8.703125 263.175781 9.25 262.769531 9.816406 262.390625 C 10.382812 262.011719 10.96875 261.660156 11.570312 261.339844 C 12.171875 261.015625 12.789062 260.726562 13.421875 260.464844 C 14.050781 260.203125 14.691406 259.972656 15.347656 259.773438 C 16 259.574219 16.660156 259.410156 17.332031 259.277344 C 18 259.144531 18.675781 259.042969 19.355469 258.976562 C 20.035156 258.910156 20.714844 258.875 21.398438 258.875 Z M 21.398438 258.875"/></g><g clip-path="url(#b)"><path fill="#E095F6" d="M 601.3125 253.894531 C 594.578125 253.640625 587.851562 253.734375 581.125 254.179688 C 574.402344 254.625 567.71875 255.414062 561.078125 256.554688 C 554.4375 257.695312 547.871094 259.175781 541.382812 260.996094 C 534.898438 262.820312 528.519531 264.972656 522.257812 267.457031 C 515.992188 269.941406 509.875 272.746094 503.902344 275.867188 C 497.929688 278.988281 492.136719 282.414062 486.519531 286.136719 C 480.902344 289.859375 475.492188 293.867188 470.292969 298.152344 C 465.09375 302.441406 460.128906 306.984375 455.398438 311.789062 C 454.695312 312.535156 453.898438 313.160156 453.007812 313.667969 C 452.113281 314.175781 451.167969 314.542969 450.164062 314.765625 C 449.164062 314.988281 448.152344 315.058594 447.128906 314.980469 C 446.105469 314.898438 445.117188 314.667969 444.164062 314.292969 C 443.210938 313.917969 442.332031 313.40625 441.53125 312.765625 C 440.726562 312.128906 440.039062 311.382812 439.457031 310.535156 C 438.878906 309.6875 438.4375 308.773438 438.132812 307.796875 C 437.828125 306.816406 437.671875 305.8125 437.667969 304.785156 L 437.667969 279.574219 C 437.667969 278.890625 437.632812 278.210938 437.566406 277.53125 C 437.5 276.851562 437.398438 276.175781 437.265625 275.503906 C 437.132812 274.835938 436.96875 274.175781 436.769531 273.519531 C 436.570312 272.867188 436.339844 272.226562 436.078125 271.59375 C 435.820312 270.960938 435.527344 270.347656 435.207031 269.742188 C 434.882812 269.140625 434.53125 268.554688 434.152344 267.988281 C 433.773438 267.421875 433.367188 266.871094 432.933594 266.34375 C 432.503906 265.816406 432.042969 265.3125 431.5625 264.828125 C 431.078125 264.34375 430.574219 263.886719 430.046875 263.453125 C 429.519531 263.019531 428.96875 262.613281 428.402344 262.234375 C 427.835938 261.855469 427.25 261.503906 426.648438 261.183594 C 426.046875 260.859375 425.429688 260.570312 424.800781 260.308594 C 424.167969 260.046875 423.527344 259.816406 422.871094 259.617188 C 422.21875 259.421875 421.558594 259.253906 420.890625 259.121094 C 420.21875 258.988281 419.542969 258.886719 418.867188 258.820312 C 418.1875 258.753906 417.503906 258.71875 416.820312 258.71875 L 270.132812 258.71875 C 269.445312 258.71875 268.757812 258.753906 268.074219 258.824219 C 267.390625 258.890625 266.710938 258.992188 266.039062 259.128906 C 265.363281 259.265625 264.699219 259.433594 264.042969 259.636719 C 263.382812 259.839844 262.738281 260.074219 262.105469 260.339844 C 261.472656 260.605469 260.851562 260.902344 260.25 261.230469 C 259.644531 261.558594 259.058594 261.917969 258.492188 262.304688 C 257.921875 262.691406 257.375 263.105469 256.847656 263.546875 C 256.320312 263.988281 255.816406 264.457031 255.335938 264.945312 C 254.855469 265.4375 254.398438 265.953125 253.96875 266.488281 C 253.539062 267.027344 253.140625 267.585938 252.765625 268.160156 C 252.390625 268.738281 252.046875 269.332031 251.734375 269.945312 C 251.417969 270.554688 251.132812 271.179688 250.882812 271.820312 C 250.628906 272.460938 250.410156 273.113281 250.222656 273.773438 C 250.035156 274.433594 249.878906 275.105469 249.761719 275.78125 C 249.640625 276.457031 249.550781 277.140625 249.5 277.824219 C 249.445312 278.511719 249.429688 279.199219 249.441406 279.886719 C 250.6875 368.4375 249.441406 674.863281 249.441406 757.808594 C 249.4375 758.484375 249.464844 759.15625 249.527344 759.828125 C 249.585938 760.5 249.679688 761.167969 249.804688 761.832031 C 249.933594 762.496094 250.089844 763.148438 250.28125 763.796875 C 250.46875 764.445312 250.691406 765.082031 250.945312 765.707031 C 251.195312 766.332031 251.476562 766.945312 251.789062 767.542969 C 252.101562 768.140625 252.441406 768.722656 252.8125 769.289062 C 253.179688 769.851562 253.574219 770.398438 253.996094 770.925781 C 254.417969 771.449219 254.867188 771.953125 255.335938 772.4375 C 255.808594 772.917969 256.304688 773.378906 256.820312 773.8125 C 257.335938 774.246094 257.871094 774.652344 258.425781 775.035156 C 258.984375 775.417969 259.558594 775.769531 260.148438 776.097656 C 260.738281 776.421875 261.34375 776.71875 261.964844 776.984375 C 262.582031 777.25 263.214844 777.484375 263.855469 777.691406 C 264.5 777.894531 265.152344 778.066406 265.808594 778.210938 C 266.46875 778.351562 267.132812 778.457031 267.804688 778.535156 C 268.476562 778.609375 269.148438 778.652344 269.820312 778.664062 L 416.976562 778.664062 C 417.660156 778.664062 418.339844 778.628906 419.019531 778.5625 C 419.699219 778.496094 420.375 778.394531 421.042969 778.261719 C 421.714844 778.128906 422.375 777.964844 423.027344 777.765625 C 423.683594 777.566406 424.324219 777.335938 424.953125 777.074219 C 425.585938 776.816406 426.203125 776.523438 426.804688 776.199219 C 427.40625 775.878906 427.992188 775.527344 428.558594 775.148438 C 429.125 774.769531 429.671875 774.363281 430.203125 773.929688 C 430.730469 773.496094 431.234375 773.039062 431.71875 772.554688 C 432.199219 772.074219 432.65625 771.566406 433.089844 771.039062 C 433.523438 770.511719 433.929688 769.964844 434.308594 769.394531 C 434.6875 768.828125 435.039062 768.242188 435.359375 767.640625 C 435.683594 767.039062 435.972656 766.421875 436.234375 765.789062 C 436.496094 765.160156 436.726562 764.515625 436.925781 763.863281 C 437.121094 763.210938 437.289062 762.546875 437.421875 761.878906 C 437.554688 761.207031 437.65625 760.535156 437.722656 759.855469 C 437.789062 759.175781 437.824219 758.492188 437.824219 757.808594 L 437.824219 497.449219 C 437.203125 490.304688 437.234375 483.160156 437.914062 476.023438 C 438.59375 468.882812 439.914062 461.863281 441.867188 454.964844 C 442.640625 452.65625 443.503906 450.382812 444.457031 448.144531 C 445.410156 445.902344 446.445312 443.703125 447.570312 441.546875 C 448.695312 439.386719 449.902344 437.277344 451.191406 435.210938 C 452.480469 433.148438 453.847656 431.136719 455.292969 429.179688 C 456.738281 427.222656 458.261719 425.324219 459.855469 423.488281 C 461.449219 421.648438 463.113281 419.875 464.847656 418.167969 C 466.578125 416.460938 468.375 414.820312 470.238281 413.253906 C 472.097656 411.6875 474.019531 410.195312 475.996094 408.777344 C 477.972656 407.359375 480.003906 406.023438 482.085938 404.761719 C 484.167969 403.503906 486.296875 402.328125 488.472656 401.238281 C 490.644531 400.144531 492.859375 399.140625 495.113281 398.222656 C 497.363281 397.300781 499.648438 396.472656 501.96875 395.734375 C 504.285156 394.992188 506.628906 394.34375 508.996094 393.789062 C 511.363281 393.230469 513.75 392.769531 516.15625 392.398438 C 518.558594 392.027344 520.976562 391.753906 523.402344 391.570312 C 525.828125 391.390625 528.257812 391.304688 530.691406 391.3125 C 594.625 391.3125 624.023438 439.402344 624.023438 509.742188 L 624.023438 757.808594 C 624.023438 758.480469 624.054688 759.148438 624.121094 759.816406 C 624.183594 760.484375 624.28125 761.144531 624.40625 761.804688 C 624.535156 762.460938 624.695312 763.109375 624.886719 763.753906 C 625.074219 764.394531 625.296875 765.027344 625.546875 765.648438 C 625.800781 766.269531 626.082031 766.878906 626.390625 767.472656 C 626.699219 768.066406 627.039062 768.644531 627.40625 769.207031 C 627.769531 769.765625 628.164062 770.308594 628.582031 770.832031 C 629 771.355469 629.441406 771.859375 629.90625 772.339844 C 630.375 772.820312 630.863281 773.277344 631.371094 773.710938 C 631.882812 774.144531 632.414062 774.554688 632.964844 774.9375 C 633.511719 775.320312 634.082031 775.675781 634.664062 776.003906 C 635.25 776.332031 635.847656 776.628906 636.460938 776.902344 C 637.074219 777.171875 637.699219 777.410156 638.332031 777.621094 C 638.96875 777.832031 639.613281 778.011719 640.269531 778.160156 C 640.921875 778.308594 641.582031 778.421875 642.246094 778.507812 C 642.910156 778.589844 643.578125 778.644531 644.246094 778.664062 L 788.601562 778.664062 C 789.285156 778.664062 789.964844 778.628906 790.644531 778.5625 C 791.324219 778.496094 792 778.394531 792.667969 778.261719 C 793.339844 778.128906 794 777.964844 794.652344 777.765625 C 795.304688 777.566406 795.949219 777.335938 796.578125 777.074219 C 797.210938 776.816406 797.828125 776.523438 798.429688 776.199219 C 799.03125 775.878906 799.617188 775.527344 800.183594 775.148438 C 800.75 774.769531 801.296875 774.363281 801.824219 773.929688 C 802.355469 773.496094 802.859375 773.039062 803.339844 772.554688 C 803.824219 772.074219 804.28125 771.566406 804.714844 771.039062 C 805.148438 770.511719 805.554688 769.964844 805.933594 769.394531 C 806.3125 768.828125 806.664062 768.242188 806.984375 767.640625 C 807.308594 767.039062 807.597656 766.421875 807.859375 765.789062 C 808.121094 765.160156 808.351562 764.515625 808.550781 763.863281 C 808.746094 763.210938 808.914062 762.546875 809.046875 761.878906 C 809.179688 761.207031 809.28125 760.535156 809.347656 759.855469 C 809.414062 759.175781 809.445312 758.492188 809.445312 757.808594 L 809.445312 489.667969 C 809.445312 328.597656 717.824219 253.894531 601.3125 253.894531 Z M 601.3125 253.894531"/></g><g clip-path="url(#c)"><path fill="#E095F6" d="M 92.332031 200.828125 L 93.886719 200.828125 C 151.753906 200.828125 187.21875 163.476562 187.21875 116.167969 C 187.21875 68.859375 151.285156 31.664062 93.886719 31.664062 C 36.484375 31.664062 0.550781 68.078125 0.550781 116.324219 C 0.550781 164.566406 36.640625 200.828125 92.332031 200.828125 Z M 92.332031 200.828125"/></g></svg>