<svg xmlns="http://www.w3.org/2000/svg" width="810" viewBox="0 0 810 810" height="810" version="1.0"><defs><clipPath id="a"><path d="M 40.027344 282 L 762 282 L 762 518 L 40.027344 518 Z M 40.027344 282"/></clipPath></defs><g clip-path="url(#a)"><path fill="#9A765F" d="M 45.515625 356.601562 C 83.386719 314.726562 147.351562 319.003906 217.089844 323.421875 C 243.277344 325.113281 266.273438 330.09375 289.078125 327.839844 C 315.171875 325.253906 339.667969 316.042969 363.085938 309.507812 C 403.492188 298.277344 464.03125 286.007812 510.023438 283.140625 C 531.375 281.824219 557.65625 283.140625 580.273438 285.023438 C 616.832031 288.078125 660.804688 300.859375 685.351562 312.046875 C 699.664062 318.578125 714.304688 323.277344 723.972656 330.707031 C 769.777344 365.71875 767.476562 413.09375 749.3125 460.234375 C 746.171875 468.414062 736.878906 480.023438 728.242188 485.851562 L 721.203125 493.699219 C 706.890625 502.675781 691.214844 509.300781 674.789062 513.296875 C 616.597656 528.476562 518.796875 499.246094 445.023438 494.6875 C 417.101562 492.945312 389.367188 494.921875 364.261719 497.695312 C 339.152344 500.464844 318.128906 508.503906 288.75 506.199219 C 246.609375 502.863281 206.0625 479.835938 184.707031 468.835938 C 162.324219 457.320312 142.332031 445.996094 122.621094 435.089844 L 92.210938 425.738281 C 79.164062 419.109375 61.753906 404.730469 52.835938 396.363281 C 46.171875 390.066406 40.027344 378.785156 40.542969 371.265625 C 40.824219 366.378906 46.785156 361.207031 45.515625 356.601562"/></g></svg>