<svg xmlns="http://www.w3.org/2000/svg" xmlns:xlink="http://www.w3.org/1999/xlink" width="810" viewBox="0 0 810 810" height="810" version="1.0"><defs><g id="a"><path d="M 18.65625 -16.890625 C 15.03125 -18.222656 11.332031 -20.03125 7.5625 -22.3125 C 7.164062 -22.550781 6.769531 -22.671875 6.375 -22.671875 C 5.351562 -22.671875 4.644531 -22.195312 4.25 -21.25 L -0.9375 -10.859375 C -1.175781 -10.390625 -1.296875 -9.957031 -1.296875 -9.5625 C -1.296875 -8.78125 -0.863281 -8.148438 0 -7.671875 C 7.945312 -3.347656 14.5625 -0.910156 19.84375 -0.359375 C 22.039062 -0.203125 23.691406 -0.125 24.796875 -0.125 C 29.523438 -0.125 33.816406 -0.867188 37.671875 -2.359375 C 41.296875 -3.773438 44.207031 -6.097656 46.40625 -9.328125 C 48.613281 -12.554688 50.148438 -16.414062 51.015625 -20.90625 L 51.015625 -21.015625 C 51.097656 -21.566406 51.140625 -22.4375 51.140625 -23.625 C 51.140625 -32.363281 46.253906 -39.679688 36.484375 -45.578125 L 32.828125 -47.828125 C 31.015625 -48.929688 29.441406 -50.148438 28.109375 -51.484375 C 25.898438 -53.453125 24.796875 -55.738281 24.796875 -58.34375 C 24.796875 -59.914062 25.191406 -61.445312 25.984375 -62.9375 C 26.921875 -65.382812 28.535156 -66.410156 30.828125 -66.015625 L 30.9375 -66.015625 C 31.800781 -65.929688 32.351562 -65.179688 32.59375 -63.765625 C 32.832031 -60.859375 32.953125 -58.066406 32.953125 -55.390625 C 32.953125 -53.816406 33.738281 -53.03125 35.3125 -53.03125 L 49.015625 -53.03125 C 50.585938 -53.03125 51.375 -53.773438 51.375 -55.265625 C 51.53125 -57.785156 51.609375 -59.953125 51.609375 -61.765625 C 51.609375 -63.335938 51.53125 -64.753906 51.375 -66.015625 C 51.050781 -69.867188 50.023438 -72.898438 48.296875 -75.109375 C 44.835938 -79.359375 39.40625 -81.484375 32 -81.484375 C 29.957031 -81.484375 27.988281 -81.363281 26.09375 -81.125 C 17.4375 -80.101562 11.140625 -76.128906 7.203125 -69.203125 C 4.367188 -64.484375 2.953125 -59.601562 2.953125 -54.5625 C 2.953125 -52.507812 3.1875 -50.421875 3.65625 -48.296875 C 4.445312 -44.992188 5.90625 -42.359375 8.03125 -40.390625 C 8.03125 -40.390625 8.050781 -40.367188 8.09375 -40.328125 C 8.132812 -40.285156 8.15625 -40.265625 8.15625 -40.265625 C 12.007812 -37.035156 14.328125 -35.226562 15.109375 -34.84375 L 15.359375 -34.71875 L 17.71875 -33.296875 C 21.726562 -30.859375 24.328125 -29.164062 25.515625 -28.21875 C 27.953125 -26.414062 29.171875 -24.132812 29.171875 -21.375 C 29.171875 -19.644531 28.640625 -18.304688 27.578125 -17.359375 C 26.515625 -16.410156 25.113281 -15.9375 23.375 -15.9375 C 21.957031 -15.9375 20.382812 -16.253906 18.65625 -16.890625 Z M 37.796875 -67.671875 L 38.265625 -67.671875 L 38.265625 -67.4375 L 37.796875 -67.4375 Z M 40.859375 -63.65625 C 40.785156 -63.570312 40.6875 -63.53125 40.5625 -63.53125 C 40.445312 -63.53125 40.425781 -63.609375 40.5 -63.765625 C 40.5 -63.765625 40.519531 -63.785156 40.5625 -63.828125 C 40.601562 -63.867188 40.625 -63.890625 40.625 -63.890625 L 40.75 -64.125 C 40.75 -64.125 40.765625 -64.101562 40.796875 -64.0625 C 40.835938 -64.019531 40.859375 -64 40.859375 -64 L 41.09375 -63.890625 Z M 38.265625 -58.921875 C 38.265625 -58.765625 38.222656 -58.6875 38.140625 -58.6875 L 37.546875 -58.6875 C 37.546875 -59.007812 37.742188 -59.171875 38.140625 -59.171875 Z M 35.421875 -38.375 C 35.585938 -38.21875 35.671875 -38.023438 35.671875 -37.796875 L 34.71875 -37.796875 C 34.71875 -37.796875 34.675781 -37.929688 34.59375 -38.203125 C 34.519531 -38.472656 34.5625 -38.804688 34.71875 -39.203125 L 35.421875 -39.203125 C 35.503906 -39.128906 35.546875 -38.929688 35.546875 -38.609375 Z M 30.34375 -38.375 L 30.34375 -38.859375 L 31.40625 -38.859375 L 31.40625 -38.375 Z M 36.84375 -37.671875 L 36.609375 -37.546875 L 36.609375 -37.4375 L 35.671875 -36.96875 C 35.347656 -37.4375 35.1875 -37.671875 35.1875 -37.671875 C 35.34375 -37.753906 35.582031 -37.796875 35.90625 -37.796875 L 36.375 -37.796875 Z M 33.53125 -33.65625 C 33.695312 -33.5 33.78125 -33.34375 33.78125 -33.1875 L 33.53125 -33.0625 L 33.296875 -33.1875 L 33.0625 -33.1875 L 33.0625 -34.015625 L 33.296875 -33.78125 Z M 39.921875 -31.890625 L 39.671875 -31.765625 L 38.96875 -31.765625 C 38.96875 -32.078125 39.203125 -32.351562 39.671875 -32.59375 L 40.15625 -32.125 L 40.15625 -31.890625 Z M 38.140625 -30 L 38.140625 -30.34375 L 39.203125 -30.234375 L 39.203125 -29.765625 Z M 44.640625 -27.75 C 44.710938 -27.75 44.75 -27.671875 44.75 -27.515625 C 44.75 -27.046875 44.515625 -26.8125 44.046875 -26.8125 C 43.578125 -26.8125 43.265625 -27.003906 43.109375 -27.390625 L 43.34375 -27.984375 L 44.40625 -27.984375 C 44.40625 -27.910156 44.441406 -27.875 44.515625 -27.875 Z M 39.328125 -27.28125 L 38.859375 -27.515625 L 39.203125 -27.875 L 39.671875 -27.75 Z M 41.09375 -24.453125 C 41.09375 -24.285156 41.210938 -24.203125 41.453125 -24.203125 C 41.453125 -24.046875 41.410156 -23.96875 41.328125 -23.96875 L 41.328125 -23.734375 C 41.253906 -23.734375 41.21875 -23.695312 41.21875 -23.625 L 40.390625 -23.625 L 40.265625 -23.734375 L 40.15625 -23.734375 L 39.921875 -23.859375 L 40.15625 -24.6875 L 40.625 -24.6875 Z M 45.9375 -24.09375 L 46.296875 -23.96875 L 45.9375 -23.734375 L 45.703125 -23.625 C 45.460938 -23.382812 45.265625 -23.265625 45.109375 -23.265625 L 45.109375 -23.734375 C 45.035156 -23.890625 45.078125 -24.046875 45.234375 -24.203125 L 45.703125 -24.203125 Z M 42.28125 -21.96875 C 41.96875 -21.96875 41.710938 -22.046875 41.515625 -22.203125 C 41.316406 -22.359375 41.253906 -22.554688 41.328125 -22.796875 C 41.410156 -22.796875 41.53125 -22.8125 41.6875 -22.84375 C 41.84375 -22.882812 42.078125 -22.90625 42.390625 -22.90625 L 42.625 -23.03125 C 42.707031 -23.101562 42.867188 -23.140625 43.109375 -23.140625 L 43.21875 -22.5625 L 42.75 -22.203125 Z M 41.6875 -20.078125 C 42.3125 -19.441406 42.625 -19.085938 42.625 -19.015625 C 42.625 -18.859375 42.585938 -18.738281 42.515625 -18.65625 L 42.515625 -18.421875 L 42.28125 -18.421875 L 42.046875 -18.296875 L 41.6875 -18.296875 C 41.445312 -18.296875 41.25 -18.378906 41.09375 -18.546875 L 40.75 -18.546875 C 40.75 -18.546875 40.609375 -18.5625 40.328125 -18.59375 C 40.054688 -18.632812 39.679688 -18.695312 39.203125 -18.78125 C 39.046875 -18.9375 38.96875 -19.050781 38.96875 -19.125 L 38.859375 -19.25 L 38.859375 -19.71875 L 39.203125 -19.71875 C 39.597656 -19.71875 39.914062 -19.679688 40.15625 -19.609375 C 40.3125 -19.523438 40.507812 -19.484375 40.75 -19.484375 L 40.859375 -19.484375 C 41.015625 -19.484375 41.132812 -19.523438 41.21875 -19.609375 L 41.453125 -19.71875 C 41.453125 -19.800781 41.53125 -19.921875 41.6875 -20.078125 Z M 45.234375 -19.125 L 45.234375 -18.890625 L 44.28125 -18.890625 C 44.519531 -19.128906 44.640625 -19.367188 44.640625 -19.609375 L 45.46875 -19.609375 Z M 43.9375 -18.0625 L 43.9375 -18.78125 L 44.515625 -18.78125 L 44.515625 -18.0625 Z M 41.328125 -17.484375 C 41.328125 -17.316406 41.132812 -17.117188 40.75 -16.890625 L 39.921875 -16.421875 L 39.4375 -16.421875 C 38.96875 -16.421875 38.65625 -16.5 38.5 -16.65625 L 38.5 -16.890625 C 38.5 -17.117188 38.734375 -17.351562 39.203125 -17.59375 C 39.441406 -17.59375 39.597656 -17.632812 39.671875 -17.71875 C 40.066406 -17.945312 40.226562 -18.023438 40.15625 -17.953125 L 41.328125 -17.953125 Z M 44.75 -16.65625 C 44.988281 -16.414062 45.109375 -16.253906 45.109375 -16.171875 C 45.109375 -15.785156 44.910156 -15.59375 44.515625 -15.59375 L 44.046875 -15.234375 C 43.734375 -15.628906 43.578125 -15.941406 43.578125 -16.171875 C 43.578125 -16.648438 43.773438 -16.925781 44.171875 -17 Z M 41.453125 -15.703125 C 41.054688 -15.628906 40.625 -15.628906 40.15625 -15.703125 L 40.15625 -16.171875 L 40.625 -16.53125 L 41.328125 -16.53125 C 41.410156 -16.53125 41.453125 -16.410156 41.453125 -16.171875 Z M 17.359375 -15.59375 L 17.359375 -15.9375 L 18.0625 -15.9375 L 18.0625 -15.59375 Z M 38.96875 -14.046875 L 38.734375 -13.8125 L 38.5 -13.8125 C 38.5 -13.738281 38.421875 -13.703125 38.265625 -13.703125 L 38.265625 -14.171875 C 38.265625 -14.328125 38.34375 -14.484375 38.5 -14.640625 C 38.570312 -14.640625 38.628906 -14.617188 38.671875 -14.578125 C 38.710938 -14.546875 38.734375 -14.53125 38.734375 -14.53125 L 38.859375 -14.296875 Z M 34.953125 -12.640625 C 35.109375 -12.554688 35.1875 -12.316406 35.1875 -11.921875 C 34.875 -11.921875 34.5625 -12 34.25 -12.15625 C 34.320312 -12.15625 34.378906 -12.175781 34.421875 -12.21875 C 34.460938 -12.257812 34.484375 -12.28125 34.484375 -12.28125 C 34.484375 -12.363281 34.5625 -12.40625 34.71875 -12.40625 L 34.71875 -12.515625 C 34.71875 -12.597656 34.796875 -12.640625 34.953125 -12.640625 Z M 41.453125 -12.40625 C 41.523438 -12.320312 41.5625 -12.203125 41.5625 -12.046875 C 41.332031 -12.046875 40.863281 -12.164062 40.15625 -12.40625 L 41.453125 -12.640625 Z M 19.71875 -11.921875 L 19.25 -12.15625 L 19.609375 -12.515625 L 20.078125 -12.40625 Z M 35.671875 -11.21875 C 35.984375 -11.21875 36.175781 -11.175781 36.25 -11.09375 L 36.84375 -10.984375 C 36.84375 -10.585938 36.53125 -10.390625 35.90625 -10.390625 C 35.90625 -10.472656 35.742188 -10.515625 35.421875 -10.515625 Z M 33.296875 -10.390625 L 33.296875 -10.984375 L 33.78125 -10.984375 L 33.78125 -10.390625 Z M 22.5625 -8.265625 L 22.5625 -8.625 L 23.375 -8.625 L 23.375 -8.265625 Z M 35.421875 -7.90625 C 35.265625 -7.988281 35.1875 -8.109375 35.1875 -8.265625 C 35.1875 -8.503906 35.265625 -8.625 35.421875 -8.625 L 36.375 -8.625 Z M 35.421875 -7.90625"/></g><g id="b"><path d="M 65.3125 -2.359375 C 65.3125 -1.734375 65.09375 -1.179688 64.65625 -0.703125 C 64.21875 -0.234375 63.644531 0 62.9375 0 L 45.109375 0 C 43.691406 0 42.90625 -0.707031 42.75 -2.125 L 41.5625 -16.53125 L 23.734375 -12.984375 L 21.140625 -2.125 C 20.828125 -0.945312 20.039062 -0.359375 18.78125 -0.359375 L 1.296875 -0.703125 C 0.515625 -0.703125 -0.09375 -1 -0.53125 -1.59375 C -0.96875 -2.1875 -1.101562 -2.914062 -0.9375 -3.78125 C 1.019531 -11.175781 3.734375 -20.46875 7.203125 -31.65625 C 9.015625 -37.550781 11.414062 -44.28125 14.40625 -51.84375 C 17.164062 -58.851562 20.867188 -67.789062 25.515625 -78.65625 C 25.828125 -79.363281 26.414062 -79.832031 27.28125 -80.0625 L 29.765625 -80.546875 C 32.117188 -81.015625 33.925781 -81.328125 35.1875 -81.484375 C 35.894531 -81.640625 37.078125 -81.71875 38.734375 -81.71875 C 40.234375 -81.71875 41.335938 -81.679688 42.046875 -81.609375 C 45.816406 -81.285156 48.847656 -78.566406 51.140625 -73.453125 C 51.847656 -71.566406 52.671875 -68.851562 53.609375 -65.3125 C 54.640625 -61.050781 55.585938 -56.71875 56.453125 -52.3125 L 65.3125 -2.828125 Z M 28.34375 -76.53125 L 28.34375 -77.234375 L 27.875 -77.234375 L 27.875 -76.53125 Z M 42.625 -73.453125 L 42.625 -74.40625 L 42.28125 -74.40625 L 42.28125 -73.453125 Z M 41.6875 -71.453125 C 41.84375 -71.765625 41.921875 -72.078125 41.921875 -72.390625 C 41.523438 -72.390625 41.328125 -72.429688 41.328125 -72.515625 L 41.328125 -71.796875 Z M 27.984375 -71.921875 L 27.984375 -70.390625 C 27.984375 -70.703125 28.179688 -71.171875 28.578125 -71.796875 L 28.21875 -71.796875 Z M 43.578125 -71.5625 C 43.734375 -71.71875 43.851562 -71.796875 43.9375 -71.796875 L 42.625 -71.921875 L 42.625 -71.453125 C 42.707031 -71.367188 42.75 -71.25 42.75 -71.09375 L 43.21875 -71.09375 C 43.21875 -71.164062 43.335938 -71.320312 43.578125 -71.5625 Z M 42.625 -71.09375 L 42.625 -71.328125 L 42.390625 -71.796875 L 42.390625 -71.453125 Z M 44.875 -70.5 C 44.5625 -70.5 44.285156 -70.222656 44.046875 -69.671875 L 44.28125 -69.4375 L 45.828125 -69.4375 L 46.296875 -69.671875 C 45.898438 -69.910156 45.703125 -70.148438 45.703125 -70.390625 L 45.9375 -70.734375 C 45.46875 -70.578125 45.113281 -70.5 44.875 -70.5 Z M 44.515625 -67.3125 C 44.203125 -67.3125 44.046875 -67.15625 44.046875 -66.84375 C 44.203125 -66.6875 44.398438 -66.609375 44.640625 -66.609375 C 44.710938 -66.609375 44.910156 -66.53125 45.234375 -66.375 C 45.390625 -66.53125 45.46875 -66.644531 45.46875 -66.71875 L 45.578125 -66.953125 C 45.191406 -67.191406 44.835938 -67.3125 44.515625 -67.3125 Z M 34.953125 -66.25 L 35.078125 -66.609375 L 34.953125 -66.609375 L 34.71875 -66.375 Z M 36.25 -65.0625 L 36.84375 -65.0625 C 36.925781 -64.988281 37.003906 -64.96875 37.078125 -65 C 37.160156 -65.039062 37.238281 -65.0625 37.3125 -65.0625 C 37.3125 -65.382812 37.234375 -65.625 37.078125 -65.78125 C 37.003906 -65.78125 36.925781 -65.757812 36.84375 -65.71875 C 36.769531 -65.675781 36.691406 -65.65625 36.609375 -65.65625 L 36.140625 -65.65625 Z M 46.53125 -63.53125 C 46.53125 -63.457031 46.332031 -63.34375 45.9375 -63.1875 C 45.78125 -63.1875 45.703125 -63.066406 45.703125 -62.828125 C 45.703125 -62.742188 45.78125 -62.625 45.9375 -62.46875 L 46.640625 -62.46875 C 46.960938 -62.625 47.125 -62.78125 47.125 -62.9375 C 47.125 -63.332031 46.925781 -63.53125 46.53125 -63.53125 Z M 20.546875 -58.921875 C 20.628906 -59.085938 20.53125 -59.050781 20.25 -58.8125 C 19.976562 -58.570312 19.84375 -58.414062 19.84375 -58.34375 C 19.84375 -58.101562 19.941406 -57.828125 20.140625 -57.515625 C 20.335938 -57.203125 20.472656 -57.046875 20.546875 -57.046875 C 20.628906 -57.273438 20.671875 -57.585938 20.671875 -57.984375 C 20.671875 -58.453125 20.628906 -58.765625 20.546875 -58.921875 Z M 28.703125 -57.15625 C 28.703125 -57.15625 28.71875 -57.175781 28.75 -57.21875 C 28.789062 -57.257812 28.851562 -57.28125 28.9375 -57.28125 C 29.164062 -57.195312 29.320312 -57.234375 29.40625 -57.390625 L 28.8125 -57.625 C 28.738281 -57.625 28.703125 -57.546875 28.703125 -57.390625 Z M 20.4375 -54.09375 L 20.90625 -54.09375 L 20.90625 -55.5 L 20.4375 -55.390625 Z M 34.25 -54.90625 C 33.613281 -54.90625 33.140625 -54.632812 32.828125 -54.09375 C 32.984375 -53.539062 33.179688 -53.222656 33.421875 -53.140625 C 33.660156 -53.066406 34.015625 -53.144531 34.484375 -53.375 L 34.84375 -54.328125 L 34.71875 -54.5625 C 34.71875 -54.632812 34.640625 -54.75 34.484375 -54.90625 Z M 47 -54.5625 L 47.828125 -54.5625 L 47.828125 -54.796875 L 47 -54.796875 Z M 48.296875 -52.671875 C 48.296875 -53.066406 48.0625 -53.265625 47.59375 -53.265625 L 47.46875 -52.90625 L 47.59375 -52.671875 Z M 38.03125 -39.671875 C 37.707031 -42.191406 37.429688 -44.082031 37.203125 -45.34375 C 36.566406 -48.65625 36.054688 -51.132812 35.671875 -52.78125 L 29.875 -33.78125 L 38.734375 -34.015625 Z M 32.953125 -51.140625 L 33.1875 -51.015625 L 33.53125 -51.96875 L 33.296875 -52.078125 Z M 44.40625 -51.140625 L 44.640625 -51.25 L 44.40625 -51.484375 L 44.046875 -51.375 Z M 29.640625 -44.28125 C 29.878906 -44.4375 30.132812 -44.691406 30.40625 -45.046875 C 30.6875 -45.398438 30.863281 -45.695312 30.9375 -45.9375 L 31.171875 -46.890625 L 32.359375 -49.359375 L 31.765625 -49.59375 L 31.171875 -49.125 C 30.859375 -48.8125 30.664062 -48.65625 30.59375 -48.65625 C 30.195312 -47.15625 30 -46.445312 30 -46.53125 C 29.757812 -45.976562 29.597656 -45.703125 29.515625 -45.703125 C 29.515625 -45.546875 29.398438 -45.390625 29.171875 -45.234375 C 29.015625 -45.078125 28.894531 -44.800781 28.8125 -44.40625 L 27.984375 -41.8125 L 27.515625 -40.15625 C 27.273438 -39.445312 26.921875 -38.816406 26.453125 -38.265625 C 25.984375 -37.710938 25.6875 -37.238281 25.5625 -36.84375 C 25.445312 -36.445312 25.390625 -36.210938 25.390625 -36.140625 C 25.234375 -35.828125 25.15625 -35.472656 25.15625 -35.078125 C 25.070312 -34.597656 24.835938 -34.046875 24.453125 -33.421875 C 24.128906 -32.785156 23.929688 -32.3125 23.859375 -32 C 23.859375 -31.445312 23.9375 -31.171875 24.09375 -31.171875 C 24.332031 -31.097656 24.53125 -31.097656 24.6875 -31.171875 C 24.6875 -31.171875 24.800781 -31.289062 25.03125 -31.53125 C 25.351562 -32.238281 25.59375 -32.90625 25.75 -33.53125 C 25.820312 -34.238281 26.097656 -34.867188 26.578125 -35.421875 C 26.578125 -35.660156 26.8125 -36.015625 27.28125 -36.484375 L 27.75 -37.796875 C 27.90625 -38.023438 28.140625 -38.648438 28.453125 -39.671875 C 28.773438 -40.703125 29.171875 -41.769531 29.640625 -42.875 Z M 45.9375 -47 C 45.9375 -47 45.957031 -47.019531 46 -47.0625 C 46.039062 -47.101562 46.0625 -47.125 46.0625 -47.125 L 45.234375 -47.234375 L 45.234375 -46.765625 L 45.9375 -46.765625 Z M 48.296875 -45.9375 L 47.59375 -46.171875 L 47.59375 -45.9375 L 48.296875 -45.703125 Z M 42.625 -45.34375 C 42.707031 -45.1875 42.828125 -45.109375 42.984375 -45.109375 C 43.140625 -45.109375 43.21875 -45.1875 43.21875 -45.34375 Z M 48.765625 -41.21875 C 49.160156 -41.21875 49.359375 -41.375 49.359375 -41.6875 Z M 41.21875 -40.859375 C 41.21875 -40.941406 41.140625 -41.0625 40.984375 -41.21875 L 40.5 -41.328125 L 40.5 -40.859375 Z M 45.46875 -39.671875 C 45.382812 -40.304688 44.910156 -40.703125 44.046875 -40.859375 C 43.804688 -40.785156 43.6875 -40.550781 43.6875 -40.15625 L 44.40625 -40.15625 C 44.007812 -39.914062 43.96875 -39.640625 44.28125 -39.328125 L 45.34375 -39.328125 L 45.34375 -39.671875 Z M 48.53125 -40.390625 C 49.007812 -40.390625 49.25 -40.46875 49.25 -40.625 C 49.164062 -40.625 49.101562 -40.644531 49.0625 -40.6875 C 49.03125 -40.726562 49.015625 -40.785156 49.015625 -40.859375 L 48.765625 -40.859375 C 48.609375 -40.859375 48.53125 -40.78125 48.53125 -40.625 Z M 47 -40.390625 C 47.15625 -40.234375 47.273438 -40.15625 47.359375 -40.15625 L 47.59375 -40.5 C 47.59375 -40.582031 47.359375 -40.625 46.890625 -40.625 Z M 48.53125 -39.09375 C 48.851562 -38.9375 49.09375 -38.859375 49.25 -38.859375 C 49.632812 -38.859375 50.023438 -38.972656 50.421875 -39.203125 C 50.109375 -39.515625 49.796875 -39.671875 49.484375 -39.671875 L 48.53125 -39.671875 Z M 45.34375 -37.671875 C 45.664062 -37.671875 45.863281 -37.628906 45.9375 -37.546875 L 46.640625 -37.546875 L 46.640625 -38.140625 L 46.296875 -38.265625 C 46.210938 -38.335938 46.09375 -38.375 45.9375 -38.375 C 45.539062 -38.21875 45.34375 -37.984375 45.34375 -37.671875 Z M 40.625 -38.03125 L 40.625 -37.796875 L 41.5625 -37.796875 L 41.5625 -38.03125 Z M 51.015625 -37.546875 C 50.929688 -37.867188 50.8125 -38.03125 50.65625 -38.03125 L 49.484375 -38.03125 C 49.085938 -37.707031 48.769531 -37.488281 48.53125 -37.375 C 48.300781 -37.257812 48.1875 -37.160156 48.1875 -37.078125 C 48.1875 -36.765625 48.539062 -36.054688 49.25 -34.953125 L 50.890625 -34.953125 L 51.375 -35.078125 C 51.132812 -35.472656 50.859375 -35.671875 50.546875 -35.671875 C 50.234375 -35.671875 49.835938 -35.90625 49.359375 -36.375 C 49.910156 -36.53125 50.226562 -36.6875 50.3125 -36.84375 C 50.382812 -37.082031 50.617188 -37.316406 51.015625 -37.546875 Z M 22.203125 -37.671875 L 21.96875 -36.609375 C 21.96875 -36.296875 22.082031 -36.0625 22.3125 -35.90625 C 22.550781 -36.289062 22.671875 -36.601562 22.671875 -36.84375 L 22.671875 -37.671875 Z M 45.578125 -37.078125 L 45.46875 -37.3125 L 44.640625 -37.3125 L 44.640625 -36.84375 L 45.234375 -36.375 L 45.234375 -36.484375 L 45.46875 -36.609375 L 45.703125 -36.609375 Z M 47 -36.484375 C 47 -36.484375 46.976562 -36.503906 46.9375 -36.546875 C 46.90625 -36.585938 46.890625 -36.609375 46.890625 -36.609375 L 46.640625 -36.609375 L 46.890625 -35.1875 C 47.117188 -35.507812 47.273438 -35.90625 47.359375 -36.375 Z M 44.171875 -35.90625 C 44.015625 -35.976562 43.835938 -35.992188 43.640625 -35.953125 C 43.441406 -35.921875 43.300781 -35.90625 43.21875 -35.90625 L 43.578125 -35.3125 C 43.734375 -35.382812 43.96875 -35.421875 44.28125 -35.421875 L 45.109375 -35.3125 C 45.265625 -35.3125 45.441406 -35.367188 45.640625 -35.484375 C 45.835938 -35.609375 45.9375 -35.75 45.9375 -35.90625 Z M 42.984375 -34.59375 L 42.875 -34.25 L 43.109375 -34.125 L 43.21875 -34.59375 Z M 44.640625 -32.953125 C 44.710938 -33.023438 44.75 -33.140625 44.75 -33.296875 L 44.046875 -33.421875 L 43.8125 -33.1875 L 43.6875 -32.953125 L 44.515625 -32.71875 C 44.515625 -32.875 44.554688 -32.953125 44.640625 -32.953125 Z M 42.75 -32.953125 C 43.0625 -32.953125 43.140625 -33.03125 42.984375 -33.1875 Z M 49.359375 -31.65625 C 49.359375 -31.726562 49.242188 -31.882812 49.015625 -32.125 L 48.65625 -32 C 48.570312 -32 48.53125 -31.960938 48.53125 -31.890625 L 49.25 -31.65625 Z M 48.296875 -30 C 48.140625 -30.15625 48.0625 -30.390625 48.0625 -30.703125 C 47.90625 -31.015625 47.828125 -31.25 47.828125 -31.40625 C 47.117188 -31.882812 46.488281 -32.082031 45.9375 -32 C 45.9375 -31.84375 46.054688 -31.765625 46.296875 -31.765625 C 46.609375 -31.691406 46.882812 -31.335938 47.125 -30.703125 L 47.125 -30 Z M 42.046875 -31.171875 L 42.046875 -30.703125 L 42.390625 -30.703125 L 42.390625 -31.171875 Z M 53.140625 -29.765625 L 53.140625 -29.875 L 52.4375 -30 L 52.4375 -29.765625 Z M 44.640625 -29.171875 L 45.109375 -29.171875 L 45.109375 -29.765625 L 44.640625 -29.765625 Z M 42.046875 -28.703125 L 42.046875 -28.9375 L 41.6875 -28.9375 L 41.6875 -28.703125 Z M 37.546875 -28.34375 L 37.546875 -28.109375 L 38.140625 -28.109375 L 38.140625 -28.34375 Z M 40.625 -26.453125 C 40.707031 -26.535156 40.75 -26.734375 40.75 -27.046875 C 40.582031 -27.046875 40.304688 -26.925781 39.921875 -26.6875 L 40.390625 -26.6875 Z M 44.515625 -26.21875 C 44.128906 -25.820312 43.9375 -25.625 43.9375 -25.625 C 44.40625 -25.382812 44.796875 -25.265625 45.109375 -25.265625 C 45.660156 -25.660156 45.9375 -25.976562 45.9375 -26.21875 C 45.9375 -26.289062 45.816406 -26.445312 45.578125 -26.6875 C 45.347656 -26.6875 45.234375 -26.765625 45.234375 -26.921875 Z M 47 -22.90625 L 47.59375 -22.90625 L 47.59375 -23.140625 L 47 -23.140625 Z M 45.46875 -22.90625 C 45.46875 -22.507812 45.703125 -22.195312 46.171875 -21.96875 L 46.171875 -22.90625 Z M 50.078125 -22.078125 C 50.078125 -21.921875 50.171875 -21.703125 50.359375 -21.421875 C 50.554688 -21.148438 50.816406 -21.015625 51.140625 -21.015625 C 51.523438 -21.015625 51.757812 -21.054688 51.84375 -21.140625 C 51.84375 -21.140625 52.078125 -21.175781 52.546875 -21.25 C 52.472656 -21.414062 52.359375 -21.5 52.203125 -21.5 L 51.71875 -21.84375 C 51.644531 -21.925781 51.609375 -22.28125 51.609375 -22.90625 C 51.523438 -22.59375 51.328125 -22.4375 51.015625 -22.4375 Z M 23.625 -21.96875 L 23.625 -21.375 L 24.921875 -21.375 L 24.921875 -21.96875 Z M 22.078125 -19.71875 C 21.921875 -20.03125 21.84375 -20.269531 21.84375 -20.4375 C 21.0625 -20.820312 20.59375 -21.015625 20.4375 -21.015625 C 20.039062 -21.015625 19.742188 -20.894531 19.546875 -20.65625 C 19.347656 -20.425781 19.25 -20.234375 19.25 -20.078125 C 19.25 -19.835938 19.40625 -19.578125 19.71875 -19.296875 C 20.03125 -19.023438 20.382812 -18.890625 20.78125 -18.890625 C 20.9375 -18.890625 21.054688 -18.929688 21.140625 -19.015625 L 22.3125 -19.015625 Z M 42.046875 -21.015625 L 42.046875 -20.546875 L 42.390625 -20.546875 L 42.390625 -21.015625 Z M 55.390625 -20.671875 L 55.390625 -20.90625 L 54.90625 -20.90625 L 54.90625 -20.671875 Z M 43.34375 -20.546875 C 43.65625 -20.472656 43.8125 -20.351562 43.8125 -20.1875 L 45 -20.1875 L 45 -20.546875 Z M 37.546875 -20.4375 L 37.203125 -20.3125 L 37.3125 -20.078125 L 37.671875 -20.1875 Z M 57.28125 -4.25 C 57.507812 -4.25 57.703125 -4.328125 57.859375 -4.484375 L 57.390625 -7.328125 L 56.921875 -10.15625 L 56.453125 -10.75 L 56.21875 -11.34375 C 56.21875 -11.570312 56.410156 -11.84375 56.796875 -12.15625 C 56.085938 -12.550781 55.773438 -12.90625 55.859375 -13.21875 C 56.015625 -13.695312 56.09375 -14.015625 56.09375 -14.171875 C 56.09375 -14.640625 55.9375 -15.148438 55.625 -15.703125 C 55.382812 -16.097656 55.265625 -16.375 55.265625 -16.53125 C 55.265625 -16.84375 55.382812 -17 55.625 -17 C 55.695312 -17 55.734375 -17.117188 55.734375 -17.359375 C 55.734375 -17.671875 55.617188 -18.066406 55.390625 -18.546875 L 54.5625 -17.828125 L 53.734375 -17.234375 L 53.375 -17.484375 L 53.375 -18.65625 C 53.375 -19.050781 53.726562 -19.25 54.4375 -19.25 L 54.90625 -18.890625 L 54.90625 -19.84375 C 54.675781 -20 54.363281 -20.132812 53.96875 -20.25 C 53.570312 -20.375 53.296875 -20.4375 53.140625 -20.4375 C 52.742188 -20.4375 52.269531 -20.296875 51.71875 -20.015625 C 51.164062 -19.742188 50.890625 -19.445312 50.890625 -19.125 C 50.890625 -19.050781 50.972656 -18.9375 51.140625 -18.78125 L 51.609375 -18.421875 C 51.367188 -18.179688 51.367188 -17.90625 51.609375 -17.59375 L 52.078125 -17.234375 C 52.160156 -17.234375 52.21875 -17.191406 52.25 -17.109375 C 52.289062 -17.035156 52.3125 -17 52.3125 -17 C 52.082031 -16.84375 51.804688 -16.765625 51.484375 -16.765625 C 50.773438 -16.765625 50.421875 -16.566406 50.421875 -16.171875 C 50.265625 -15.628906 50.1875 -15.359375 50.1875 -15.359375 C 50.34375 -15.429688 50.519531 -15.425781 50.71875 -15.34375 C 50.914062 -15.269531 50.972656 -15.15625 50.890625 -15 C 50.890625 -14.84375 50.8125 -14.765625 50.65625 -14.765625 C 50.582031 -14.765625 50.546875 -14.722656 50.546875 -14.640625 C 50.546875 -14.484375 50.503906 -14.367188 50.421875 -14.296875 L 50.1875 -13.8125 L 50.1875 -12.75 C 50.269531 -12.675781 50.679688 -12.476562 51.421875 -12.15625 C 52.171875 -11.84375 52.191406 -11.53125 51.484375 -11.21875 C 51.722656 -11.132812 52.195312 -11.09375 52.90625 -11.09375 C 53.144531 -11.09375 53.34375 -11.132812 53.5 -11.21875 L 54.203125 -11.21875 L 54.203125 -9.5625 L 54.09375 -9.5625 L 54.09375 -9.453125 L 53.96875 -9.453125 L 54.328125 -9.09375 C 54.554688 -8.851562 54.671875 -8.734375 54.671875 -8.734375 C 54.671875 -8.578125 54.75 -8.5 54.90625 -8.5 C 54.90625 -8.5 55.023438 -8.382812 55.265625 -8.15625 L 55.390625 -7.078125 C 55.546875 -6.691406 55.820312 -6.378906 56.21875 -6.140625 C 56.21875 -5.984375 56.175781 -5.863281 56.09375 -5.78125 L 56.09375 -5.546875 C 56.09375 -5.390625 56.25 -5.132812 56.5625 -4.78125 C 56.882812 -4.425781 57.125 -4.25 57.28125 -4.25 Z M 12.75 -18.421875 C 12.988281 -18.660156 12.875 -18.816406 12.40625 -18.890625 L 12.40625 -18.65625 Z M 17.828125 -16.53125 C 17.984375 -16.6875 17.945312 -16.882812 17.71875 -17.125 C 17.5625 -16.96875 17.484375 -16.769531 17.484375 -16.53125 C 17.484375 -16.457031 17.5625 -16.421875 17.71875 -16.421875 C 17.789062 -16.421875 17.828125 -16.457031 17.828125 -16.53125 Z M 49.25 -15.359375 C 49.320312 -15.359375 49.359375 -15.472656 49.359375 -15.703125 L 48.53125 -15.703125 C 48.53125 -15.472656 48.570312 -15.359375 48.65625 -15.359375 C 48.65625 -15.359375 48.773438 -15.238281 49.015625 -15 C 49.015625 -15.070312 49.03125 -15.128906 49.0625 -15.171875 C 49.101562 -15.210938 49.164062 -15.273438 49.25 -15.359375 Z M 15 -14.40625 L 15.234375 -14.53125 L 15.234375 -15.109375 C 15.234375 -15.347656 15 -15.46875 14.53125 -15.46875 L 14.296875 -15.359375 C 14.296875 -15.359375 14.273438 -15.335938 14.234375 -15.296875 C 14.191406 -15.253906 14.171875 -15.234375 14.171875 -15.234375 L 14.171875 -14.765625 Z M 43.6875 -15.359375 L 43.6875 -14.875 L 44.515625 -14.875 L 44.515625 -15.359375 Z M 46.640625 -13.9375 C 46.640625 -14.175781 46.539062 -14.3125 46.34375 -14.34375 C 46.15625 -14.382812 46.019531 -14.40625 45.9375 -14.40625 L 45.9375 -13.9375 Z M 14.53125 -12.515625 C 14.53125 -12.597656 14.585938 -12.675781 14.703125 -12.75 C 14.816406 -12.832031 14.914062 -12.910156 15 -12.984375 L 15.828125 -13.21875 L 15.828125 -13.703125 C 15.671875 -13.859375 15.550781 -13.9375 15.46875 -13.9375 L 15 -14.296875 C 14.6875 -13.578125 14.054688 -13.21875 13.109375 -13.21875 C 13.109375 -13.0625 13.222656 -12.863281 13.453125 -12.625 C 13.691406 -12.394531 13.929688 -12.28125 14.171875 -12.28125 C 14.253906 -12.28125 14.375 -12.359375 14.53125 -12.515625 Z M 45.234375 -13.109375 C 44.910156 -13.179688 44.710938 -13.257812 44.640625 -13.34375 L 44.75 -12.515625 L 45.9375 -12.75 Z M 19.25 -10.15625 C 19.40625 -10.238281 19.484375 -10.394531 19.484375 -10.625 L 19.25 -10.859375 C 19.09375 -10.859375 19.015625 -10.820312 19.015625 -10.75 L 18.78125 -10.75 L 18.296875 -10.625 L 18.78125 -10.28125 Z M 14.296875 -9.453125 C 14.210938 -9.453125 14.09375 -9.507812 13.9375 -9.625 C 13.78125 -9.738281 13.625 -9.835938 13.46875 -9.921875 C 13.070312 -9.921875 12.875 -9.765625 12.875 -9.453125 C 12.945312 -9.367188 13.179688 -9.367188 13.578125 -9.453125 Z M 15.703125 -8.96875 C 15.941406 -9.207031 16.097656 -9.328125 16.171875 -9.328125 C 16.171875 -9.640625 16.015625 -9.835938 15.703125 -9.921875 C 15.234375 -9.679688 15 -9.523438 15 -9.453125 Z M 47.359375 -8.96875 C 47.359375 -9.132812 47.203125 -9.375 46.890625 -9.6875 L 46.296875 -9.328125 L 46.0625 -8.96875 Z M 48.53125 -3.421875 C 48.53125 -3.421875 48.550781 -3.441406 48.59375 -3.484375 C 48.632812 -3.523438 48.65625 -3.546875 48.65625 -3.546875 C 48.414062 -4.015625 48.296875 -4.40625 48.296875 -4.71875 L 47.125 -4.71875 C 47.28125 -4.40625 47.472656 -4.109375 47.703125 -3.828125 C 47.941406 -3.554688 48.179688 -3.34375 48.421875 -3.1875 Z M 48.53125 -3.421875"/></g><g id="c"><path d="M 55.625 -12.046875 C 55.851562 -11.734375 55.96875 -11.335938 55.96875 -10.859375 C 55.96875 -10.148438 55.578125 -9.519531 54.796875 -8.96875 L 41.8125 -0.46875 C 41.332031 -0.0703125 40.703125 0.0390625 39.921875 -0.125 C 39.128906 -0.351562 38.613281 -0.785156 38.375 -1.421875 C 35.3125 -8.191406 33.226562 -12.441406 32.125 -14.171875 L 32.125 -14.296875 C 29.914062 -18.222656 28.222656 -21.171875 27.046875 -23.140625 L 25.03125 -26.453125 L 18.421875 -24.6875 L 18.0625 -3.1875 C 18.0625 -1.613281 17.273438 -0.828125 15.703125 -0.828125 L 1.1875 -0.828125 C 0.476562 -0.828125 -0.09375 -1.0625 -0.53125 -1.53125 C -0.96875 -2.007812 -1.1875 -2.601562 -1.1875 -3.3125 L 3.65625 -76.40625 C 3.738281 -77.664062 4.410156 -78.414062 5.671875 -78.65625 L 23.5 -80.890625 L 23.625 -80.890625 L 26.921875 -81.25 C 30.078125 -81.5625 32.519531 -81.71875 34.25 -81.71875 C 37.707031 -81.71875 40.695312 -81.40625 43.21875 -80.78125 C 47.707031 -79.832031 51.132812 -77.425781 53.5 -73.5625 C 55.863281 -69.707031 57.046875 -65.179688 57.046875 -59.984375 C 57.046875 -56.054688 56.375 -52.082031 55.03125 -48.0625 C 53.695312 -44.28125 51.53125 -40.859375 48.53125 -37.796875 C 46.726562 -36.140625 45.195312 -34.878906 43.9375 -34.015625 Z M 30 -74.75 L 30 -74.984375 L 28.9375 -74.984375 L 28.9375 -74.75 Z M 29.046875 -73.921875 L 29.046875 -73.578125 L 29.640625 -73.578125 C 29.640625 -73.648438 29.71875 -73.765625 29.875 -73.921875 L 30 -74.046875 L 29.171875 -74.046875 Z M 34.953125 -73.453125 C 34.953125 -73.535156 34.875 -73.578125 34.71875 -73.578125 C 34.5625 -73.578125 34.484375 -73.65625 34.484375 -73.8125 L 34.484375 -73.21875 Z M 32.828125 -72.984375 L 33.0625 -73.21875 L 32.828125 -73.21875 L 32.59375 -72.984375 Z M 30.34375 -72.75 C 30.507812 -72.75 30.59375 -72.707031 30.59375 -72.625 C 30.59375 -72.550781 30.628906 -72.515625 30.703125 -72.515625 C 30.859375 -72.515625 30.9375 -72.550781 30.9375 -72.625 L 30.9375 -72.75 Z M 27.875 -72.15625 C 27.394531 -71.757812 27.316406 -71.363281 27.640625 -70.96875 L 28.453125 -70.96875 L 28.453125 -71.09375 C 28.453125 -71.40625 28.257812 -71.757812 27.875 -72.15625 Z M 40.5 -72.15625 C 40.425781 -72.070312 40.445312 -71.953125 40.5625 -71.796875 C 40.6875 -71.640625 40.828125 -71.5625 40.984375 -71.5625 C 41.054688 -71.5625 41.09375 -71.640625 41.09375 -71.796875 C 41.09375 -71.796875 41.128906 -71.816406 41.203125 -71.859375 C 41.285156 -71.898438 41.328125 -71.957031 41.328125 -72.03125 Z M 38.375 -71.921875 C 37.988281 -71.523438 37.753906 -71.25 37.671875 -71.09375 L 37.796875 -71.09375 L 37.90625 -70.96875 L 38.03125 -70.96875 C 38.414062 -71.207031 38.609375 -71.40625 38.609375 -71.5625 C 38.609375 -71.644531 38.53125 -71.765625 38.375 -71.921875 Z M 7.796875 -70.96875 L 7.796875 -71.5625 L 7.5625 -71.5625 L 7.5625 -70.96875 Z M 32.59375 -71.5625 C 32.59375 -71.5625 32.4375 -71.40625 32.125 -71.09375 L 33.296875 -70.96875 L 33.53125 -71.328125 L 33.0625 -71.453125 C 33.0625 -71.523438 32.90625 -71.5625 32.59375 -71.5625 Z M 34.25 -71.328125 C 34.25 -71.171875 34.285156 -71.050781 34.359375 -70.96875 L 34.484375 -70.734375 L 35.1875 -70.734375 L 35.1875 -71.328125 Z M 44.171875 -70.96875 L 44.171875 -71.328125 L 43.6875 -71.328125 L 43.6875 -70.96875 Z M 27.640625 -70.140625 L 27.515625 -70.390625 L 27.15625 -70.140625 L 27.15625 -69.90625 Z M 36.375 -69.90625 C 36.53125 -70.0625 36.53125 -70.140625 36.375 -70.140625 L 36.140625 -70.390625 C 35.984375 -70.222656 35.90625 -70.140625 35.90625 -70.140625 L 35.90625 -69.90625 Z M 32.59375 -69.4375 L 32.828125 -69.4375 L 32.828125 -69.90625 L 32.59375 -69.90625 Z M 34.25 -68.96875 C 34.09375 -68.8125 33.851562 -68.65625 33.53125 -68.5 L 33.0625 -68.140625 L 34.25 -68.140625 Z M 36.84375 -68.609375 C 36.6875 -68.765625 36.296875 -68.84375 35.671875 -68.84375 C 35.671875 -68.769531 35.726562 -68.710938 35.84375 -68.671875 C 35.957031 -68.628906 36.054688 -68.570312 36.140625 -68.5 C 36.140625 -68.5 36.296875 -68.457031 36.609375 -68.375 L 36.734375 -68.375 L 36.734375 -68.5 Z M 38.609375 -68.265625 C 38.535156 -68.265625 38.457031 -68.242188 38.375 -68.203125 C 38.300781 -68.160156 38.222656 -68.140625 38.140625 -68.140625 L 38.375 -67.546875 L 38.859375 -67.78125 L 39.09375 -68.015625 Z M 44.640625 -67.078125 C 44.640625 -67.390625 44.441406 -67.703125 44.046875 -68.015625 L 44.046875 -66.84375 Z M 39.203125 -67.546875 C 38.890625 -67.390625 38.734375 -67.234375 38.734375 -67.078125 C 38.734375 -66.921875 38.890625 -66.84375 39.203125 -66.84375 L 39.796875 -66.71875 C 39.953125 -67.113281 39.953125 -67.507812 39.796875 -67.90625 Z M 24.09375 -67.078125 C 24.25 -66.765625 24.328125 -66.53125 24.328125 -66.375 L 24.5625 -65.65625 L 25.03125 -65.890625 L 24.921875 -66.25 L 24.796875 -66.484375 L 24.796875 -66.84375 C 24.796875 -67 24.914062 -67.078125 25.15625 -67.078125 Z M 39.921875 -66.25 C 39.597656 -66.40625 39.359375 -66.484375 39.203125 -66.484375 L 39.09375 -65.890625 L 39.203125 -65.78125 L 39.671875 -65.78125 L 39.671875 -65.890625 L 39.921875 -65.890625 Z M 45.109375 -64.953125 C 45.347656 -65.023438 45.390625 -65.300781 45.234375 -65.78125 C 44.753906 -65.539062 44.398438 -65.300781 44.171875 -65.0625 Z M 46.0625 -64.71875 C 46.0625 -64.632812 46.140625 -64.515625 46.296875 -64.359375 C 46.453125 -64.203125 46.566406 -64.125 46.640625 -64.125 C 46.566406 -64.4375 46.453125 -64.59375 46.296875 -64.59375 Z M 19.484375 -44.640625 C 23.421875 -45.191406 26.742188 -46.097656 29.453125 -47.359375 C 32.171875 -48.617188 34.28125 -50.703125 35.78125 -53.609375 C 37.039062 -56.285156 37.671875 -58.296875 37.671875 -59.640625 C 37.671875 -60.503906 37.515625 -61.25 37.203125 -61.875 L 37.203125 -62 C 36.890625 -62.863281 35.984375 -63.492188 34.484375 -63.890625 L 32.953125 -64 C 31.847656 -64 30.703125 -63.84375 29.515625 -63.53125 L 21.25 -61.640625 Z M 42.515625 -62.125 C 42.515625 -62.28125 42.472656 -62.394531 42.390625 -62.46875 L 41.921875 -62.59375 L 41.921875 -62.125 Z M 42.390625 -60.703125 C 42.628906 -60.929688 42.75 -61.164062 42.75 -61.40625 L 42.28125 -61.40625 L 41.8125 -61.171875 C 41.644531 -61.015625 41.601562 -60.9375 41.6875 -60.9375 Z M 44.046875 -60.9375 C 44.441406 -60.9375 44.640625 -61.09375 44.640625 -61.40625 L 44.046875 -61.40625 Z M 52.78125 -59.75 C 52.78125 -59.519531 52.703125 -59.40625 52.546875 -59.40625 C 52.628906 -59.320312 52.726562 -59.28125 52.84375 -59.28125 C 52.96875 -59.28125 53.066406 -59.242188 53.140625 -59.171875 L 53.84375 -59.046875 C 53.84375 -59.203125 53.882812 -59.28125 53.96875 -59.28125 C 54.050781 -59.363281 54.09375 -59.484375 54.09375 -59.640625 C 54.09375 -59.953125 53.929688 -60.304688 53.609375 -60.703125 L 53.609375 -59.75 Z M 43.578125 -59.984375 C 43.578125 -59.910156 43.5 -59.875 43.34375 -59.875 L 44.171875 -59.640625 L 44.046875 -59.875 C 43.972656 -59.945312 43.851562 -59.984375 43.6875 -59.984375 Z M 44.046875 -58.8125 L 44.171875 -58.8125 L 43.8125 -59.171875 L 43.6875 -59.046875 Z M 53.84375 -58.8125 L 53.609375 -58.8125 L 53.609375 -56.09375 L 53.84375 -56.09375 Z M 53.734375 -53.609375 C 53.734375 -54.003906 53.929688 -54.359375 54.328125 -54.671875 C 53.929688 -54.753906 53.734375 -54.953125 53.734375 -55.265625 C 53.804688 -55.421875 53.765625 -55.65625 53.609375 -55.96875 L 53.609375 -47.59375 C 53.929688 -48.0625 54.09375 -48.535156 54.09375 -49.015625 L 53.96875 -50.421875 C 53.882812 -50.734375 53.84375 -51.128906 53.84375 -51.609375 C 53.84375 -51.921875 53.882812 -52.117188 53.96875 -52.203125 C 53.96875 -52.515625 53.890625 -52.90625 53.734375 -53.375 Z M 41.5625 -53.84375 C 41.332031 -54.394531 40.898438 -54.671875 40.265625 -54.671875 Z M 42.515625 -52.90625 L 42.515625 -52.546875 L 43.578125 -52.546875 L 43.578125 -52.90625 Z M 40.5 -51.375 C 40.5 -51.445312 40.421875 -51.5625 40.265625 -51.71875 C 40.035156 -51.882812 39.835938 -51.96875 39.671875 -51.96875 L 39.4375 -51.140625 Z M 11.34375 -49.59375 C 11.257812 -49.832031 11.097656 -50.070312 10.859375 -50.3125 C 10.703125 -50.382812 10.625 -50.539062 10.625 -50.78125 C 10.46875 -50.539062 10.078125 -50.34375 9.453125 -50.1875 L 10.390625 -49.953125 C 10.703125 -49.796875 10.859375 -49.675781 10.859375 -49.59375 Z M 37.3125 -49.59375 C 37.394531 -49.59375 37.550781 -49.535156 37.78125 -49.421875 C 38.019531 -49.304688 38.21875 -49.285156 38.375 -49.359375 C 38.53125 -49.441406 38.648438 -49.5625 38.734375 -49.71875 L 38.734375 -50.3125 L 37.796875 -50.421875 C 37.628906 -50.347656 37.503906 -50.289062 37.421875 -50.25 C 37.347656 -50.207031 37.351562 -50.1875 37.4375 -50.1875 C 37.28125 -50.1875 37.203125 -50.066406 37.203125 -49.828125 Z M 8.734375 -50.078125 C 8.734375 -49.992188 8.8125 -49.875 8.96875 -49.71875 L 9.21875 -49.828125 L 9.21875 -49.953125 C 9.375 -50.109375 9.453125 -50.226562 9.453125 -50.3125 L 8.734375 -50.3125 Z M 11.34375 -48.53125 C 11.175781 -48.613281 10.957031 -48.753906 10.6875 -48.953125 C 10.414062 -49.148438 10.160156 -49.25 9.921875 -49.25 L 9.453125 -49.015625 C 9.128906 -48.847656 8.890625 -48.6875 8.734375 -48.53125 L 9.21875 -48.421875 C 9.375 -48.265625 9.53125 -48.1875 9.6875 -48.1875 Z M 40.390625 -49.015625 L 40.15625 -48.53125 L 40.625 -48.421875 L 40.859375 -48.890625 Z M 32.828125 -47.359375 C 32.671875 -47.359375 32.515625 -47.296875 32.359375 -47.171875 C 32.203125 -47.054688 32.125 -46.921875 32.125 -46.765625 C 32.28125 -46.609375 32.515625 -46.53125 32.828125 -46.53125 L 32.828125 -45.9375 C 32.984375 -45.9375 33.378906 -46.054688 34.015625 -46.296875 C 33.691406 -46.523438 33.296875 -46.640625 32.828125 -46.640625 L 32.828125 -46.890625 C 32.984375 -47.046875 32.984375 -47.203125 32.828125 -47.359375 Z M 37.078125 -46.765625 L 36.84375 -47.234375 L 36.140625 -46.53125 L 37.078125 -46.53125 Z M 8.96875 -47 L 8.734375 -47 L 8.96875 -46.171875 L 9.21875 -46.171875 Z M 34.953125 -45.703125 C 35.191406 -46.097656 35.191406 -46.453125 34.953125 -46.765625 L 34.25 -46.765625 C 34.5625 -46.140625 34.796875 -45.785156 34.953125 -45.703125 Z M 8.96875 -45.9375 L 8.734375 -45.46875 L 8.96875 -45.34375 L 9.21875 -45.828125 Z M 12.046875 -45.703125 L 12.046875 -45.234375 L 12.640625 -45.234375 L 12.640625 -45.703125 Z M 27.640625 -45.578125 L 27.640625 -45.109375 L 28.21875 -45.234375 Z M 34.015625 -45.234375 C 33.535156 -44.992188 33.140625 -44.71875 32.828125 -44.40625 L 33.78125 -44.40625 L 35.671875 -43.9375 L 35.546875 -44.046875 L 35.421875 -44.28125 L 35.421875 -44.40625 L 34.25 -44.40625 Z M 36.140625 -43.21875 C 36.296875 -43.21875 36.375 -43.257812 36.375 -43.34375 C 36.375 -43.570312 36.332031 -43.726562 36.25 -43.8125 L 35.90625 -44.171875 C 35.507812 -43.691406 35.429688 -43.335938 35.671875 -43.109375 Z M 33.53125 -42.046875 C 33.695312 -42.046875 33.859375 -41.96875 34.015625 -41.8125 C 34.484375 -42.195312 34.71875 -42.507812 34.71875 -42.75 L 34.59375 -42.984375 L 34.484375 -43.109375 C 34.398438 -43.179688 34.320312 -43.375 34.25 -43.6875 L 34.015625 -43.453125 L 33.78125 -43.453125 L 33.53125 -43.21875 Z M 7.328125 -43.109375 C 7.242188 -43.109375 7.203125 -43.03125 7.203125 -42.875 L 7.796875 -42.875 C 7.796875 -42.945312 7.640625 -43.140625 7.328125 -43.453125 Z M 38.03125 -42.15625 L 38.03125 -42.625 L 37.078125 -42.390625 L 37.078125 -42.046875 Z M 35.90625 -41.921875 C 35.269531 -41.921875 34.953125 -41.765625 34.953125 -41.453125 C 34.953125 -41.210938 35.191406 -41.09375 35.671875 -41.09375 L 35.90625 -41.09375 Z M 10.859375 -41.8125 L 10.15625 -41.5625 L 10.15625 -41.453125 L 11.09375 -41.6875 Z M 25.984375 -40.859375 C 25.984375 -40.859375 26.140625 -41.015625 26.453125 -41.328125 L 25.984375 -41.6875 C 25.671875 -41.601562 25.515625 -41.40625 25.515625 -41.09375 Z M 36.375 -41.09375 C 35.90625 -40.863281 35.671875 -40.585938 35.671875 -40.265625 L 36.375 -40.265625 C 36.6875 -40.503906 36.6875 -40.78125 36.375 -41.09375 Z M 35.421875 -40.03125 C 35.421875 -40.269531 35.265625 -40.46875 34.953125 -40.625 C 34.796875 -40.625 34.640625 -40.5625 34.484375 -40.4375 C 34.328125 -40.320312 34.25 -40.226562 34.25 -40.15625 C 34.40625 -40.070312 34.640625 -40.03125 34.953125 -40.03125 Z M 38.375 -39.796875 C 38.375 -39.878906 38.296875 -39.921875 38.140625 -39.921875 C 38.140625 -39.921875 38.117188 -39.9375 38.078125 -39.96875 C 38.046875 -40.007812 38.03125 -40.03125 38.03125 -40.03125 L 37.796875 -40.15625 L 36.96875 -40.15625 C 37.125 -39.832031 37.203125 -39.515625 37.203125 -39.203125 C 37.429688 -39.128906 37.628906 -39.128906 37.796875 -39.203125 L 38.375 -39.203125 Z M 25.515625 -38.265625 L 25.03125 -38.265625 L 25.03125 -38.03125 L 25.515625 -38.03125 Z M 37.078125 -37.546875 C 37.390625 -37.546875 37.585938 -37.585938 37.671875 -37.671875 C 37.828125 -37.828125 37.90625 -37.945312 37.90625 -38.03125 C 37.75 -38.1875 37.394531 -38.265625 36.84375 -38.265625 Z M 25.515625 -36.375 C 25.515625 -36.21875 25.550781 -36.140625 25.625 -36.140625 L 25.984375 -36.140625 C 26.054688 -36.535156 26.054688 -36.734375 25.984375 -36.734375 C 25.671875 -36.734375 25.515625 -36.613281 25.515625 -36.375 Z M 36.96875 -36.140625 C 36.570312 -35.742188 36.375 -35.390625 36.375 -35.078125 L 36.609375 -34.953125 L 37.4375 -34.953125 L 37.203125 -35.671875 Z M 37.546875 -34.84375 L 37.203125 -34.359375 L 37.671875 -34.25 L 38.03125 -34.71875 Z M 38.609375 -33.78125 C 39.003906 -33.78125 39.359375 -33.894531 39.671875 -34.125 L 38.609375 -34.359375 C 38.453125 -34.046875 38.453125 -33.851562 38.609375 -33.78125 Z M 36.96875 -34.125 C 36.570312 -34.363281 36.21875 -34.328125 35.90625 -34.015625 C 36.0625 -33.859375 36.335938 -33.78125 36.734375 -33.78125 C 36.890625 -33.78125 36.96875 -33.859375 36.96875 -34.015625 Z M 26.21875 -32 L 25.984375 -31.890625 L 26.09375 -31.65625 L 26.328125 -31.65625 Z M 38.859375 -27.390625 C 38.859375 -27.628906 38.816406 -27.789062 38.734375 -27.875 C 38.734375 -27.875 38.710938 -27.851562 38.671875 -27.8125 C 38.628906 -27.769531 38.609375 -27.75 38.609375 -27.75 L 38.5 -27.640625 L 38.375 -27.640625 Z M 48.65625 -22.078125 C 48.8125 -22.078125 48.890625 -22.195312 48.890625 -22.4375 L 48.296875 -22.4375 Z M 49.25 -21.375 L 48.65625 -21.375 L 48.65625 -20.671875 C 48.894531 -20.429688 49.207031 -20.3125 49.59375 -20.3125 C 49.4375 -20.550781 49.359375 -20.785156 49.359375 -21.015625 Z M 49.828125 -18.890625 L 49.59375 -18.546875 L 49.828125 -18.421875 L 50.078125 -18.78125 Z M 51.609375 -14.046875 C 51.609375 -14.367188 51.367188 -14.566406 50.890625 -14.640625 C 50.660156 -14.410156 50.546875 -14.253906 50.546875 -14.171875 C 50.546875 -13.929688 50.644531 -13.710938 50.84375 -13.515625 C 51.039062 -13.316406 51.21875 -13.21875 51.375 -13.21875 L 51.484375 -13.578125 Z M 48.421875 -12.28125 C 48.578125 -12.28125 48.789062 -12.316406 49.0625 -12.390625 C 49.34375 -12.472656 49.5625 -12.59375 49.71875 -12.75 L 49.359375 -12.875 L 49.015625 -13.109375 C 48.847656 -13.179688 48.570312 -13.21875 48.1875 -13.21875 C 48.03125 -13.21875 47.867188 -13.175781 47.703125 -13.09375 C 47.546875 -13.019531 47.46875 -12.90625 47.46875 -12.75 C 47.789062 -12.4375 48.109375 -12.28125 48.421875 -12.28125 Z M 7.796875 -5.4375 C 8.191406 -5.4375 8.425781 -5.59375 8.5 -5.90625 L 8.03125 -5.90625 C 8.03125 -5.59375 7.953125 -5.4375 7.796875 -5.4375 Z M 7.796875 -5.4375"/></g><g id="e"><path d="M 54.796875 -63.765625 C 56.210938 -63.847656 56.960938 -64.632812 57.046875 -66.125 L 57.390625 -79.484375 C 57.390625 -80.191406 57.148438 -80.78125 56.671875 -81.25 C 56.203125 -81.71875 55.613281 -81.953125 54.90625 -81.953125 L 1.890625 -80.890625 C 0.390625 -80.816406 -0.394531 -80.03125 -0.46875 -78.53125 L -1.1875 -60.703125 C -1.1875 -59.910156 -0.910156 -59.28125 -0.359375 -58.8125 C 0.191406 -58.34375 0.863281 -58.1875 1.65625 -58.34375 L 17.953125 -61.40625 L 17.234375 -36.140625 C 17.472656 -36.296875 17.710938 -36.296875 17.953125 -36.140625 L 17.953125 -35.90625 C 17.953125 -35.820312 17.875 -35.78125 17.71875 -35.78125 L 17.234375 -36.015625 L 16.765625 -21.5 L 16.890625 -21.5 C 16.890625 -21.5 16.867188 -21.476562 16.828125 -21.4375 C 16.785156 -21.394531 16.765625 -21.375 16.765625 -21.375 L 16.296875 -2.484375 L 16.296875 -2.125 C 16.296875 -1.570312 16.53125 -1.078125 17 -0.640625 C 17.476562 -0.210938 18.03125 0 18.65625 0 L 34.71875 -0.359375 C 36.21875 -0.515625 36.96875 -1.300781 36.96875 -2.71875 L 37.078125 -3.546875 L 36.96875 -3.546875 C 36.726562 -3.546875 36.488281 -3.679688 36.25 -3.953125 C 36.019531 -4.234375 35.90625 -4.453125 35.90625 -4.609375 L 36.25 -5.3125 C 36.488281 -5.550781 36.609375 -5.785156 36.609375 -6.015625 C 36.609375 -6.097656 36.488281 -6.257812 36.25 -6.5 C 36.019531 -6.726562 35.90625 -6.921875 35.90625 -7.078125 C 35.90625 -7.242188 36.019531 -7.484375 36.25 -7.796875 C 36.25 -8.191406 36.210938 -8.503906 36.140625 -8.734375 C 36.054688 -8.890625 36.015625 -9.164062 36.015625 -9.5625 C 36.015625 -9.5625 36.09375 -9.640625 36.25 -9.796875 C 36.332031 -9.796875 36.390625 -9.816406 36.421875 -9.859375 C 36.460938 -9.898438 36.523438 -9.957031 36.609375 -10.03125 C 36.296875 -10.195312 36.140625 -10.359375 36.140625 -10.515625 C 35.984375 -10.671875 35.90625 -10.863281 35.90625 -11.09375 C 36.375 -11.257812 36.609375 -11.457031 36.609375 -11.6875 C 36.609375 -11.84375 36.410156 -12.082031 36.015625 -12.40625 C 36.015625 -12.5625 36.253906 -12.675781 36.734375 -12.75 C 37.203125 -12.90625 37.316406 -13.101562 37.078125 -13.34375 L 36.734375 -13.578125 C 36.492188 -13.578125 36.296875 -13.617188 36.140625 -13.703125 C 36.140625 -13.859375 36.21875 -14.09375 36.375 -14.40625 L 36.609375 -14.875 L 36.609375 -15.109375 L 36.25 -15.234375 C 36.09375 -15.234375 35.972656 -15.210938 35.890625 -15.171875 C 35.816406 -15.128906 35.742188 -15.109375 35.671875 -15.109375 C 35.503906 -15.109375 35.421875 -15.191406 35.421875 -15.359375 L 35.421875 -15.59375 L 35.546875 -15.59375 C 35.546875 -15.59375 35.566406 -15.609375 35.609375 -15.640625 C 35.648438 -15.679688 35.671875 -15.703125 35.671875 -15.703125 C 35.828125 -15.785156 36.0625 -15.828125 36.375 -15.828125 C 36.6875 -15.828125 36.882812 -15.984375 36.96875 -16.296875 L 37.3125 -15.828125 L 37.4375 -16.53125 L 36.734375 -16.53125 C 36.335938 -16.53125 36.21875 -16.847656 36.375 -17.484375 C 36.53125 -17.710938 36.53125 -17.945312 36.375 -18.1875 L 36.140625 -18.546875 L 36.015625 -19.015625 C 36.015625 -19.085938 36.132812 -19.242188 36.375 -19.484375 C 36.613281 -19.722656 36.734375 -19.921875 36.734375 -20.078125 L 36.484375 -21.140625 L 36.140625 -22.3125 L 36.25 -22.671875 L 36.375 -22.671875 L 36.609375 -22.90625 L 36.609375 -23.265625 C 36.609375 -23.578125 36.488281 -23.890625 36.25 -24.203125 L 36.84375 -24.453125 C 37 -24.453125 37.15625 -24.53125 37.3125 -24.6875 L 37.671875 -24.6875 L 37.796875 -27.515625 L 37.671875 -27.515625 C 37.585938 -27.515625 37.3125 -27.632812 36.84375 -27.875 C 37.082031 -28.257812 37.398438 -28.453125 37.796875 -28.453125 L 38.734375 -63.1875 Z M 8.5 -68.015625 L 8.5 -68.375 L 9.21875 -68.375 L 9.21875 -68.015625 Z M 18.890625 -67.546875 L 18.890625 -68.015625 L 19.484375 -68.015625 L 19.484375 -67.546875 Z M 5.671875 -66.375 C 5.359375 -66.53125 4.960938 -66.609375 4.484375 -66.609375 C 4.253906 -66.921875 4.332031 -67.3125 4.71875 -67.78125 L 5.4375 -67.78125 L 6.140625 -67.3125 L 6.140625 -66.84375 Z M 16.53125 -67.4375 C 16.53125 -67.195312 16.492188 -67.078125 16.421875 -67.078125 L 16.171875 -67.078125 L 16.0625 -66.953125 L 15.59375 -67.078125 L 15.59375 -67.78125 L 16.53125 -67.78125 Z M -0.59375 -66.953125 L -0.59375 -67.3125 L 0.46875 -67.3125 L 0.46875 -66.953125 Z M 8.96875 -67.078125 L 8.5 -66.953125 C 8.34375 -66.796875 8.265625 -66.71875 8.265625 -66.71875 C 7.867188 -66.5625 7.789062 -66.363281 8.03125 -66.125 C 7.71875 -65.894531 7.484375 -65.859375 7.328125 -66.015625 C 7.242188 -66.015625 7.125 -66.050781 6.96875 -66.125 C 6.8125 -66.207031 6.691406 -66.289062 6.609375 -66.375 C 6.765625 -66.445312 7.003906 -66.640625 7.328125 -66.953125 C 7.554688 -67.191406 7.867188 -67.3125 8.265625 -67.3125 L 8.5 -67.3125 Z M 4.84375 -65.890625 L 4.84375 -66.375 L 6.375 -66.125 Z M 9.21875 -64.25 C 8.664062 -64.320312 8.367188 -64.457031 8.328125 -64.65625 C 8.285156 -64.851562 8.421875 -65.109375 8.734375 -65.421875 L 8.96875 -65.421875 L 9.21875 -65.3125 L 9.6875 -65.3125 L 9.6875 -64.484375 Z M 18.421875 -65.0625 C 18.421875 -64.75 18.300781 -64.476562 18.0625 -64.25 C 17.75 -64.476562 17.59375 -64.710938 17.59375 -64.953125 L 17.953125 -64.953125 Z M 5.3125 -63.890625 L 5.3125 -64.359375 L 6.015625 -64.359375 L 6.015625 -63.890625 Z M 13.46875 -63.765625 C 13.382812 -63.453125 12.988281 -63.335938 12.28125 -63.421875 C 12.125 -63.421875 12.003906 -63.457031 11.921875 -63.53125 L 11.578125 -63.53125 C 11.421875 -63.613281 11.179688 -63.65625 10.859375 -63.65625 C 11.097656 -64.125 11.414062 -64.359375 11.8125 -64.359375 C 11.96875 -64.359375 12.519531 -64.28125 13.46875 -64.125 Z M 19.953125 -29.640625 L 19.71875 -29.765625 L 20.078125 -30 L 20.3125 -30.234375 L 20.546875 -29.765625 L 19.953125 -29.515625 Z M 33.296875 -28.8125 C 33.140625 -28.65625 33.023438 -28.578125 32.953125 -28.578125 C 32.953125 -28.578125 32.929688 -28.554688 32.890625 -28.515625 C 32.847656 -28.472656 32.828125 -28.453125 32.828125 -28.453125 L 32.59375 -28.578125 L 32.59375 -28.8125 Z M 20.546875 -24.796875 C 20.546875 -24.566406 20.46875 -24.253906 20.3125 -23.859375 C 20.15625 -23.460938 20 -23.222656 19.84375 -23.140625 C 20 -22.984375 20.078125 -22.789062 20.078125 -22.5625 C 19.992188 -22.476562 19.972656 -22.335938 20.015625 -22.140625 C 20.054688 -21.941406 20.078125 -21.804688 20.078125 -21.734375 C 20.078125 -21.578125 20.15625 -21.179688 20.3125 -20.546875 L 20.671875 -19.84375 C 20.671875 -19.53125 20.472656 -19.253906 20.078125 -19.015625 L 20.3125 -18.890625 C 20.3125 -18.578125 20.332031 -18.222656 20.375 -17.828125 C 20.414062 -17.429688 20.394531 -17.078125 20.3125 -16.765625 C 20.15625 -16.296875 20.273438 -15.984375 20.671875 -15.828125 C 20.429688 -15.515625 20.191406 -15.359375 19.953125 -15.359375 C 20.191406 -15.117188 20.3125 -15 20.3125 -15 C 20.46875 -15 20.546875 -14.921875 20.546875 -14.765625 L 20.4375 -14.640625 C 20.351562 -14.566406 20.234375 -14.53125 20.078125 -14.53125 L 19.25 -14.640625 L 18.78125 -14.875 C 18.625 -14.875 18.503906 -14.914062 18.421875 -15 L 18.546875 -16.296875 L 18.78125 -18.890625 C 18.9375 -19.523438 18.9375 -19.878906 18.78125 -19.953125 L 18.78125 -20.78125 C 19.09375 -21.175781 19.25 -21.53125 19.25 -21.84375 C 19.25 -21.925781 19.128906 -22.082031 18.890625 -22.3125 C 18.734375 -22.394531 18.617188 -22.515625 18.546875 -22.671875 C 18.546875 -22.753906 18.625 -22.875 18.78125 -23.03125 L 19.125 -23.375 C 18.96875 -23.539062 18.890625 -23.703125 18.890625 -23.859375 C 18.890625 -24.015625 18.929688 -24.09375 19.015625 -24.09375 L 19.125 -24.453125 C 19.050781 -24.609375 19.015625 -24.84375 19.015625 -25.15625 C 19.015625 -25.707031 19.328125 -26.453125 19.953125 -27.390625 C 19.953125 -26.921875 20.070312 -26.726562 20.3125 -26.8125 C 20.625 -26.726562 20.78125 -26.566406 20.78125 -26.328125 L 20.671875 -25.859375 Z M 37.546875 -22.5625 C 37.546875 -22.476562 37.507812 -22.4375 37.4375 -22.4375 C 37.4375 -22.4375 37.4375 -22.394531 37.4375 -22.3125 C 37.4375 -22.238281 37.4375 -22.203125 37.4375 -22.203125 L 37.546875 -22.203125 Z M 35.1875 -17.953125 C 35.1875 -17.796875 35.109375 -17.675781 34.953125 -17.59375 L 34.484375 -17.71875 L 34.484375 -18.0625 C 34.554688 -17.988281 34.675781 -17.953125 34.84375 -17.953125 Z M 20.1875 -9.21875 C 19.800781 -9.050781 19.6875 -8.851562 19.84375 -8.625 C 19.84375 -8.3125 19.722656 -7.957031 19.484375 -7.5625 L 18.890625 -7.4375 C 18.492188 -7.988281 18.296875 -8.34375 18.296875 -8.5 C 18.140625 -8.582031 18.0625 -8.820312 18.0625 -9.21875 C 18.0625 -9.289062 18.140625 -9.328125 18.296875 -9.328125 C 18.460938 -9.328125 18.425781 -9.523438 18.1875 -9.921875 C 18.257812 -9.992188 18.296875 -10.113281 18.296875 -10.28125 L 18.421875 -10.515625 L 18.546875 -11.921875 C 18.546875 -12.160156 18.503906 -12.320312 18.421875 -12.40625 C 18.335938 -12.5625 18.296875 -12.753906 18.296875 -12.984375 C 18.222656 -13.066406 18.300781 -13.285156 18.53125 -13.640625 C 18.769531 -13.992188 19.007812 -14.25 19.25 -14.40625 C 19.332031 -14.40625 19.390625 -14.382812 19.421875 -14.34375 C 19.460938 -14.3125 19.523438 -14.253906 19.609375 -14.171875 L 19.953125 -14.046875 Z M 20.1875 -9.21875"/></g><g id="f"><path d="M 57.75 -78.0625 C 58.851562 -77.664062 59.40625 -76.992188 59.40625 -76.046875 L 59.171875 -75.109375 L 40.390625 -14.40625 L 40.265625 -14.640625 C 39.867188 -14.484375 39.632812 -14.328125 39.5625 -14.171875 C 39.476562 -13.859375 39.320312 -13.582031 39.09375 -13.34375 L 39.671875 -12.984375 L 40.03125 -12.984375 L 39.5625 -11.6875 L 39.328125 -11.34375 L 39.09375 -10.75 C 39.09375 -10.59375 39.128906 -10.472656 39.203125 -10.390625 L 36.609375 -2.125 C 36.296875 -1.019531 35.546875 -0.429688 34.359375 -0.359375 L 17.71875 0 C 16.300781 0 15.472656 -0.628906 15.234375 -1.890625 L 6.734375 -40.859375 L 2.25 -62.828125 L 2.484375 -63.0625 L 2.125 -63.1875 L 0.828125 -69.5625 L 0.828125 -69.796875 L -1.0625 -78.65625 L -1.0625 -79.125 C -1.0625 -79.832031 -0.84375 -80.421875 -0.40625 -80.890625 C 0.0195312 -81.367188 0.585938 -81.609375 1.296875 -81.609375 L 15.359375 -81.609375 C 16.609375 -81.609375 17.394531 -80.976562 17.71875 -79.71875 L 19.84375 -70.859375 L 19.125 -70.859375 L 19.125 -70.390625 C 19.207031 -70.390625 19.25 -70.304688 19.25 -70.140625 L 19.953125 -70.140625 L 19.953125 -70.265625 L 20.1875 -69.4375 L 19.71875 -69.4375 L 19.71875 -69.203125 L 20.1875 -69.203125 L 27.515625 -38.140625 L 41.328125 -81.71875 C 41.484375 -82.351562 41.875 -82.847656 42.5 -83.203125 C 43.132812 -83.554688 43.769531 -83.570312 44.40625 -83.25 L 45.34375 -82.90625 C 44.875 -82.664062 44.640625 -82.3125 44.640625 -81.84375 L 44.640625 -80.65625 C 44.640625 -80.1875 44.597656 -79.832031 44.515625 -79.59375 C 44.441406 -79.4375 44.207031 -79.28125 43.8125 -79.125 C 43.1875 -78.8125 42.988281 -78.414062 43.21875 -77.9375 C 43.300781 -77.78125 43.34375 -77.582031 43.34375 -77.34375 C 43.34375 -77.1875 43.300781 -77.109375 43.21875 -77.109375 C 42.988281 -76.953125 42.875 -76.875 42.875 -76.875 L 42.875 -75.21875 C 44.289062 -76.007812 45.113281 -76.601562 45.34375 -77 C 45.34375 -77.15625 45.421875 -77.234375 45.578125 -77.234375 L 46.0625 -77.59375 C 46.289062 -77.976562 46.40625 -78.488281 46.40625 -79.125 C 46.40625 -79.28125 46.328125 -79.359375 46.171875 -79.359375 L 46.0625 -79.59375 L 46.0625 -82.671875 Z M 1.1875 -73.453125 C 1.1875 -73.378906 1.242188 -73.300781 1.359375 -73.21875 C 1.472656 -73.132812 1.570312 -73.09375 1.65625 -73.09375 C 1.8125 -73.257812 1.8125 -73.378906 1.65625 -73.453125 Z M 1.421875 -72.515625 C 1.578125 -72.273438 1.769531 -72.273438 2 -72.515625 L 1.65625 -72.625 L 1.53125 -72.515625 Z M 7.4375 -71.203125 C 7.4375 -71.203125 7.515625 -71.285156 7.671875 -71.453125 C 7.671875 -71.453125 7.648438 -71.46875 7.609375 -71.5 C 7.578125 -71.539062 7.5625 -71.5625 7.5625 -71.5625 L 7.4375 -71.796875 L 7.078125 -71.796875 L 6.734375 -71.5625 C 6.804688 -71.40625 7.003906 -71.25 7.328125 -71.09375 Z M 17.234375 -71.453125 C 17.234375 -71.210938 17.394531 -71.09375 17.71875 -71.09375 L 17.828125 -71.328125 L 17.828125 -71.5625 L 17.59375 -71.796875 L 17.484375 -71.5625 C 17.316406 -71.5625 17.234375 -71.523438 17.234375 -71.453125 Z M 6.015625 -70.734375 C 5.472656 -70.890625 5.039062 -70.96875 4.71875 -70.96875 L 4.25 -70.859375 L 4.015625 -70.5 C 4.484375 -70.425781 4.71875 -70.226562 4.71875 -69.90625 L 4.953125 -70.03125 Z M 8.96875 -69.4375 L 8.96875 -69.90625 C 9.132812 -69.90625 9.21875 -69.867188 9.21875 -69.796875 L 9.453125 -69.796875 C 9.609375 -69.796875 9.800781 -69.910156 10.03125 -70.140625 L 9.5625 -70.390625 L 9.09375 -70.5 L 8.734375 -70.390625 C 8.578125 -70.222656 8.460938 -70.140625 8.390625 -70.140625 L 8.390625 -69.4375 Z M 14.53125 -69.90625 C 14.53125 -69.832031 14.609375 -69.796875 14.765625 -69.796875 C 14.765625 -69.710938 14.84375 -69.671875 15 -69.671875 C 15.238281 -69.671875 15.359375 -69.710938 15.359375 -69.796875 L 15.46875 -69.90625 L 15.234375 -70.390625 C 14.921875 -70.390625 14.6875 -70.304688 14.53125 -70.140625 Z M 17.484375 -69.671875 C 17.796875 -69.441406 18.109375 -69.40625 18.421875 -69.5625 L 18.421875 -69.796875 L 18.296875 -70.03125 C 18.066406 -69.789062 17.796875 -69.671875 17.484375 -69.671875 Z M 16.296875 -69.328125 C 16.210938 -69.398438 16.015625 -69.4375 15.703125 -69.4375 L 15 -69.5625 L 15 -68.609375 L 15.46875 -68.609375 C 15.46875 -68.765625 15.585938 -68.84375 15.828125 -68.84375 L 16.296875 -68.96875 Z M 11.453125 -68.734375 L 10.03125 -68.734375 C 9.957031 -68.648438 9.800781 -68.609375 9.5625 -68.609375 C 9.09375 -68.609375 8.78125 -68.492188 8.625 -68.265625 L 8.734375 -68.015625 C 8.816406 -68.015625 9.09375 -67.9375 9.5625 -67.78125 L 10.28125 -67.546875 C 10.4375 -67.546875 10.515625 -67.625 10.515625 -67.78125 C 10.515625 -67.78125 10.53125 -67.800781 10.5625 -67.84375 C 10.601562 -67.882812 10.625 -67.90625 10.625 -67.90625 L 12.40625 -68.015625 C 12.632812 -68.097656 13.101562 -68.140625 13.8125 -68.140625 L 13.8125 -68.375 C 13.8125 -68.53125 13.734375 -68.648438 13.578125 -68.734375 C 13.335938 -68.734375 13.140625 -68.65625 12.984375 -68.5 L 12.40625 -68.5 L 11.921875 -68.609375 Z M 10.859375 -67.3125 L 10.984375 -67.3125 L 10.859375 -67.546875 L 10.625 -67.4375 Z M 13.703125 -67.078125 C 13.703125 -67.078125 13.679688 -67.097656 13.640625 -67.140625 C 13.597656 -67.179688 13.578125 -67.203125 13.578125 -67.203125 L 12.40625 -67.203125 C 12.238281 -67.035156 12.15625 -66.914062 12.15625 -66.84375 C 12.15625 -66.6875 12.210938 -66.546875 12.328125 -66.421875 C 12.453125 -66.304688 12.632812 -66.25 12.875 -66.25 C 13.5 -66.25 13.8125 -66.484375 13.8125 -66.953125 L 13.8125 -67.078125 Z M 16.296875 -64.953125 C 16.609375 -64.953125 16.765625 -65.03125 16.765625 -65.1875 L 16.53125 -65.421875 C 16.375 -65.421875 16.296875 -65.265625 16.296875 -64.953125 Z M 9.21875 -63.421875 C 9.21875 -63.492188 9.375 -63.6875 9.6875 -64 L 8.625 -64.125 L 8.625 -63.765625 C 8.625 -63.691406 8.640625 -63.632812 8.671875 -63.59375 C 8.710938 -63.550781 8.734375 -63.492188 8.734375 -63.421875 Z M 10.515625 -62.9375 C 10.273438 -62.9375 10.035156 -62.703125 9.796875 -62.234375 L 10.15625 -62.125 L 11.21875 -62.125 C 11.457031 -62.125 11.613281 -62.160156 11.6875 -62.234375 C 11.375 -62.390625 11.21875 -62.585938 11.21875 -62.828125 L 11.453125 -63.0625 Z M 18.296875 -62.46875 L 18.546875 -62.234375 L 18.78125 -62.46875 L 18.546875 -62.59375 Z M 19.125 -59.984375 L 18.421875 -60.34375 L 18.421875 -59.28125 C 18.734375 -59.28125 18.890625 -59.160156 18.890625 -58.921875 C 18.972656 -58.921875 19.132812 -59.039062 19.375 -59.28125 L 19.71875 -59.640625 Z M 10.984375 -59.75 L 11.21875 -59.984375 C 10.820312 -60.148438 10.507812 -60.234375 10.28125 -60.234375 C 9.957031 -60.234375 9.796875 -60.113281 9.796875 -59.875 C 9.796875 -59.71875 9.957031 -59.640625 10.28125 -59.640625 L 10.859375 -59.515625 Z M 4.140625 -58.34375 C 4.140625 -58.570312 4.054688 -58.765625 3.890625 -58.921875 L 3.421875 -58.921875 L 3.078125 -58.8125 L 3.1875 -58.34375 Z M 11.21875 -56.453125 C 11.21875 -56.367188 11.296875 -56.25 11.453125 -56.09375 L 11.921875 -56.09375 C 12.242188 -56.25 12.40625 -56.40625 12.40625 -56.5625 C 12.40625 -56.800781 12.242188 -56.921875 11.921875 -56.921875 L 11.453125 -56.796875 C 11.296875 -56.640625 11.21875 -56.523438 11.21875 -56.453125 Z M 15.828125 -56.921875 L 15.234375 -56.5625 C 15.234375 -56.332031 15.429688 -56.132812 15.828125 -55.96875 C 15.898438 -56.050781 16.097656 -56.09375 16.421875 -56.09375 L 16.421875 -56.796875 Z M 19.015625 -48.890625 C 18.859375 -49.046875 18.617188 -49.125 18.296875 -49.125 L 18.0625 -48.765625 L 18.546875 -48.765625 Z M 25.515625 -41.5625 C 25.671875 -41.5625 25.785156 -41.523438 25.859375 -41.453125 C 25.941406 -41.367188 26.097656 -41.328125 26.328125 -41.328125 L 26.453125 -41.8125 Z M 40.265625 -33.1875 L 40.265625 -33.65625 C 40.191406 -33.65625 40.113281 -33.632812 40.03125 -33.59375 C 39.957031 -33.550781 39.835938 -33.53125 39.671875 -33.53125 L 39.671875 -33.0625 Z M 16.0625 -16.421875 C 16.375 -16.421875 16.453125 -16.5 16.296875 -16.65625 C 16.296875 -17.363281 16.253906 -17.875 16.171875 -18.1875 L 15.828125 -19.375 C 15.742188 -19.601562 15.523438 -20.25 15.171875 -21.3125 C 14.816406 -22.375 14.5625 -23.257812 14.40625 -23.96875 L 14.046875 -25.515625 L 13.8125 -26.21875 L 13.703125 -27.515625 C 13.617188 -27.671875 13.578125 -27.867188 13.578125 -28.109375 L 13.34375 -29.515625 C 13.101562 -29.992188 12.90625 -30.3125 12.75 -30.46875 C 12.351562 -30.707031 12.078125 -30.941406 11.921875 -31.171875 L 15.703125 -16.0625 C 15.703125 -16.21875 15.820312 -16.335938 16.0625 -16.421875 Z M 33.78125 -28.34375 C 34.007812 -28.34375 34.554688 -28.5 35.421875 -28.8125 C 35.109375 -28.96875 34.875 -29.046875 34.71875 -29.046875 L 33.890625 -28.9375 L 32.953125 -28.8125 L 33.296875 -28.34375 Z M 31.40625 -28.34375 C 31.25 -28.5 31.054688 -28.535156 30.828125 -28.453125 L 30.46875 -28.34375 Z M 40.265625 -27.046875 C 40.191406 -27.117188 39.992188 -27.15625 39.671875 -27.15625 L 39.5625 -27.046875 L 39.4375 -26.8125 C 39.4375 -26.726562 39.554688 -26.609375 39.796875 -26.453125 L 39.5625 -26.453125 C 40.03125 -26.210938 40.425781 -26.210938 40.75 -26.453125 L 40.75 -27.046875 Z M 32.234375 -23.859375 C 32.472656 -23.859375 32.671875 -23.78125 32.828125 -23.625 C 32.984375 -23.78125 33.0625 -23.972656 33.0625 -24.203125 C 32.75 -24.203125 32.515625 -24.164062 32.359375 -24.09375 L 31.65625 -24.09375 Z M 35.078125 -19.484375 C 35.078125 -19.484375 34.957031 -19.601562 34.71875 -19.84375 C 34.476562 -19.84375 34.359375 -19.921875 34.359375 -20.078125 C 33.972656 -19.921875 33.78125 -19.765625 33.78125 -19.609375 L 34.359375 -19.484375 Z M 32 -19.375 L 31.53125 -19.375 L 31.53125 -19.25 L 31.890625 -19.125 Z M 40.03125 -17.953125 C 40.425781 -18.109375 40.582031 -18.1875 40.5 -18.1875 L 40.5 -18.546875 L 40.03125 -18.78125 L 39.671875 -18.890625 L 39.5625 -18.65625 C 39.40625 -18.5 39.328125 -18.378906 39.328125 -18.296875 C 39.328125 -18.066406 39.40625 -17.953125 39.5625 -17.953125 C 39.632812 -17.953125 39.671875 -17.875 39.671875 -17.71875 C 39.835938 -17.875 39.957031 -17.953125 40.03125 -17.953125 Z M 29.515625 -18.1875 C 29.203125 -18.1875 28.890625 -18.03125 28.578125 -17.71875 C 28.734375 -17.71875 28.8125 -17.675781 28.8125 -17.59375 L 29.046875 -17.359375 L 29.875 -17.484375 L 29.875 -18.1875 Z M 33.421875 -14.765625 C 33.421875 -14.992188 33.34375 -15.109375 33.1875 -15.109375 C 33.03125 -15.273438 32.953125 -15.394531 32.953125 -15.46875 L 32.234375 -15.359375 L 32 -15.234375 C 32 -14.765625 32.273438 -14.410156 32.828125 -14.171875 C 32.910156 -14.253906 33.109375 -14.296875 33.421875 -14.296875 Z M 21.140625 -7.4375 C 21.140625 -7.519531 21.257812 -7.5625 21.5 -7.5625 L 21.375 -8.15625 C 21.0625 -8.070312 20.707031 -7.832031 20.3125 -7.4375 L 20.671875 -7.328125 C 20.898438 -7.328125 21.054688 -7.363281 21.140625 -7.4375 Z M 15.46875 -6.84375 L 14.640625 -6.609375 L 14.765625 -6.375 L 15.59375 -6.609375 Z M 15.46875 -6.84375"/></g><g id="g"><path d="M 53.734375 -82.3125 C 54.515625 -82.3125 55.140625 -82.070312 55.609375 -81.59375 C 56.085938 -81.125 56.328125 -80.535156 56.328125 -79.828125 L 55.96875 -65.78125 C 55.8125 -64.28125 55.066406 -63.492188 53.734375 -63.421875 L 21.25 -59.984375 L 20.4375 -50.1875 L 44.75 -51.484375 L 44.75 -39.921875 L 45.234375 -39.921875 L 45.234375 -51.484375 C 45.859375 -51.484375 46.425781 -51.25 46.9375 -50.78125 C 47.445312 -50.3125 47.703125 -49.757812 47.703125 -49.125 L 47.703125 -36.84375 C 47.703125 -35.507812 47.035156 -34.722656 45.703125 -34.484375 L 19.84375 -31.0625 L 19.25 -21.25 L 50.78125 -22.203125 C 51.488281 -22.203125 52.078125 -21.960938 52.546875 -21.484375 C 53.023438 -21.015625 53.265625 -20.46875 53.265625 -19.84375 L 53.265625 -4.953125 C 53.265625 -3.460938 52.515625 -2.675781 51.015625 -2.59375 L 1.296875 0 C 0.585938 0 0 -0.210938 -0.46875 -0.640625 C -0.945312 -1.078125 -1.1875 -1.691406 -1.1875 -2.484375 C -1.019531 -14.128906 -0.664062 -26.253906 -0.125 -38.859375 C 0.425781 -50.429688 1.410156 -63.457031 2.828125 -77.9375 C 3.066406 -79.351562 3.859375 -80.0625 5.203125 -80.0625 Z M 20.078125 -79.71875 L 20.3125 -79.71875 L 20.3125 -80.0625 L 20.078125 -80.0625 Z M 27.75 -79 C 27.675781 -78.925781 27.65625 -78.867188 27.6875 -78.828125 C 27.726562 -78.785156 27.828125 -78.765625 27.984375 -78.765625 C 27.828125 -78.765625 27.75 -78.84375 27.75 -79 Z M 30 -77 C 30.15625 -77.15625 30.234375 -77.3125 30.234375 -77.46875 C 30.234375 -77.78125 29.992188 -77.9375 29.515625 -77.9375 C 29.046875 -77.9375 28.691406 -77.78125 28.453125 -77.46875 L 28.109375 -77 C 28.335938 -77.15625 28.453125 -77.3125 28.453125 -77.46875 L 29.046875 -77.59375 C 29.523438 -77.507812 29.765625 -77.3125 29.765625 -77 L 29.765625 -76.53125 C 29.765625 -76.6875 29.84375 -76.84375 30 -77 Z M 47.703125 -77.828125 L 47.46875 -77.828125 L 47.46875 -77.46875 L 47.703125 -77.46875 Z M 14.171875 -77.109375 L 16.65625 -77.109375 L 16.65625 -77.46875 L 14.171875 -77.46875 Z M 22.671875 -77.46875 L 21.015625 -77.46875 L 21.015625 -77.34375 L 20.78125 -77.34375 C 20.382812 -77.1875 20.1875 -77.070312 20.1875 -77 L 21.015625 -77 L 21.140625 -77.109375 L 22.671875 -77.109375 Z M 18.78125 -77 L 19.125 -77 L 19.125 -77.234375 L 18.78125 -77.234375 Z M 38.375 -77 L 37.4375 -77 L 37.4375 -76.53125 L 38.375 -76.53125 Z M 24.328125 -76.53125 C 24.171875 -76.53125 24.09375 -76.332031 24.09375 -75.9375 C 24.09375 -75.9375 24.25 -76.09375 24.5625 -76.40625 C 24.800781 -76.644531 24.722656 -76.6875 24.328125 -76.53125 Z M 32.125 -76.171875 L 31.65625 -76.171875 L 31.65625 -75.9375 L 32.125 -75.9375 Z M 13.109375 -74.15625 L 13.21875 -73.6875 L 13.21875 -73.453125 L 13.703125 -73.453125 C 13.703125 -73.535156 13.78125 -73.65625 13.9375 -73.8125 C 14.09375 -73.96875 14.171875 -74.046875 14.171875 -74.046875 Z M 27.515625 -72.515625 C 27.117188 -72.671875 26.921875 -72.828125 26.921875 -72.984375 L 26.921875 -73.09375 L 27.515625 -73.6875 L 27.046875 -73.453125 L 26.8125 -73.453125 C 26.726562 -73.453125 26.664062 -73.429688 26.625 -73.390625 C 26.59375 -73.359375 26.535156 -73.34375 26.453125 -73.34375 L 26.21875 -73.34375 C 25.820312 -73.175781 25.503906 -72.859375 25.265625 -72.390625 L 25.515625 -72.15625 L 26.921875 -72.15625 C 27.003906 -72.15625 27.0625 -72.171875 27.09375 -72.203125 C 27.132812 -72.242188 27.15625 -72.265625 27.15625 -72.265625 L 27.28125 -72.265625 Z M 31.53125 -72.15625 L 31.65625 -72.15625 L 31.765625 -72.03125 L 31.890625 -72.390625 L 31.53125 -72.390625 Z M 24.796875 -71.328125 L 24.5625 -72.03125 C 23.9375 -71.800781 23.625 -71.566406 23.625 -71.328125 C 23.851562 -71.242188 24.007812 -71.242188 24.09375 -71.328125 Z M 30 -70.390625 C 30 -70.546875 29.800781 -70.78125 29.40625 -71.09375 L 29.046875 -70.390625 Z M 34.84375 -70.265625 C 34.84375 -70.347656 34.757812 -70.46875 34.59375 -70.625 L 34.359375 -70.859375 C 33.734375 -70.617188 33.421875 -70.378906 33.421875 -70.140625 Z M 26.921875 -70.140625 C 26.453125 -70.378906 26.097656 -70.5 25.859375 -70.5 C 25.460938 -70.5 25.265625 -70.300781 25.265625 -69.90625 L 25.859375 -69.5625 L 26.21875 -69.4375 L 26.328125 -69.4375 C 26.492188 -69.4375 26.578125 -69.554688 26.578125 -69.796875 Z M 31.53125 -69.203125 C 31.6875 -69.046875 31.882812 -69.046875 32.125 -69.203125 C 32.125 -69.671875 31.96875 -69.945312 31.65625 -70.03125 L 31.171875 -69.90625 L 30.703125 -69.796875 L 30.9375 -69.203125 Z M 6.734375 -69.5625 L 6.609375 -69.5625 L 6.375 -69.4375 L 6.609375 -69.328125 Z M 28.703125 -68.5 C 28.929688 -68.5 29.046875 -68.65625 29.046875 -68.96875 C 29.046875 -69.28125 28.847656 -69.4375 28.453125 -69.4375 L 28.21875 -69.328125 L 28.109375 -69.328125 L 27.984375 -69.203125 C 27.828125 -69.046875 27.75 -68.890625 27.75 -68.734375 L 27.875 -68.5 Z M 46.296875 -69.328125 L 46.0625 -69.328125 L 46.0625 -68.734375 L 46.296875 -68.734375 Z M 28.453125 -63.53125 L 28.21875 -63.53125 L 28.21875 -63.1875 L 28.453125 -63.1875 Z M 18.890625 -63.1875 C 18.734375 -63.1875 18.65625 -63.066406 18.65625 -62.828125 L 18.890625 -62.828125 L 19.015625 -62.9375 C 18.929688 -62.9375 18.890625 -63.019531 18.890625 -63.1875 Z M 18.1875 -57.390625 C 18.03125 -57.234375 17.953125 -57.15625 17.953125 -57.15625 L 18.546875 -57.046875 C 18.617188 -57.117188 18.617188 -57.3125 18.546875 -57.625 C 18.460938 -57.625 18.34375 -57.546875 18.1875 -57.390625 Z M 18.78125 -55.03125 L 18.890625 -55.15625 L 18.296875 -55.265625 L 18.296875 -55.15625 Z M 19.484375 -50.3125 L 20.078125 -50.3125 L 20.078125 -50.890625 L 19.484375 -50.890625 Z M 19.84375 -48.765625 C 19.601562 -48.765625 19.445312 -48.804688 19.375 -48.890625 L 18.890625 -49.015625 L 18.78125 -48.890625 C 18.539062 -48.804688 18.421875 -48.648438 18.421875 -48.421875 C 18.421875 -48.023438 18.738281 -47.828125 19.375 -47.828125 C 19.601562 -47.828125 19.757812 -47.867188 19.84375 -47.953125 Z M 28.8125 -48.0625 L 28.9375 -48.0625 L 28.9375 -48.1875 Z M 45.703125 -46.53125 C 45.941406 -46.53125 46.140625 -46.488281 46.296875 -46.40625 L 46.890625 -46.296875 L 47.359375 -46.890625 L 47.359375 -47.828125 C 47.273438 -47.910156 47.132812 -47.988281 46.9375 -48.0625 C 46.738281 -48.144531 46.5625 -48.1875 46.40625 -48.1875 L 45.703125 -47.703125 Z M 29.40625 -47.953125 L 29.640625 -48.0625 L 29.40625 -48.0625 Z M 26.328125 -46.765625 L 26.921875 -46.296875 C 27.078125 -46.367188 27.175781 -46.503906 27.21875 -46.703125 C 27.257812 -46.898438 27.203125 -47.039062 27.046875 -47.125 Z M 29.40625 -46.640625 L 29.875 -46.40625 L 30.109375 -47.125 L 29.640625 -47.125 Z M 22.4375 -45.828125 C 22.90625 -45.984375 22.90625 -46.21875 22.4375 -46.53125 Z M 20.671875 -45.109375 L 21.140625 -44.640625 L 21.734375 -44.515625 L 21.84375 -44.640625 L 22.078125 -44.640625 L 22.078125 -45.234375 C 21.765625 -45.234375 21.53125 -45.3125 21.375 -45.46875 L 21.140625 -45.34375 C 21.140625 -45.34375 21.117188 -45.320312 21.078125 -45.28125 C 21.035156 -45.25 21.015625 -45.234375 21.015625 -45.234375 Z M 26.328125 -45.234375 L 26.578125 -44.75 L 27.390625 -44.75 L 27.046875 -45 L 26.578125 -45.34375 Z M 18.546875 -44.875 C 18.460938 -44.957031 18.300781 -45.035156 18.0625 -45.109375 C 17.832031 -45.191406 17.640625 -45.234375 17.484375 -45.234375 C 17.484375 -45.078125 17.597656 -44.914062 17.828125 -44.75 C 17.984375 -44.59375 18.335938 -44.515625 18.890625 -44.515625 L 19.25 -44.515625 L 19.25 -44.875 Z M 26.09375 -43.453125 L 27.046875 -43.453125 C 27.203125 -43.535156 27.28125 -43.65625 27.28125 -43.8125 L 27.28125 -44.28125 L 26.328125 -44.28125 L 26.21875 -43.8125 Z M 17.71875 -42.75 C 17.71875 -42.664062 17.734375 -42.601562 17.765625 -42.5625 C 17.804688 -42.53125 17.867188 -42.550781 17.953125 -42.625 L 18.296875 -42.75 L 18.0625 -42.875 L 17.953125 -42.875 C 17.796875 -42.875 17.71875 -42.832031 17.71875 -42.75 Z M 16.296875 -40.5 C 16.691406 -40.5 16.96875 -40.582031 17.125 -40.75 C 16.96875 -40.75 16.8125 -40.828125 16.65625 -40.984375 L 16.53125 -41.09375 L 15.9375 -41.09375 C 15.707031 -40.863281 15.59375 -40.628906 15.59375 -40.390625 Z M 17.953125 -39.921875 C 17.554688 -39.921875 17.003906 -40 16.296875 -40.15625 L 15.9375 -39.921875 L 16.296875 -39.4375 C 16.453125 -39.832031 16.648438 -39.953125 16.890625 -39.796875 C 17.359375 -39.796875 17.710938 -39.835938 17.953125 -39.921875 Z M 12.875 -39.921875 C 12.632812 -39.835938 12.515625 -39.675781 12.515625 -39.4375 L 12.875 -39.203125 L 13.34375 -39.328125 C 13.34375 -39.484375 13.460938 -39.597656 13.703125 -39.671875 L 13.34375 -39.796875 Z M 45 -36.734375 L 45.46875 -37.3125 L 45.703125 -37.796875 L 45.46875 -38.609375 C 45.382812 -38.691406 45.226562 -39.046875 45 -39.671875 Z M 17.828125 -37.796875 C 17.828125 -37.953125 18.066406 -38.34375 18.546875 -38.96875 L 18.0625 -39.09375 L 17.59375 -39.09375 C 17.351562 -39.09375 17.117188 -39.015625 16.890625 -38.859375 L 15.9375 -38.5 C 16.175781 -38.414062 16.394531 -38.332031 16.59375 -38.25 C 16.789062 -38.175781 16.925781 -38.101562 17 -38.03125 C 16.84375 -37.632812 16.804688 -37.359375 16.890625 -37.203125 L 17.953125 -37.4375 Z M 14.640625 -38.03125 C 14.878906 -37.875 15.078125 -37.875 15.234375 -38.03125 L 15.109375 -38.140625 L 14.875 -38.265625 L 14.640625 -38.140625 Z M 18.421875 -38.140625 C 18.503906 -37.910156 18.601562 -37.753906 18.71875 -37.671875 C 18.832031 -37.585938 19.007812 -37.546875 19.25 -37.546875 C 19.332031 -37.546875 19.609375 -37.628906 20.078125 -37.796875 L 19.71875 -38.140625 Z M 14.875 -37.796875 C 14.40625 -37.554688 14.289062 -37.359375 14.53125 -37.203125 L 14.640625 -36.734375 C 14.953125 -36.734375 15.191406 -36.8125 15.359375 -36.96875 C 15.359375 -37.28125 15.195312 -37.554688 14.875 -37.796875 Z M 20.1875 -36.609375 L 19.609375 -36.609375 C 19.367188 -36.609375 19.25 -36.53125 19.25 -36.375 C 19.25 -36.21875 19.171875 -36.140625 19.015625 -36.140625 C 19.015625 -36.535156 18.894531 -36.769531 18.65625 -36.84375 L 17.953125 -36.84375 C 17.953125 -36.6875 18.03125 -36.609375 18.1875 -36.609375 L 18.546875 -36.25 L 17.71875 -35.90625 L 17.125 -35.421875 C 17.195312 -35.347656 17.289062 -35.3125 17.40625 -35.3125 C 17.53125 -35.3125 17.632812 -35.269531 17.71875 -35.1875 L 18.65625 -35.1875 C 18.96875 -35.1875 19.476562 -35.347656 20.1875 -35.671875 Z M 15.9375 -36.140625 C 15.707031 -36.140625 15.507812 -36 15.34375 -35.71875 C 15.1875 -35.445312 15.109375 -35.191406 15.109375 -34.953125 L 15.109375 -34.359375 C 15.503906 -34.046875 15.859375 -33.890625 16.171875 -33.890625 L 16.53125 -33.890625 L 16.890625 -34.125 L 16.890625 -35.671875 L 16.421875 -36.015625 Z M 14.046875 -35.546875 C 13.972656 -35.546875 13.859375 -35.484375 13.703125 -35.359375 C 13.546875 -35.242188 13.46875 -35.148438 13.46875 -35.078125 C 13.78125 -34.992188 14.054688 -34.992188 14.296875 -35.078125 Z M 40.265625 -34.84375 L 41.6875 -34.84375 L 41.6875 -35.1875 L 40.265625 -35.1875 Z M 19.609375 -34.484375 C 19.765625 -34.484375 19.84375 -34.601562 19.84375 -34.84375 L 19.125 -34.84375 L 18.890625 -34.484375 Z M 13.109375 -34.359375 C 12.710938 -34.285156 12.515625 -34.128906 12.515625 -33.890625 L 13.109375 -33.890625 C 13.179688 -33.972656 13.179688 -34.128906 13.109375 -34.359375 Z M 18.546875 -33.65625 C 18.703125 -33.570312 18.9375 -33.53125 19.25 -33.53125 C 19.25 -33.769531 19.09375 -33.96875 18.78125 -34.125 Z M 15.109375 -33.65625 C 14.796875 -33.34375 14.640625 -33.109375 14.640625 -32.953125 L 15.703125 -32.828125 L 15.9375 -33.296875 C 15.78125 -33.453125 15.703125 -33.570312 15.703125 -33.65625 Z M 17.125 -32.71875 L 17 -33.421875 C 16.613281 -33.421875 16.421875 -33.265625 16.421875 -32.953125 L 16.421875 -32.46875 Z M 19.375 -32.46875 C 19.375 -32.632812 19.289062 -32.71875 19.125 -32.71875 L 18.890625 -32.953125 C 18.734375 -32.867188 18.378906 -32.828125 17.828125 -32.828125 L 17.359375 -32.71875 L 17.125 -32.59375 L 17.71875 -32.125 C 18.1875 -32.28125 18.460938 -32.359375 18.546875 -32.359375 Z M 17.484375 -31.296875 L 17.828125 -31.53125 L 16.890625 -31.765625 L 16.890625 -31.296875 Z M 16.65625 -31.296875 C 16.332031 -31.453125 16.015625 -31.53125 15.703125 -31.53125 L 15.9375 -31.0625 C 16.257812 -31.0625 16.5 -31.140625 16.65625 -31.296875 Z M 15.234375 -30.59375 C 15.234375 -30.507812 15.15625 -30.390625 15 -30.234375 L 16.296875 -30.109375 C 16.453125 -30.109375 16.53125 -30.226562 16.53125 -30.46875 Z M 14.046875 -29.765625 C 14.210938 -29.523438 14.453125 -29.40625 14.765625 -29.40625 L 14.296875 -30.34375 L 13.46875 -30.234375 Z M 16.0625 -28.703125 C 15.90625 -29.015625 15.863281 -29.207031 15.9375 -29.28125 C 16.019531 -29.519531 16.019531 -29.679688 15.9375 -29.765625 L 15.59375 -29.40625 C 15.507812 -29.40625 15.46875 -29.328125 15.46875 -29.171875 L 15.46875 -28.703125 Z M 18.421875 -28.9375 C 18.816406 -28.9375 19.015625 -29.09375 19.015625 -29.40625 L 18.421875 -29.40625 Z M 12.15625 -29.28125 C 11.925781 -29.207031 11.8125 -29.09375 11.8125 -28.9375 L 12.515625 -28.703125 C 12.515625 -28.859375 12.554688 -28.972656 12.640625 -29.046875 L 12.75 -29.171875 Z M 15.46875 -28.453125 L 15.46875 -27.984375 L 15.828125 -27.984375 L 15.828125 -28.453125 Z M 16.0625 -28.21875 C 16.0625 -28.0625 16.097656 -27.984375 16.171875 -27.984375 L 16.296875 -27.75 L 17.125 -27.984375 C 17.039062 -27.984375 17 -28.0625 17 -28.21875 L 17 -28.34375 C 16.84375 -28.34375 16.722656 -28.320312 16.640625 -28.28125 C 16.566406 -28.238281 16.492188 -28.21875 16.421875 -28.21875 Z M 17.953125 -27.15625 L 17.234375 -27.15625 L 17.234375 -26.6875 L 17.953125 -26.6875 Z M 11.21875 -26.453125 C 11.0625 -26.210938 11.101562 -25.976562 11.34375 -25.75 C 11.726562 -25.90625 11.921875 -26.140625 11.921875 -26.453125 Z M 13.703125 -25.625 L 13.9375 -25.515625 C 14.09375 -25.515625 14.210938 -25.550781 14.296875 -25.625 L 14.171875 -26.21875 L 13.9375 -26.21875 C 13.9375 -26.21875 13.914062 -26.195312 13.875 -26.15625 C 13.832031 -26.113281 13.8125 -26.09375 13.8125 -26.09375 L 13.578125 -26.09375 L 13.578125 -25.625 Z M 11.21875 -23.734375 C 11.53125 -23.734375 11.726562 -23.773438 11.8125 -23.859375 C 11.8125 -23.929688 11.828125 -23.988281 11.859375 -24.03125 C 11.898438 -24.070312 11.960938 -24.128906 12.046875 -24.203125 L 11.6875 -24.453125 L 11.09375 -24.203125 Z M 14.640625 -23.96875 L 14.046875 -23.96875 L 14.046875 -23.859375 L 14.53125 -23.734375 Z M 12.75 -22.5625 C 12.90625 -22.394531 13.101562 -22.3125 13.34375 -22.3125 L 13.34375 -22.671875 C 13.34375 -22.671875 13.34375 -22.789062 13.34375 -23.03125 C 13.101562 -23.03125 12.90625 -22.875 12.75 -22.5625 Z M 23.140625 -18.0625 L 24.09375 -18.0625 L 24.09375 -18.296875 L 23.140625 -18.296875 Z M 27.875 -17.953125 C 27.476562 -17.710938 27.28125 -17.59375 27.28125 -17.59375 C 27.519531 -17.519531 27.640625 -17.363281 27.640625 -17.125 L 28.21875 -17.125 C 28.375 -17.28125 28.453125 -17.398438 28.453125 -17.484375 L 28.578125 -17.71875 L 28.34375 -18.296875 C 28.34375 -18.222656 28.300781 -18.144531 28.21875 -18.0625 C 28.144531 -17.988281 28.03125 -17.953125 27.875 -17.953125 Z M 34.59375 -17.484375 L 34.84375 -17.484375 L 34.953125 -17.71875 L 34.84375 -17.828125 Z M 24.5625 -17.71875 L 23.859375 -17.71875 L 23.859375 -17.484375 L 24.5625 -17.484375 Z M 30 -16.765625 L 30.46875 -16.890625 C 30.46875 -16.960938 30.425781 -17 30.34375 -17 C 30.34375 -17 30.265625 -17.078125 30.109375 -17.234375 Z M 23.140625 -16.53125 L 23.375 -16.296875 C 23.769531 -16.453125 23.851562 -16.609375 23.625 -16.765625 C 23.457031 -16.765625 23.375 -16.726562 23.375 -16.65625 L 23.140625 -16.65625 Z M 27.28125 -16.296875 C 27.125 -16.453125 26.925781 -16.53125 26.6875 -16.53125 L 26.921875 -15.703125 C 26.921875 -15.703125 26.941406 -15.722656 26.984375 -15.765625 C 27.023438 -15.804688 27.046875 -15.828125 27.046875 -15.828125 C 27.117188 -15.828125 27.15625 -15.90625 27.15625 -16.0625 C 27.238281 -16.0625 27.28125 -16.140625 27.28125 -16.296875 Z M 29.515625 -16.0625 C 29.128906 -15.90625 28.9375 -15.707031 28.9375 -15.46875 L 29.515625 -15.46875 C 29.515625 -15.625 29.554688 -15.742188 29.640625 -15.828125 Z M 12.75 -14.296875 L 12.75 -13.578125 C 12.75 -13.578125 12.828125 -13.65625 12.984375 -13.8125 L 13.46875 -14.296875 Z M 15.109375 -14.296875 C 15.109375 -14.054688 15.304688 -13.9375 15.703125 -13.9375 L 15.703125 -14.171875 C 15.703125 -14.253906 15.742188 -14.296875 15.828125 -14.296875 Z M 21.25 -13.9375 L 21.5 -13.46875 L 21.734375 -13.46875 L 21.375 -13.9375 Z M 32.59375 -13.578125 C 32.59375 -13.179688 32.789062 -12.984375 33.1875 -12.984375 L 33.421875 -13.34375 L 33.53125 -13.578125 Z M 28.453125 -13.34375 L 28.21875 -13.34375 L 28.109375 -12.984375 L 28.453125 -12.984375 Z M 24.6875 -12.640625 C 24.6875 -12.640625 24.703125 -12.65625 24.734375 -12.6875 C 24.773438 -12.726562 24.796875 -12.75 24.796875 -12.75 L 24.5625 -12.984375 L 24.328125 -12.984375 L 24.5625 -12.515625 C 24.5625 -12.515625 24.582031 -12.535156 24.625 -12.578125 C 24.664062 -12.617188 24.6875 -12.640625 24.6875 -12.640625 Z M 14.40625 -11.34375 L 13.46875 -11.34375 L 13.46875 -10.75 L 14.40625 -10.75 Z M 3.546875 -8.734375 C 3.546875 -9.128906 3.660156 -9.367188 3.890625 -9.453125 L 2.359375 -9.453125 L 2.359375 -8.734375 Z M 46.53125 -8.96875 L 47.953125 -8.734375 L 47.953125 -9.09375 L 46.765625 -9.453125 Z M 11.21875 -9.21875 L 9.921875 -9.21875 L 9.921875 -8.734375 L 11.21875 -8.734375 Z M 19.015625 -8.734375 L 19.015625 -8.15625 L 19.953125 -8.15625 L 19.953125 -8.734375 Z M 25.515625 -8.265625 C 25.429688 -8.109375 25.390625 -7.796875 25.390625 -7.328125 L 25.515625 -6.734375 L 27.15625 -6.734375 L 27.390625 -7.203125 C 27.472656 -7.285156 27.515625 -7.441406 27.515625 -7.671875 L 26.921875 -8.265625 Z M 7.328125 -7.671875 L 8.625 -7.671875 L 8.625 -8.15625 L 7.328125 -8.15625 Z M 12.515625 -5.203125 C 12.753906 -5.273438 12.953125 -5.488281 13.109375 -5.84375 C 13.265625 -6.195312 13.34375 -6.570312 13.34375 -6.96875 C 13.34375 -7.4375 13.222656 -7.789062 12.984375 -8.03125 C 12.828125 -8.03125 12.515625 -7.910156 12.046875 -7.671875 C 12.359375 -6.960938 12.515625 -6.140625 12.515625 -5.203125 Z M 0.703125 -6.84375 C 0.785156 -6.613281 1.003906 -6.515625 1.359375 -6.546875 C 1.710938 -6.585938 1.96875 -6.6875 2.125 -6.84375 Z M 5.671875 -6.375 L 5.4375 -6.375 L 5.4375 -6.84375 L 4.375 -6.84375 L 4.375 -6.375 L 5.4375 -6.375 L 5.4375 -5.90625 L 5.671875 -5.90625 Z M 17.953125 -6.140625 C 17.316406 -6.140625 16.882812 -6.097656 16.65625 -6.015625 L 15.9375 -5.78125 L 15.359375 -5.671875 C 15.515625 -5.585938 15.671875 -5.445312 15.828125 -5.25 C 15.984375 -5.050781 16.097656 -4.875 16.171875 -4.71875 C 16.566406 -4.957031 16.960938 -5.273438 17.359375 -5.671875 Z M 9.921875 -5.078125 C 10.078125 -5.316406 10.15625 -5.550781 10.15625 -5.78125 L 8.15625 -5.78125 L 8.15625 -4.71875 C 8.78125 -4.71875 9.328125 -4.640625 9.796875 -4.484375 Z M 31.53125 -5.203125 L 32.359375 -5.203125 L 32.359375 -5.4375 L 31.53125 -5.4375 Z M 46.53125 -3.65625 C 46.53125 -3.425781 46.453125 -3.3125 46.296875 -3.3125 C 46.523438 -3.3125 46.757812 -3.425781 47 -3.65625 Z M 8.5 -3.421875 L 7.5625 -3.421875 L 7.5625 -2.953125 L 8.5 -2.953125 Z M 8.5 -3.421875"/></g><g id="h"><path d="M 18.65625 -16.890625 C 15.03125 -18.222656 11.332031 -20.03125 7.5625 -22.3125 C 7.164062 -22.550781 6.769531 -22.671875 6.375 -22.671875 C 5.351562 -22.671875 4.644531 -22.195312 4.25 -21.25 L -0.9375 -10.859375 C -1.175781 -10.390625 -1.296875 -9.957031 -1.296875 -9.5625 C -1.296875 -8.78125 -0.863281 -8.148438 0 -7.671875 C 7.945312 -3.347656 14.5625 -0.910156 19.84375 -0.359375 C 22.039062 -0.203125 23.691406 -0.125 24.796875 -0.125 C 29.523438 -0.125 33.816406 -0.867188 37.671875 -2.359375 C 41.296875 -3.773438 44.207031 -6.097656 46.40625 -9.328125 C 48.613281 -12.554688 50.148438 -16.414062 51.015625 -20.90625 L 51.015625 -21.015625 C 51.097656 -21.566406 51.140625 -22.4375 51.140625 -23.625 C 51.140625 -32.363281 46.253906 -39.679688 36.484375 -45.578125 L 32.828125 -47.828125 C 31.015625 -48.929688 29.441406 -50.148438 28.109375 -51.484375 C 25.898438 -53.453125 24.796875 -55.738281 24.796875 -58.34375 C 24.796875 -59.914062 25.191406 -61.445312 25.984375 -62.9375 C 26.921875 -65.382812 28.535156 -66.410156 30.828125 -66.015625 L 30.9375 -66.015625 C 31.800781 -65.929688 32.351562 -65.179688 32.59375 -63.765625 C 32.832031 -60.859375 32.953125 -58.066406 32.953125 -55.390625 C 32.953125 -53.816406 33.738281 -53.03125 35.3125 -53.03125 L 49.015625 -53.03125 C 50.585938 -53.03125 51.375 -53.773438 51.375 -55.265625 C 51.53125 -57.785156 51.609375 -59.953125 51.609375 -61.765625 C 51.609375 -63.335938 51.53125 -64.753906 51.375 -66.015625 C 51.050781 -69.867188 50.023438 -72.898438 48.296875 -75.109375 C 44.835938 -79.359375 39.40625 -81.484375 32 -81.484375 C 29.957031 -81.484375 27.988281 -81.363281 26.09375 -81.125 C 17.4375 -80.101562 11.140625 -76.128906 7.203125 -69.203125 C 4.367188 -64.484375 2.953125 -59.601562 2.953125 -54.5625 C 2.953125 -52.507812 3.1875 -50.421875 3.65625 -48.296875 C 4.445312 -44.992188 5.90625 -42.359375 8.03125 -40.390625 C 8.03125 -40.390625 8.050781 -40.367188 8.09375 -40.328125 C 8.132812 -40.285156 8.15625 -40.265625 8.15625 -40.265625 C 12.007812 -37.035156 14.328125 -35.226562 15.109375 -34.84375 L 15.359375 -34.71875 L 17.71875 -33.296875 C 21.726562 -30.859375 24.328125 -29.164062 25.515625 -28.21875 C 27.953125 -26.414062 29.171875 -24.132812 29.171875 -21.375 C 29.171875 -19.644531 28.640625 -18.304688 27.578125 -17.359375 C 26.515625 -16.410156 25.113281 -15.9375 23.375 -15.9375 C 21.957031 -15.9375 20.382812 -16.253906 18.65625 -16.890625 Z M 37.796875 -67.671875 L 38.265625 -67.671875 L 38.265625 -67.4375 L 37.796875 -67.4375 Z M 40.859375 -63.65625 C 40.785156 -63.570312 40.6875 -63.53125 40.5625 -63.53125 C 40.445312 -63.53125 40.425781 -63.609375 40.5 -63.765625 C 40.5 -63.765625 40.519531 -63.785156 40.5625 -63.828125 C 40.601562 -63.867188 40.625 -63.890625 40.625 -63.890625 L 40.75 -64.125 C 40.75 -64.125 40.765625 -64.101562 40.796875 -64.0625 C 40.835938 -64.019531 40.859375 -64 40.859375 -64 L 41.09375 -63.890625 Z M 38.265625 -58.921875 C 38.265625 -58.765625 38.222656 -58.6875 38.140625 -58.6875 L 37.546875 -58.6875 C 37.546875 -59.007812 37.742188 -59.171875 38.140625 -59.171875 Z M 35.421875 -38.375 C 35.585938 -38.21875 35.671875 -38.023438 35.671875 -37.796875 L 34.71875 -37.796875 C 34.71875 -37.796875 34.675781 -37.929688 34.59375 -38.203125 C 34.519531 -38.472656 34.5625 -38.804688 34.71875 -39.203125 L 35.421875 -39.203125 C 35.503906 -39.128906 35.546875 -38.929688 35.546875 -38.609375 Z M 30.34375 -38.375 L 30.34375 -38.859375 L 31.40625 -38.859375 L 31.40625 -38.375 Z M 36.84375 -37.671875 L 36.609375 -37.546875 L 36.609375 -37.4375 L 35.671875 -36.96875 C 35.347656 -37.4375 35.1875 -37.671875 35.1875 -37.671875 C 35.34375 -37.753906 35.582031 -37.796875 35.90625 -37.796875 L 36.375 -37.796875 Z M 33.53125 -33.65625 C 33.695312 -33.5 33.78125 -33.34375 33.78125 -33.1875 L 33.53125 -33.0625 L 33.296875 -33.1875 L 33.0625 -33.1875 L 33.0625 -34.015625 L 33.296875 -33.78125 Z M 39.921875 -31.890625 L 39.671875 -31.765625 L 38.96875 -31.765625 C 38.96875 -32.078125 39.203125 -32.351562 39.671875 -32.59375 L 40.15625 -32.125 L 40.15625 -31.890625 Z M 38.140625 -30 L 38.140625 -30.34375 L 39.203125 -30.234375 L 39.203125 -29.765625 Z M 44.640625 -27.75 C 44.710938 -27.75 44.75 -27.671875 44.75 -27.515625 C 44.75 -27.046875 44.515625 -26.8125 44.046875 -26.8125 C 43.578125 -26.8125 43.265625 -27.003906 43.109375 -27.390625 L 43.34375 -27.984375 L 44.40625 -27.984375 C 44.40625 -27.910156 44.441406 -27.875 44.515625 -27.875 Z M 39.328125 -27.28125 L 38.859375 -27.515625 L 39.203125 -27.875 L 39.671875 -27.75 Z M 41.09375 -24.453125 C 41.09375 -24.285156 41.210938 -24.203125 41.453125 -24.203125 C 41.453125 -24.046875 41.410156 -23.96875 41.328125 -23.96875 L 41.328125 -23.734375 C 41.253906 -23.734375 41.21875 -23.695312 41.21875 -23.625 L 40.390625 -23.625 L 40.265625 -23.734375 L 40.15625 -23.734375 L 39.921875 -23.859375 L 40.15625 -24.6875 L 40.625 -24.6875 Z M 45.9375 -24.09375 L 46.296875 -23.96875 L 45.9375 -23.734375 L 45.703125 -23.625 C 45.460938 -23.382812 45.265625 -23.265625 45.109375 -23.265625 L 45.109375 -23.734375 C 45.035156 -23.890625 45.078125 -24.046875 45.234375 -24.203125 L 45.703125 -24.203125 Z M 42.28125 -21.96875 C 41.96875 -21.96875 41.710938 -22.046875 41.515625 -22.203125 C 41.316406 -22.359375 41.253906 -22.554688 41.328125 -22.796875 C 41.410156 -22.796875 41.53125 -22.8125 41.6875 -22.84375 C 41.84375 -22.882812 42.078125 -22.90625 42.390625 -22.90625 L 42.625 -23.03125 C 42.707031 -23.101562 42.867188 -23.140625 43.109375 -23.140625 L 43.21875 -22.5625 L 42.75 -22.203125 Z M 41.6875 -20.078125 C 42.3125 -19.441406 42.625 -19.085938 42.625 -19.015625 C 42.625 -18.859375 42.585938 -18.738281 42.515625 -18.65625 L 42.515625 -18.421875 L 42.28125 -18.421875 L 42.046875 -18.296875 L 41.6875 -18.296875 C 41.445312 -18.296875 41.25 -18.378906 41.09375 -18.546875 L 40.75 -18.546875 C 40.75 -18.546875 40.609375 -18.5625 40.328125 -18.59375 C 40.054688 -18.632812 39.679688 -18.695312 39.203125 -18.78125 C 39.046875 -18.9375 38.96875 -19.050781 38.96875 -19.125 L 38.859375 -19.25 L 38.859375 -19.71875 L 39.203125 -19.71875 C 39.597656 -19.71875 39.914062 -19.679688 40.15625 -19.609375 C 40.3125 -19.523438 40.507812 -19.484375 40.75 -19.484375 L 40.859375 -19.484375 C 41.015625 -19.484375 41.132812 -19.523438 41.21875 -19.609375 L 41.453125 -19.71875 C 41.453125 -19.800781 41.53125 -19.921875 41.6875 -20.078125 Z M 45.234375 -19.125 L 45.234375 -18.890625 L 44.28125 -18.890625 C 44.519531 -19.128906 44.640625 -19.367188 44.640625 -19.609375 L 45.46875 -19.609375 Z M 43.9375 -18.0625 L 43.9375 -18.78125 L 44.515625 -18.78125 L 44.515625 -18.0625 Z M 41.328125 -17.484375 C 41.328125 -17.316406 41.132812 -17.117188 40.75 -16.890625 L 39.921875 -16.421875 L 39.4375 -16.421875 C 38.96875 -16.421875 38.65625 -16.5 38.5 -16.65625 L 38.5 -16.890625 C 38.5 -17.117188 38.734375 -17.351562 39.203125 -17.59375 C 39.441406 -17.59375 39.597656 -17.632812 39.671875 -17.71875 C 40.066406 -17.945312 40.226562 -18.023438 40.15625 -17.953125 L 41.328125 -17.953125 Z M 44.75 -16.65625 C 44.988281 -16.414062 45.109375 -16.253906 45.109375 -16.171875 C 45.109375 -15.785156 44.910156 -15.59375 44.515625 -15.59375 L 44.046875 -15.234375 C 43.734375 -15.628906 43.578125 -15.941406 43.578125 -16.171875 C 43.578125 -16.648438 43.773438 -16.925781 44.171875 -17 Z M 41.453125 -15.703125 C 41.054688 -15.628906 40.625 -15.628906 40.15625 -15.703125 L 40.15625 -16.171875 L 40.625 -16.53125 L 41.328125 -16.53125 C 41.410156 -16.53125 41.453125 -16.410156 41.453125 -16.171875 Z M 17.359375 -15.59375 L 17.359375 -15.9375 L 18.0625 -15.9375 L 18.0625 -15.59375 Z M 38.96875 -14.046875 L 38.734375 -13.8125 L 38.5 -13.8125 C 38.5 -13.738281 38.421875 -13.703125 38.265625 -13.703125 L 38.265625 -14.171875 C 38.265625 -14.328125 38.34375 -14.484375 38.5 -14.640625 C 38.570312 -14.640625 38.628906 -14.617188 38.671875 -14.578125 C 38.710938 -14.546875 38.734375 -14.53125 38.734375 -14.53125 L 38.859375 -14.296875 Z M 34.953125 -12.640625 C 35.109375 -12.554688 35.1875 -12.316406 35.1875 -11.921875 C 34.875 -11.921875 34.5625 -12 34.25 -12.15625 C 34.320312 -12.15625 34.378906 -12.175781 34.421875 -12.21875 C 34.460938 -12.257812 34.484375 -12.28125 34.484375 -12.28125 C 34.484375 -12.363281 34.5625 -12.40625 34.71875 -12.40625 L 34.71875 -12.515625 C 34.71875 -12.597656 34.796875 -12.640625 34.953125 -12.640625 Z M 41.453125 -12.40625 C 41.523438 -12.320312 41.5625 -12.203125 41.5625 -12.046875 C 41.332031 -12.046875 40.863281 -12.164062 40.15625 -12.40625 L 41.453125 -12.640625 Z M 19.71875 -11.921875 L 19.25 -12.15625 L 19.609375 -12.515625 L 20.078125 -12.40625 Z M 35.671875 -11.21875 C 35.984375 -11.21875 36.175781 -11.175781 36.25 -11.09375 L 36.84375 -10.984375 C 36.84375 -10.585938 36.53125 -10.390625 35.90625 -10.390625 C 35.90625 -10.472656 35.742188 -10.515625 35.421875 -10.515625 Z M 33.296875 -10.390625 L 33.296875 -10.984375 L 33.78125 -10.984375 L 33.78125 -10.390625 Z M 22.5625 -8.265625 L 22.5625 -8.625 L 23.375 -8.625 L 23.375 -8.265625 Z M 35.421875 -7.90625 C 35.265625 -7.988281 35.1875 -8.109375 35.1875 -8.265625 C 35.1875 -8.503906 35.265625 -8.625 35.421875 -8.625 L 36.375 -8.625 Z M 35.421875 -7.90625"/></g></defs><g><use x="29.829" y="452.723" xmlns:xlink="http://www.w3.org/1999/xlink" xlink:href="#a" xlink:type="simple" xlink:actuate="onLoad" xlink:show="embed"/></g><g><use x="86.394" y="452.723" xmlns:xlink="http://www.w3.org/1999/xlink" xlink:href="#b" xlink:type="simple" xlink:actuate="onLoad" xlink:show="embed"/></g><g><use x="157.484" y="452.723" xmlns:xlink="http://www.w3.org/1999/xlink" xlink:href="#c" xlink:type="simple" xlink:actuate="onLoad" xlink:show="embed"/></g><g><use x="221.96" y="452.723" xmlns:xlink="http://www.w3.org/1999/xlink" xlink:href="#b" xlink:type="simple" xlink:actuate="onLoad" xlink:show="embed"/></g><g><use x="293.05" y="452.723" xmlns:xlink="http://www.w3.org/1999/xlink" xlink:href="#d" xlink:type="simple" xlink:actuate="onLoad" xlink:show="embed"/></g><g><use x="328.477" y="452.723" xmlns:xlink="http://www.w3.org/1999/xlink" xlink:href="#e" xlink:type="simple" xlink:actuate="onLoad" xlink:show="embed"/></g><g><use x="390.71" y="452.723" xmlns:xlink="http://www.w3.org/1999/xlink" xlink:href="#b" xlink:type="simple" xlink:actuate="onLoad" xlink:show="embed"/></g><g><use x="461.8" y="452.723" xmlns:xlink="http://www.w3.org/1999/xlink" xlink:href="#f" xlink:type="simple" xlink:actuate="onLoad" xlink:show="embed"/></g><g><use x="526.985" y="452.723" xmlns:xlink="http://www.w3.org/1999/xlink" xlink:href="#b" xlink:type="simple" xlink:actuate="onLoad" xlink:show="embed"/></g><g><use x="598.075" y="452.723" xmlns:xlink="http://www.w3.org/1999/xlink" xlink:href="#c" xlink:type="simple" xlink:actuate="onLoad" xlink:show="embed"/></g><g><use x="662.552" y="452.723" xmlns:xlink="http://www.w3.org/1999/xlink" xlink:href="#g" xlink:type="simple" xlink:actuate="onLoad" xlink:show="embed"/></g><g><use x="723.604" y="452.723" xmlns:xlink="http://www.w3.org/1999/xlink" xlink:href="#h" xlink:type="simple" xlink:actuate="onLoad" xlink:show="embed"/></g></svg>