<svg xmlns="http://www.w3.org/2000/svg" width="810" viewBox="0 0 810 810" height="810" version="1.0"><defs><clipPath id="a"><path d="M 328 128.015625 L 480 128.015625 L 480 640 L 328 640 Z M 328 128.015625"/></clipPath></defs><g clip-path="url(#a)"><path d="M 328.390625 201.585938 C 328.390625 159.855469 362.316406 126 404.132812 126 C 445.953125 126 479.878906 159.855469 479.878906 201.585938 C 479.878906 243.316406 445.953125 277.171875 404.132812 277.171875 C 362.316406 277.171875 328.390625 243.316406 328.390625 201.585938 Z M 358.6875 201.585938 C 358.6875 226.625 379.042969 246.9375 404.132812 246.9375 C 429.226562 246.9375 449.582031 226.625 449.582031 201.585938 C 449.582031 176.546875 429.226562 156.234375 404.132812 156.234375 C 379.042969 156.234375 358.6875 176.546875 358.6875 201.585938 Z M 328.390625 382.992188 C 328.390625 341.261719 362.316406 307.40625 404.132812 307.40625 C 445.953125 307.40625 479.878906 341.261719 479.878906 382.992188 C 479.878906 424.722656 445.953125 458.578125 404.132812 458.578125 C 362.316406 458.578125 328.390625 424.722656 328.390625 382.992188 Z M 358.6875 382.992188 C 358.6875 408.03125 379.042969 428.34375 404.132812 428.34375 C 429.226562 428.34375 449.582031 408.03125 449.582031 382.992188 C 449.582031 357.953125 429.226562 337.640625 404.132812 337.640625 C 379.042969 337.640625 358.6875 357.953125 358.6875 382.992188 Z M 328.390625 564.398438 C 328.390625 522.667969 362.316406 488.8125 404.132812 488.8125 C 445.953125 488.8125 479.878906 522.667969 479.878906 564.398438 C 479.878906 606.128906 445.953125 639.984375 404.132812 639.984375 C 362.316406 639.984375 328.390625 606.128906 328.390625 564.398438 Z M 358.6875 564.398438 C 358.6875 589.4375 379.042969 609.75 404.132812 609.75 C 429.226562 609.75 449.582031 589.4375 449.582031 564.398438 C 449.582031 539.359375 429.226562 519.046875 404.132812 519.046875 C 379.042969 519.046875 358.6875 539.359375 358.6875 564.398438 Z M 358.6875 564.398438" fill-rule="evenodd"/></g></svg>