<svg xmlns="http://www.w3.org/2000/svg" width="810" viewBox="0 0 810 810" height="810" version="1.0"><path fill="#49ADA7" d="M 666.207031 144.378906 C 522.027344 0.195312 287.582031 0.195312 143.792969 144.378906 C 19.925781 268.242188 0 461.65625 94.949219 607.402344 L 32.429688 758.617188 C 30.085938 764.089844 31.648438 770.339844 35.558594 774.246094 C 38.292969 776.984375 42.199219 778.546875 45.714844 778.546875 C 47.671875 778.546875 49.625 778.15625 51.1875 777.375 L 202.402344 714.855469 C 348.148438 809.804688 541.5625 790.269531 665.425781 666.402344 C 810 523.003906 810 288.558594 666.207031 144.378906 Z M 645.5 646.476562 C 529.839844 762.132812 347.757812 779.328125 212.953125 687.113281 C 210.609375 685.550781 207.480469 684.769531 204.746094 684.769531 C 202.792969 684.769531 200.839844 685.160156 199.277344 685.941406 L 73.066406 737.910156 L 125.035156 611.699219 C 126.988281 607.011719 126.207031 601.933594 123.472656 598.023438 C 31.257812 462.828125 48.0625 280.746094 164.109375 165.085938 C 296.960938 32.234375 513.039062 32.234375 645.5 165.085938 C 778.351562 297.9375 778.351562 514.015625 645.5 646.476562 Z M 645.5 646.476562"/><path fill="#49ADA7" d="M 572.039062 471.425781 C 555.238281 454.625 527.496094 454.625 510.695312 471.425781 L 495.457031 486.664062 C 487.25 493.308594 450.910156 495.261719 382.53125 426.882812 C 314.152344 358.503906 316.105469 322.164062 321.96875 314.347656 L 337.597656 298.71875 C 345.804688 290.515625 350.492188 279.574219 350.492188 267.851562 C 350.492188 256.128906 345.804688 245.1875 337.597656 236.984375 L 301.648438 201.035156 C 286.019531 185.40625 261.402344 183.84375 243.820312 197.910156 C 224.285156 213.929688 200.449219 242.0625 198.496094 285.824219 C 195.367188 345.609375 234.050781 416.332031 313.761719 495.652344 C 390.347656 572.234375 458.726562 610.917969 516.945312 610.917969 C 519.289062 610.917969 521.636719 610.917969 523.980469 610.527344 C 567.742188 608.183594 595.484375 584.347656 611.113281 564.8125 C 624.789062 547.621094 623.226562 523.003906 607.988281 507.765625 C 597.4375 497.214844 583.371094 483.148438 572.039062 471.425781 Z M 588.453125 546.839844 C 576.339844 561.6875 555.238281 580.050781 522.417969 581.613281 C 472.011719 584.347656 406.757812 547.621094 334.082031 474.941406 C 261.792969 402.65625 224.675781 337.402344 227.410156 286.996094 C 228.972656 253.785156 247.335938 232.292969 262.183594 220.570312 C 264.921875 218.617188 268.046875 217.445312 271.171875 217.445312 C 275.078125 217.445312 278.597656 219.007812 281.332031 221.742188 L 317.277344 257.691406 C 322.75 263.160156 322.75 272.539062 317.277344 278.011719 L 301.648438 293.640625 C 296.960938 298.328125 258.277344 343.261719 362.214844 447.199219 C 466.152344 551.136719 510.695312 512.453125 515.773438 507.765625 L 531.402344 492.132812 C 536.875 486.664062 546.25 486.664062 551.722656 492.132812 C 563.054688 503.464844 577.121094 517.140625 587.277344 528.472656 C 592.359375 533.554688 592.75 541.367188 588.453125 546.839844 Z M 588.453125 546.839844"/></svg>