<svg xmlns="http://www.w3.org/2000/svg" xmlns:xlink="http://www.w3.org/1999/xlink" width="810" viewBox="0 0 810 810" height="810" version="1.0"><defs><clipPath id="d"><path d="M 1.105469 0.730469 L 675.160156 0.730469 L 675.160156 655.449219 L 1.105469 655.449219 Z M 1.105469 0.730469"/></clipPath><clipPath id="c"><path d="M0 0H676V656H0z"/></clipPath><filter x="0%" y="0%" width="100%" xmlns:xlink="http://www.w3.org/1999/xlink" xlink:type="simple" xlink:actuate="onLoad" height="100%" id="a" xlink:show="other"><feColorMatrix values="0 0 0 0 1 0 0 0 0 1 0 0 0 0 1 0 0 0 1 0" color-interpolation-filters="sRGB"/></filter><mask id="b"><g filter="url(#a)"><path fill-opacity=".459" d="M-81 -81H891V891H-81z"/></g></mask></defs><g mask="url(#b)"><g><g clip-path="url(#c)" transform="translate(67 77)"><g clip-path="url(#d)"><path fill="#100F0D" d="M 159.042969 615.015625 C 154.324219 625.617188 144.378906 639.632812 131.9375 642.773438 C 136.257812 646.960938 141.230469 649.710938 147.390625 648.925781 C 150.925781 648.402344 151.839844 654.6875 148.304688 655.210938 C 133.902344 657.308594 125.257812 645.523438 118.1875 634.523438 C 109.148438 620.382812 102.867188 606.769531 101.03125 590.007812 C 99.855469 579.40625 99.722656 568.667969 97.363281 558.191406 C 95.53125 549.949219 91.082031 542.484375 89.117188 534.238281 C 86.886719 524.679688 90.160156 513.550781 100.902344 511.714844 C 102.734375 511.453125 103.648438 514.074219 101.6875 514.601562 C 83.746094 519.183594 97.757812 541.960938 100.902344 551.914062 C 104.304688 562.648438 104.699219 573.902344 106.007812 584.90625 C 107.710938 598.78125 111.246094 610.957031 118.449219 623 C 121.328125 627.847656 124.734375 634.128906 129.058594 639.5 C 135.078125 637.667969 140.054688 635.308594 144.898438 630.46875 C 149.875 625.492188 153.28125 619.339844 157.601562 613.835938 C 158.253906 612.792969 159.5625 614.101562 159.042969 615.015625 Z M 258.429688 599.828125 C 277.8125 588.832031 294.3125 571.941406 303.738281 551.914062 C 304.527344 550.335938 306.617188 551.519531 306.359375 552.957031 C 302.296875 574.171875 277.683594 592.5 259.609375 601.792969 C 258.300781 602.578125 257.121094 600.617188 258.429688 599.828125 Z M 566.027344 442.851562 C 551.886719 439.050781 537.613281 439.707031 523.210938 439.1875 C 512.339844 438.792969 499.898438 438.136719 490.601562 431.851562 C 489.550781 431.070312 490.207031 429.367188 491.515625 429.761719 C 505.136719 433.160156 517.707031 435.390625 531.722656 436.046875 C 543.632812 436.566406 555.292969 437.355469 566.683594 441.148438 C 567.597656 441.410156 567.203125 443.113281 566.027344 442.851562 Z M 465.328125 517.347656 C 457.863281 514.988281 448.957031 511.585938 443.59375 505.5625 C 442.9375 504.78125 443.71875 503.597656 444.640625 504.125 C 447.914062 505.957031 450.921875 508.574219 454.195312 510.40625 C 457.863281 512.503906 461.664062 514.332031 465.71875 515.777344 C 466.636719 516.167969 466.246094 517.605469 465.328125 517.347656 Z M 552.40625 208.886719 C 556.335938 202.867188 564.191406 197.238281 571.789062 199.460938 C 572.96875 199.855469 573.097656 201.558594 571.789062 201.820312 C 568.648438 202.472656 565.5 202.605469 562.359375 203.917969 C 559.21875 205.355469 556.074219 207.316406 553.847656 209.9375 C 553.195312 210.722656 551.886719 209.675781 552.40625 208.886719 Z M 511.945312 285.476562 C 486.277344 311.929688 464.015625 343.089844 427.617188 354.480469 C 426.695312 354.738281 426.308594 353.296875 427.222656 353.035156 C 446.078125 346.097656 461.664062 333.925781 475.28125 319.390625 C 486.671875 307.214844 496.753906 293.207031 510.242188 283.253906 C 511.550781 282.335938 512.996094 284.433594 511.945312 285.476562 Z M 398.808594 199.855469 C 393.699219 203.652344 391.867188 216.613281 390.164062 222.507812 C 388.066406 229.96875 385.976562 237.300781 384.140625 244.765625 C 383.878906 245.679688 382.441406 245.285156 382.703125 244.371094 C 385.1875 232.71875 387.808594 221.199219 390.953125 209.808594 C 392.261719 205.226562 392.652344 198.152344 398.28125 198.023438 C 399.332031 197.890625 399.464844 199.335938 398.808594 199.855469 Z M 448.042969 133.085938 C 456.554688 119.203125 464.28125 104.9375 467.558594 88.832031 C 470.566406 73.515625 471.875 57.542969 475.933594 42.488281 C 476.328125 41.175781 478.554688 41.4375 478.421875 42.878906 C 477.246094 58.851562 473.710938 75.738281 470.175781 91.449219 C 466.636719 107.421875 458.125 120.515625 449.351562 134 C 448.832031 134.789062 447.386719 134 448.042969 133.085938 Z M 391.339844 267.414062 C 397.105469 233.503906 408.363281 201.425781 420.804688 169.484375 C 426.832031 153.773438 433.117188 138.0625 438.480469 122.21875 C 444.113281 105.722656 448.042969 88.964844 453.019531 72.203125 C 453.414062 70.894531 455.636719 71.15625 455.503906 72.597656 C 451.972656 105.722656 437.046875 138.1875 425 168.957031 C 412.292969 201.164062 399.070312 233.761719 392.917969 267.9375 C 392.652344 268.851562 391.214844 268.457031 391.339844 267.414062 Z M 136.519531 304.460938 C 153.410156 307.867188 170.171875 312.054688 186.800781 316.117188 C 200.289062 319.519531 215.351562 322.269531 227.789062 328.6875 C 229.230469 329.46875 228.183594 331.433594 226.742188 331.171875 C 212.335938 328.6875 198.066406 323.058594 183.789062 319.257812 C 167.816406 315.070312 151.707031 310.878906 135.992188 306.035156 C 135.078125 305.644531 135.472656 304.335938 136.519531 304.460938 Z M 112.949219 247.25 C 111.378906 246.726562 112.035156 244.503906 113.605469 244.765625 C 127.355469 247.777344 139.792969 254.976562 151.183594 262.960938 C 151.707031 263.355469 151.183594 264.269531 150.664062 263.875 C 139.007812 256.152344 126.171875 251.570312 112.949219 247.25 Z M 87.808594 241.617188 C 117.53125 251.175781 147.257812 264.925781 173.96875 280.894531 C 174.757812 281.289062 174.234375 282.597656 173.3125 282.335938 C 172.398438 282.078125 171.480469 281.816406 170.566406 281.550781 C 170.171875 281.421875 170.171875 280.769531 170.695312 280.769531 C 165.851562 280.769531 157.339844 274.480469 152.753906 272.386719 C 145.949219 269.113281 139.140625 265.972656 132.199219 262.960938 C 117.273438 256.414062 102.078125 250.917969 87.019531 244.890625 C 85.058594 243.976562 85.84375 240.964844 87.808594 241.617188 Z M 205.527344 120.386719 C 206.445312 168.695312 215.484375 214.652344 237.609375 258.117188 C 238.132812 259.292969 236.5625 260.214844 235.90625 259.164062 C 212.992188 217.398438 199.242188 168.433594 202.121094 120.515625 C 202.253906 118.160156 205.394531 118.160156 205.527344 120.386719 Z M 234.46875 50.996094 C 237.609375 60.816406 237.871094 71.550781 239.3125 81.628906 C 241.015625 93.546875 243.636719 105.457031 246.910156 117.113281 C 247.171875 118.289062 245.46875 118.683594 245.207031 117.632812 C 241.40625 106.113281 238.265625 94.59375 236.167969 82.546875 C 234.335938 71.417969 233.683594 60.289062 230.542969 49.425781 C 230.015625 47.460938 232.765625 46.675781 233.550781 48.378906 C 233.941406 47.851562 234.46875 47.589844 235.253906 47.722656 C 250.3125 50.34375 261.96875 60.945312 266.550781 75.476562 C 266.941406 76.527344 265.242188 76.921875 264.976562 75.871094 C 260.265625 62.648438 248.347656 53.222656 234.46875 50.996094 Z M 320.628906 156.128906 C 313.695312 136.359375 308.457031 117.632812 295.75 100.355469 C 295.226562 99.566406 296.539062 98.523438 297.058594 99.304688 C 309.632812 115.015625 321.679688 135.179688 322.726562 155.734375 C 322.859375 157.042969 321.023438 157.171875 320.628906 156.128906 Z M 313.039062 354.480469 C 314.871094 355.65625 316.574219 356.703125 318.40625 357.753906 C 319.191406 358.144531 319.976562 358.40625 320.761719 358.535156 C 323.121094 363.382812 325.210938 368.226562 327.308594 373.070312 C 322.464844 366.917969 317.621094 360.765625 313.039062 354.480469 Z M 341.058594 365.082031 C 341.714844 368.746094 342.234375 372.546875 342.628906 376.210938 C 341.453125 374.898438 340.40625 373.589844 339.226562 372.28125 C 336.214844 365.472656 333.203125 358.667969 330.582031 351.859375 C 325.480469 338.769531 320.5 325.675781 315.785156 312.582031 C 317.75 315.855469 320.242188 318.734375 323.25 320.699219 C 324.824219 321.746094 326.394531 322.007812 327.703125 321.746094 C 328.226562 322.664062 328.753906 323.445312 329.40625 324.234375 C 329.40625 324.367188 329.535156 324.367188 329.667969 324.496094 C 329.273438 325.148438 329.140625 326.0625 329.40625 327.113281 C 332.414062 340.078125 338.835938 351.726562 341.058594 365.082031 Z M 386.371094 367.042969 C 382.703125 371.105469 378.902344 374.773438 374.84375 378.4375 C 377.859375 373.984375 380.605469 369.402344 383.09375 364.691406 C 384.273438 365.472656 385.320312 366.261719 386.371094 367.042969 Z M 415.4375 340.472656 L 415.4375 340.339844 L 415.566406 340.472656 C 415.566406 340.339844 415.566406 340.339844 415.4375 340.472656 Z M 327.703125 355.394531 C 327.703125 355.394531 327.832031 355.394531 327.703125 355.394531 C 327.703125 355.394531 327.832031 355.527344 327.832031 355.65625 C 327.832031 355.527344 327.832031 355.527344 327.703125 355.394531 Z M 349.964844 349.109375 C 349.964844 348.058594 349.964844 347.144531 349.832031 346.097656 C 350.359375 348.195312 350.746094 350.15625 351.273438 352.253906 C 350.878906 351.074219 350.359375 350.023438 349.964844 349.109375 Z M 377.464844 331.433594 C 377.984375 331.433594 378.511719 331.304688 379.035156 331.171875 C 378.246094 332.875 377.332031 334.707031 376.546875 336.410156 C 376.675781 334.707031 377.070312 333.136719 377.464844 331.433594 Z M 312.382812 336.410156 C 312.117188 336.148438 312.25 336.148438 312.382812 336.410156 Z M 311.597656 79.667969 C 311.730469 65.527344 309.632812 51.390625 307.40625 37.511719 C 307.273438 36.332031 305.183594 36.59375 305.308594 37.769531 C 306.753906 49.6875 307.144531 61.597656 307.667969 73.648438 C 307.011719 72.597656 306.359375 71.683594 305.703125 70.761719 C 297.847656 59.898438 287.765625 50.34375 276.242188 44.054688 C 276.375 43.921875 276.5 43.796875 276.632812 43.664062 C 276.761719 43.402344 277.027344 43.140625 277.15625 42.878906 C 278.070312 41.570312 276.375 40.261719 275.0625 40.785156 C 279.253906 38.558594 281.476562 33.1875 284.886719 29.132812 C 288.027344 25.464844 291.691406 22.191406 295.359375 19.046875 C 299.289062 15.648438 306.753906 7.53125 312.25 7.265625 C 317.355469 7.003906 318.929688 13.289062 321.679688 16.957031 C 333.992188 33.714844 353.632812 47.328125 351.535156 70.503906 C 351.402344 71.683594 352.058594 72.597656 352.976562 73.121094 C 343.679688 92.5 340.273438 114.496094 337.523438 135.964844 C 337.390625 135.441406 337.265625 134.914062 336.996094 134.394531 C 340.011719 124.054688 337.523438 111.347656 336.996094 101.140625 C 336.082031 84.644531 335.5625 68.277344 331.371094 52.171875 C 330.976562 50.734375 328.878906 51.390625 329.140625 52.828125 C 332.285156 67.488281 332.546875 82.417969 333.203125 97.339844 C 333.597656 106.378906 335.425781 117.242188 334.511719 127.058594 C 332.152344 121.167969 329.535156 115.410156 327.050781 109.777344 C 322.203125 99.566406 317.355469 89.359375 311.597656 79.667969 Z M 666.070312 236.648438 C 665.941406 236.648438 665.808594 236.773438 665.675781 236.773438 C 665.808594 235.597656 665.808594 234.289062 665.941406 233.109375 C 666.070312 231.800781 663.84375 231.410156 663.585938 232.847656 C 662.015625 240.441406 658.605469 247.25 656.382812 254.710938 C 655.464844 257.59375 659.917969 259.558594 661.226562 256.808594 C 663.84375 251.570312 664.894531 245.417969 665.414062 239.527344 C 665.675781 239.789062 666.070312 239.921875 666.464844 240.046875 C 676.023438 241.097656 665.546875 262.566406 663.585938 265.183594 C 663.324219 265.578125 663.058594 265.839844 662.796875 266.234375 C 661.621094 265.710938 660.175781 267.148438 660.703125 268.457031 C 657.429688 271.601562 653.503906 273.960938 649.703125 276.445312 C 643.808594 280.375 637.523438 284.433594 636.605469 291.894531 C 636.347656 293.726562 638.964844 294.382812 640.015625 293.332031 C 646.429688 287.179688 652.453125 282.472656 659.65625 277.363281 C 660.964844 276.445312 662.140625 275.53125 663.191406 274.480469 C 664.761719 279.851562 664.632812 285.609375 662.140625 290.714844 C 659.394531 296.480469 653.761719 299.617188 650.488281 304.855469 C 646.429688 311.140625 645.117188 316.640625 638.308594 321.09375 C 632.679688 324.753906 626.132812 326.984375 619.976562 329.46875 C 607.933594 334.3125 595.886719 338.894531 583.835938 343.21875 C 583.835938 343.21875 583.835938 343.21875 583.96875 343.089844 C 591.167969 338.894531 597.851562 333.53125 604.785156 328.816406 C 612.644531 323.445312 620.894531 318.476562 628.488281 312.710938 C 629.40625 312.054688 628.621094 310.746094 627.574219 311.273438 C 619.582031 315.460938 611.074219 320.171875 602.953125 325.28125 C 610.550781 317.6875 618.148438 310.226562 626.785156 303.808594 C 628.355469 302.632812 627.046875 300.535156 625.347656 301.320312 C 610.289062 308.128906 599.421875 320.828125 587.242188 331.566406 C 580.039062 337.980469 572.316406 343.476562 563.671875 347.800781 C 555.8125 351.859375 547.300781 353.953125 539.578125 358.144531 C 539.578125 358.144531 539.578125 358.144531 539.445312 358.144531 C 530.933594 360.890625 522.289062 363.511719 513.777344 366.128906 C 527.398438 352.382812 536.304688 331.433594 552.933594 321.875 C 553.847656 321.355469 553.0625 320.042969 552.144531 320.566406 C 540.621094 326.851562 532.636719 336.671875 524.648438 346.882812 C 517.972656 355.394531 511.550781 362.855469 503.566406 369.273438 C 501.601562 369.796875 499.640625 370.449219 497.675781 370.972656 C 501.730469 367.175781 505.398438 362.726562 508.539062 358.273438 C 522.945312 337.980469 532.375 316.117188 553.195312 301.0625 C 554.109375 300.40625 553.195312 298.964844 552.277344 299.617188 C 536.171875 310.488281 525.5625 324.101562 515.613281 340.597656 C 507.757812 353.5625 499.507812 365.867188 487.722656 373.722656 C 478.949219 376.210938 470.042969 378.566406 461.136719 380.925781 C 448.304688 384.199219 435.339844 387.46875 422.378906 390.351562 C 415.304688 391.921875 407.054688 393.757812 399.464844 393.363281 C 401.554688 392.1875 403.652344 391.003906 405.746094 389.828125 C 419.890625 381.316406 433.898438 372.414062 447.914062 363.90625 C 448.957031 363.25 448.042969 361.679688 446.992188 362.203125 C 434.949219 369.140625 422.769531 375.949219 410.722656 383.019531 C 404.960938 386.421875 399.199219 389.828125 393.175781 392.445312 C 391.214844 391.921875 389.25 391.136719 387.546875 390.089844 C 392.523438 383.804688 396.710938 377.128906 400.507812 369.929688 C 400.640625 369.664062 400.773438 369.273438 400.902344 369.007812 C 401.6875 368.226562 402.34375 367.4375 402.867188 366.390625 C 404.960938 365.867188 406.792969 364.164062 405.746094 361.679688 C 405.746094 361.546875 405.617188 361.417969 405.617188 361.285156 C 409.941406 356.183594 414.523438 351.332031 419.628906 347.015625 C 421.332031 345.574219 421.070312 343.476562 420.023438 342.042969 C 421.070312 342.042969 422.113281 341.90625 423.164062 341.386719 C 426.4375 339.816406 430.105469 335.890625 432.984375 331.171875 C 434.820312 329.46875 436.519531 327.640625 438.222656 325.804688 C 446.472656 317.03125 454.460938 308.128906 462.578125 299.359375 C 463.496094 298.308594 462.054688 296.871094 461.007812 297.789062 C 453.019531 305.902344 445.164062 314.9375 436.519531 322.925781 C 439.007812 314.9375 437.699219 307.214844 428.140625 306.035156 C 420.28125 304.988281 414.128906 311.664062 410.328125 317.6875 C 406.140625 324.234375 403.914062 332.089844 405.222656 339.816406 C 405.746094 342.5625 407.84375 343.746094 410.066406 343.609375 C 405.878906 346.625 402.082031 349.898438 398.542969 353.429688 C 396.058594 351.988281 393.304688 351.074219 390.425781 350.550781 C 398.808594 333.792969 405.617188 316.246094 412.03125 298.703125 C 412.558594 297.394531 410.460938 296.871094 410.066406 298.179688 C 403.125 315.722656 395.925781 333.269531 387.023438 350.023438 C 386.101562 349.898438 385.320312 349.761719 384.40625 349.761719 C 378.378906 349.242188 375.5 357.617188 379.554688 361.417969 C 379.6875 361.546875 379.949219 361.808594 380.082031 361.941406 C 375.628906 369.007812 370.785156 375.820312 365.9375 382.496094 C 366.332031 376.996094 367.382812 371.625 368.820312 366.390625 C 370.390625 360.5 372.355469 354.871094 373.796875 348.980469 C 377.984375 341.648438 381.519531 333.925781 384.925781 326.0625 C 393.042969 307.347656 400.640625 288.488281 408.496094 269.640625 C 408.890625 268.589844 407.054688 267.804688 406.53125 268.851562 C 399.070312 285.609375 391.605469 302.238281 384.140625 318.996094 C 384.792969 306.953125 386.101562 286.265625 372.621094 285.871094 C 365.417969 285.609375 363.84375 292.15625 363.84375 297.789062 C 363.84375 305.25 362.925781 316.511719 367.25 322.925781 C 367.902344 323.839844 368.820312 324.367188 369.734375 324.628906 C 369.734375 326.199219 370.523438 327.765625 371.570312 328.949219 C 368.296875 335.101562 363.976562 340.730469 360.960938 347.015625 C 360.570312 347.933594 360.179688 348.847656 359.785156 349.636719 C 359.785156 346.75 359.652344 343.746094 359.523438 340.730469 C 358.738281 318.476562 357.6875 296.21875 357.6875 273.828125 C 357.820312 228.527344 361.878906 183.230469 374.972656 139.890625 C 375.367188 138.582031 373.273438 137.929688 372.878906 139.371094 C 360.308594 179.300781 355.203125 220.9375 354.152344 262.699219 C 353.632812 283.90625 354.019531 305.117188 354.941406 326.332031 C 355.203125 333.53125 355.597656 340.859375 355.722656 348.058594 C 350.359375 325.542969 343.023438 303.023438 341.058594 280.113281 C 337.652344 239 343.9375 197.238281 352.582031 157.042969 C 352.710938 156.257812 351.535156 155.863281 351.402344 156.652344 C 344.070312 188.859375 337.652344 221.199219 336.996094 254.1875 C 334.90625 217.792969 338.179688 181.394531 342.761719 145.390625 C 346.953125 112.53125 350.09375 73.382812 376.675781 49.949219 C 382.828125 44.449219 389.902344 40.261719 397.886719 37.902344 C 403.652344 36.199219 409.675781 35.546875 415.042969 32.667969 C 404.308594 44.84375 396.710938 61.078125 391.996094 75.738281 C 391.605469 77.046875 393.570312 77.574219 394.09375 76.265625 C 397.886719 66.3125 402.472656 56.753906 408.363281 47.984375 C 413.734375 39.867188 420.542969 33.1875 426.308594 25.464844 C 426.695312 24.941406 426.4375 24.15625 425.914062 23.761719 C 427.089844 22.585938 428.273438 21.539062 429.582031 20.488281 C 439.402344 12.375 450.921875 14.597656 459.171875 23.503906 L 459.304688 23.628906 C 459.699219 25.59375 462.445312 25.59375 462.707031 23.503906 C 462.578125 19.574219 464.148438 16.957031 467.425781 15.386719 C 469.519531 12.5 472.140625 12.113281 475.148438 14.335938 C 480.257812 15.773438 482.089844 17.609375 485.101562 21.933594 C 488.507812 26.777344 490.996094 32.273438 492.566406 37.769531 C 495.839844 49.03125 495.972656 60.945312 493.613281 72.339844 C 491.253906 84.121094 486.542969 95.25 480.914062 105.851562 C 475.675781 115.542969 468.734375 124.707031 465.328125 135.308594 C 464.410156 138.320312 468.867188 140.152344 470.4375 137.40625 C 470.699219 137.011719 470.832031 136.617188 471.089844 136.226562 C 471.351562 136.617188 472.007812 136.878906 472.527344 136.492188 C 481.433594 130.464844 489.03125 121.433594 498.589844 116.199219 C 494.136719 128.636719 486.277344 138.714844 479.34375 149.84375 C 472.007812 161.753906 465.851562 174.066406 459.960938 186.761719 C 459.433594 187.8125 461.007812 188.859375 461.664062 187.679688 C 468.867188 173.804688 476.851562 160.183594 485.363281 147.09375 C 491.648438 137.535156 501.46875 127.324219 501.335938 115.148438 C 501.335938 115.015625 501.335938 114.886719 501.210938 114.753906 C 502.914062 113.96875 504.742188 113.3125 506.574219 112.792969 C 524.519531 108.074219 536.824219 119.335938 540.753906 135.835938 C 541.148438 137.667969 544.160156 137.800781 544.550781 135.835938 C 547.300781 120.90625 533.417969 108.46875 519.542969 106.898438 C 501.46875 104.9375 485.234375 119.46875 473.449219 132.167969 C 489.816406 104.28125 508.539062 72.859375 499.371094 39.339844 C 496.492188 28.867188 489.164062 12.894531 477.765625 8.96875 C 469.78125 6.222656 460.742188 12.113281 459.566406 20.097656 C 454.851562 14.464844 447.78125 11.457031 440.1875 11.847656 C 427.617188 12.5 421.851562 24.417969 410.984375 28.867188 C 398.9375 33.84375 387.546875 34.496094 376.675781 42.746094 C 369.214844 48.503906 362.925781 55.707031 357.949219 63.695312 C 357.429688 53.742188 352.84375 44.84375 346.691406 36.722656 C 342.628906 31.484375 337.917969 26.640625 333.597656 21.667969 C 328.621094 16.039062 325.34375 9.363281 320.628906 3.730469 C 313.695312 -4.386719 302.429688 5.957031 296.671875 10.933594 C 286.976562 19.3125 275.980469 28.605469 272.3125 41.4375 C 272.3125 41.570312 272.3125 41.699219 272.3125 41.699219 C 262.625 37.25 252.015625 35.023438 240.625 36.332031 C 238.527344 36.59375 238.398438 39.867188 240.625 39.734375 C 297.324219 37.117188 322.203125 109.914062 334.511719 153.378906 C 334.644531 153.773438 334.90625 154.164062 335.167969 154.425781 C 330.976562 186.894531 328.359375 219.628906 329.929688 252.359375 C 331.238281 279.851562 338.179688 306.820312 341.582031 333.925781 C 339.75 330.914062 338.046875 327.898438 336.871094 324.628906 C 336.476562 323.316406 335.5625 322.53125 334.644531 322.269531 C 339.75 311.273438 334.117188 286.789062 321.023438 284.5625 C 312.90625 283.125 309.894531 289.933594 310.417969 296.480469 C 297.714844 260.082031 286.195312 223.160156 276.242188 185.976562 C 275.847656 184.667969 273.882812 185.191406 274.277344 186.503906 C 283.964844 225.125 294.832031 263.355469 307.929688 301.0625 C 312.644531 314.675781 317.621094 328.160156 322.726562 341.515625 C 321.15625 339.289062 319.320312 337.324219 317.488281 335.363281 C 307.929688 316.246094 299.15625 296.871094 291.167969 277.101562 C 275.191406 237.300781 262.882812 196.1875 252.667969 154.554688 C 252.410156 153.773438 251.226562 154.03125 251.359375 154.949219 C 259.476562 198.941406 272.574219 241.75 289.335938 283.125 C 295.75 298.835938 302.691406 314.414062 310.152344 329.601562 C 309.894531 329.46875 309.632812 329.210938 309.5 329.078125 C 306.753906 327.246094 302.035156 328.292969 300.597656 331.433594 C 300.070312 332.484375 299.8125 333.53125 299.550781 334.578125 C 283.308594 309.832031 269.691406 283.125 261.96875 254.449219 C 261.574219 253.140625 259.738281 253.667969 260.003906 254.976562 C 267.207031 285.742188 280.957031 313.757812 298.5 339.945312 C 306.753906 352.253906 315.65625 364.164062 324.953125 375.6875 C 326.789062 377.914062 328.488281 380.269531 330.324219 382.628906 C 323.773438 379.875 316.835938 377.519531 310.417969 374.773438 C 308.976562 374.117188 307.667969 376.210938 309.109375 376.996094 C 317.75 381.058594 326.65625 386.292969 335.6875 389.828125 C 335.953125 390.222656 336.214844 390.609375 336.609375 390.875 C 337.523438 392.445312 338.574219 394.015625 339.617188 395.585938 C 339.355469 395.585938 338.960938 395.585938 338.574219 395.71875 C 336.996094 396.113281 335.425781 396.636719 333.855469 397.15625 C 323.25 393.496094 311.988281 391.136719 301.382812 387.335938 C 286.195312 382.101562 271.261719 375.949219 256.992188 368.621094 C 255.945312 368.09375 254.894531 369.664062 256.078125 370.316406 C 277.027344 382.234375 300.859375 393.625 324.953125 399.515625 C 316.574219 400.824219 308.84375 401.613281 299.945312 400.167969 C 290.90625 398.597656 282.132812 395.71875 273.488281 392.839844 C 271.917969 392.3125 271.394531 394.671875 272.832031 395.191406 C 282.921875 399.121094 295.488281 404.230469 307.667969 405.277344 C 306.878906 405.539062 306.097656 405.800781 305.308594 405.933594 C 291.691406 409.46875 278.859375 409.46875 265.109375 406.714844 C 241.144531 402.003906 219.800781 396.769531 195.054688 398.859375 C 150.398438 402.789062 92.652344 417.582031 64.5 371.105469 C 63.710938 369.796875 61.226562 370.582031 61.878906 372.28125 C 79.425781 420.722656 142.414062 412.214844 182.089844 407.371094 C 195.707031 405.667969 209.324219 404.359375 223.074219 405.539062 C 234.597656 406.453125 245.726562 409.59375 256.992188 412.085938 C 199.113281 420.070312 150.269531 458.957031 107.058594 496.136719 C 103.785156 498.890625 108.496094 503.472656 111.769531 500.851562 C 157.734375 462.359375 204.085938 422.558594 265.503906 413.917969 C 265.898438 414.050781 266.417969 414.050781 266.8125 414.175781 C 272.964844 415.226562 278.859375 415.621094 284.75 415.484375 C 276.5 418.757812 268.515625 422.558594 260.789062 426.355469 C 245.074219 434.082031 228.839844 442.589844 215.214844 453.847656 C 209.324219 458.691406 204.480469 464.195312 200.289062 470.472656 C 194.917969 478.722656 188.765625 483.566406 181.304688 489.722656 C 169.386719 499.410156 159.304688 513.023438 154.851562 527.820312 C 154.59375 528.734375 155.902344 529.261719 156.421875 528.472656 C 164.148438 511.714844 173.578125 499.542969 188.371094 488.675781 C 200.15625 480.03125 205.527344 466.8125 216.660156 457.382812 C 241.671875 436.171875 272.964844 425.042969 303.085938 413.132812 C 315.390625 410.644531 327.441406 406.453125 339.617188 402.132812 C 340.144531 402.132812 340.664062 402.003906 340.925781 401.613281 C 341.847656 401.085938 342.5 400.167969 342.628906 399.253906 C 343.417969 400.167969 344.070312 401.085938 344.988281 402.003906 C 326.65625 408.023438 308.582031 415.359375 292.085938 425.179688 C 271.917969 437.222656 257.121094 453.453125 245.335938 473.621094 C 238.398438 485.53125 231.980469 497.445312 223.339844 508.3125 C 214.695312 519.183594 204.742188 529 195.839844 539.601562 C 181.5625 556.625 169.257812 576.65625 169.519531 599.566406 C 169.519531 600.617188 171.089844 600.617188 171.089844 599.566406 C 172.398438 572.59375 189.027344 552.175781 206.445312 533.058594 C 222.15625 515.910156 235.253906 498.757812 246.910156 478.59375 C 258.957031 457.777344 273.226562 441.015625 294.050781 428.578125 C 309.894531 419.023438 327.175781 412.605469 344.464844 406.320312 C 342.890625 407.765625 341.320312 409.207031 339.75 410.515625 C 329.535156 419.546875 319.847656 428.84375 310.417969 438.664062 C 291.820312 458.035156 275.585938 478.855469 260.660156 501.113281 C 260.003906 502.027344 261.441406 502.816406 262.097656 501.894531 C 276.632812 482.128906 292.609375 463.011719 309.5 445.210938 C 317.226562 437.089844 325.210938 429.234375 333.464844 421.644531 C 338.441406 417.0625 343.546875 411.824219 349.175781 407.503906 C 345.121094 422.164062 339.355469 436.171875 331.5 449.265625 C 326.65625 457.515625 321.023438 465.238281 314.738281 472.4375 C 310.152344 477.808594 304 482.523438 301.121094 489.070312 C 297.585938 497.3125 297.191406 505.957031 292.476562 514.074219 C 287.765625 522.1875 281.21875 529.261719 274.277344 535.675781 C 260.660156 548.246094 245.207031 558.585938 232.765625 572.59375 C 231.980469 573.515625 233.289062 574.953125 234.203125 574.039062 C 247.039062 559.769531 263.539062 549.683594 277.683594 536.855469 C 290.511719 525.203125 298.761719 512.242188 302.953125 495.351562 C 305.570312 485.007812 314.871094 478.203125 321.417969 470.214844 C 326.65625 463.800781 331.238281 456.992188 335.425781 449.792969 C 342.890625 436.960938 348.65625 423.214844 352.582031 408.941406 C 352.710938 409.074219 352.976562 409.332031 353.105469 409.46875 C 353.5 409.988281 353.894531 410.382812 354.414062 410.644531 C 355.597656 411.691406 356.640625 412.738281 357.820312 413.789062 C 357.949219 413.917969 358.082031 413.917969 358.214844 413.917969 C 356.90625 425.042969 351.667969 436.566406 348.261719 446.648438 C 343.8125 459.738281 339.09375 472.703125 333.855469 485.53125 C 333.464844 486.578125 335.300781 487.367188 335.6875 486.316406 C 341.847656 472.308594 347.738281 458.300781 352.84375 443.902344 C 356.511719 433.425781 362.144531 421.644531 362.011719 410.25 C 363.84375 409.59375 365.679688 408.679688 367.511719 407.632812 C 365.546875 432.117188 364.367188 456.339844 357.292969 480.164062 C 349.703125 505.433594 333.722656 527.425781 329.929688 553.875 C 329.535156 556.363281 333.203125 557.410156 333.722656 554.921875 C 338.960938 527.820312 356.25 504.910156 364.109375 478.460938 C 368.164062 464.847656 370.785156 450.574219 372.488281 436.046875 C 373.140625 439.839844 373.796875 443.636719 374.585938 447.175781 C 379.167969 468.121094 384.53125 488.9375 390.164062 509.625 C 390.558594 511.195312 392.917969 510.539062 392.652344 508.96875 C 389.25 489.332031 385.449219 469.820312 381.257812 450.179688 C 379.296875 441.148438 377.726562 432.117188 377.464844 422.820312 C 377.203125 414.832031 378.378906 407.109375 379.035156 399.253906 C 379.296875 399.253906 379.6875 399.121094 379.949219 399.121094 C 380.210938 401.351562 380.476562 403.703125 380.867188 405.933594 C 379.949219 409.726562 380.738281 413.132812 382.308594 416.40625 C 384.273438 429.367188 386.757812 442.324219 391.472656 454.109375 C 397.761719 469.558594 408.628906 481.996094 422.246094 491.421875 C 423.421875 492.210938 424.472656 490.378906 423.421875 489.457031 C 400.773438 473.226562 392.785156 449.398438 388.066406 424.128906 C 390.6875 426.746094 393.570312 429.105469 396.316406 431.195312 C 403.652344 436.699219 411.25 441.804688 419.234375 446.386719 C 427.222656 450.96875 438.355469 454.375 442.804688 463.011719 C 443.332031 464.0625 444.769531 463.144531 444.246094 462.097656 C 439.136719 451.757812 426.695312 447.828125 417.53125 441.9375 C 406.53125 434.863281 391.996094 426.613281 386.496094 414.308594 C 385.84375 409.859375 385.1875 405.277344 384.53125 400.824219 C 392.261719 409.074219 400.378906 416.929688 409.808594 423.082031 C 423.6875 432.117188 439.925781 436.046875 455.378906 441.671875 C 489.292969 454.109375 521.765625 471.65625 550.707031 493.257812 C 551.492188 493.78125 552.144531 492.601562 551.492188 491.949219 C 525.039062 471.65625 496.753906 454.761719 465.980469 442.066406 C 450.007812 435.519531 432.589844 431.332031 417.53125 423.082031 C 406.792969 417.1875 397.761719 408.8125 389.25 400.042969 C 426.570312 412.347656 467.425781 416.140625 506.1875 418.5 C 527.265625 419.808594 550.316406 423.082031 571.265625 420.460938 C 592.613281 417.714844 608.585938 400.300781 631.109375 406.585938 C 634.121094 407.503906 635.691406 403.316406 633.207031 401.613281 C 617.359375 391.265625 599.160156 403.441406 584.101562 409.46875 C 563.410156 417.714844 537.21875 412.867188 515.480469 411.691406 C 480.257812 409.859375 445.949219 406.0625 411.769531 399.515625 C 425 397.945312 438.617188 393.363281 448.832031 390.742188 C 483.792969 381.972656 518.492188 371.761719 552.539062 359.976562 C 569.300781 354.21875 585.929688 348.058594 602.433594 341.648438 C 615.917969 336.410156 632.285156 332.089844 644.070312 323.316406 C 648.390625 320.042969 650.882812 316.378906 653.371094 311.535156 C 656.902344 304.460938 663.191406 299.878906 666.859375 293.074219 C 670.914062 285.351562 670.527344 276.96875 666.597656 269.898438 C 668.824219 267.414062 670.652344 264.664062 671.964844 261.523438 C 674.582031 256.414062 679.820312 233.503906 666.070312 236.648438 Z M 578.988281 497.96875 C 583.3125 492.730469 584.882812 488.28125 585.277344 481.601562 C 585.539062 477.546875 585.671875 473.746094 589.207031 471.261719 C 590.515625 470.347656 592.21875 471.65625 592.21875 472.964844 C 592.347656 475.84375 591.300781 478.59375 590.910156 481.476562 C 590.515625 484.09375 590.253906 486.839844 589.464844 489.457031 C 587.894531 493.914062 585.015625 497.96875 580.953125 500.457031 C 579.25 501.375 577.8125 499.277344 578.988281 497.96875 Z M 428.007812 535.152344 C 442.542969 543.792969 456.160156 539.210938 471.746094 540.390625 C 479.210938 541.046875 485.625 544.320312 492.824219 546.28125 C 500.683594 548.375 508.410156 547.851562 516.007812 545.753906 C 505.136719 538.554688 495.445312 530.4375 483.136719 525.335938 C 482.351562 524.941406 482.875 523.632812 483.660156 524.023438 C 496.097656 529 510.113281 534.761719 519.410156 544.839844 C 531.195312 541.046875 541.929688 535.675781 552.019531 529 C 551.886719 528.867188 551.753906 528.609375 551.625 528.347656 C 545.597656 508.835938 526.484375 500.851562 510.113281 491.160156 C 509.066406 490.507812 509.980469 489.070312 511.03125 489.589844 C 527.398438 497.707031 550.707031 506.746094 554.503906 527.164062 C 556.988281 525.460938 559.347656 523.632812 561.839844 521.667969 C 563.671875 520.226562 565.765625 521.929688 564.980469 524.023438 C 558.828125 538.167969 539.183594 544.445312 525.957031 549.554688 C 517.316406 552.828125 508.152344 555.1875 498.71875 554.265625 C 489.03125 553.351562 480.652344 547.984375 471.089844 546.9375 C 461.53125 545.886719 451.972656 548.113281 442.410156 546.410156 C 435.339844 545.101562 428.792969 542.09375 423.035156 537.640625 C 411.511719 528.867188 402.210938 515.777344 395.269531 503.339844 C 394.355469 501.769531 396.710938 500.324219 397.761719 501.894531 C 406.53125 514.332031 414.523438 527.164062 428.007812 535.152344 Z M 625.609375 461.574219 C 626.917969 471.523438 618.40625 480.292969 612.515625 487.105469 C 610.289062 489.589844 607.539062 492.078125 605.707031 494.828125 C 601.125 501.242188 602.953125 503.597656 601.90625 509.75 C 601.25 513.679688 599.679688 517.347656 597.195312 520.621094 C 594.308594 524.417969 590.253906 527.691406 585.671875 528.867188 C 580.433594 544.058594 565.632812 552.566406 550.707031 556.625 C 529.101562 562.386719 505.792969 563.824219 483.660156 566.703125 C 465.066406 569.195312 444.640625 572.335938 426.964844 564.085938 C 411.511719 556.882812 399.464844 540.128906 394.613281 524.152344 C 393.699219 521.011719 397.886719 519.835938 399.464844 522.0625 C 410.59375 536.984375 415.960938 553.742188 435.476562 559.894531 C 451.449219 564.871094 468.996094 561.859375 485.101562 559.769531 C 503.566406 557.410156 522.421875 555.839844 540.753906 552.695312 C 557.257812 549.816406 572.703125 543.664062 581.347656 529.261719 C 580.433594 529.261719 579.644531 529.128906 578.730469 529 C 577.554688 528.734375 577.160156 526.773438 578.335938 526.25 C 582.789062 524.152344 587.636719 522.714844 591.167969 519.183594 C 597.324219 513.023438 595.492188 507.132812 597.0625 499.671875 C 598.503906 492.996094 604.398438 488.28125 608.714844 483.4375 C 611.074219 480.820312 613.429688 478.070312 615.394531 475.324219 C 618.535156 470.867188 621.15625 463.667969 619.0625 458.167969 C 617.621094 454.503906 612.644531 451.757812 610.289062 448.609375 C 606.09375 442.71875 605.3125 435.914062 608.058594 429.234375 C 608.453125 428.191406 610.550781 428.191406 610.289062 429.5 C 608.980469 440.363281 613.5625 445.078125 620.371094 452.144531 C 622.992188 454.894531 625.082031 457.777344 625.609375 461.574219 Z M 641.191406 418.105469 C 642.371094 422.425781 639.359375 425.179688 636.085938 427.402344 C 629.800781 431.589844 622.859375 436.566406 615.917969 439.578125 C 614.21875 440.363281 611.988281 438.136719 613.691406 436.699219 C 617.359375 433.6875 621.546875 431.464844 625.609375 428.972656 C 627.96875 427.535156 635.824219 424.261719 637.132812 420.722656 C 632.8125 420.460938 629.144531 417.976562 627.3125 413.917969 C 626.785156 412.867188 627.703125 411.953125 628.621094 411.953125 C 621.679688 408.417969 612.515625 414.703125 606.75 418.5 C 600.203125 422.820312 595.097656 428.316406 589.726562 433.949219 C 588.945312 434.734375 587.5 433.6875 588.15625 432.773438 C 593.65625 423.609375 602.300781 416.273438 611.726562 411.296875 C 618.011719 408.023438 625.871094 404.359375 631.894531 409.859375 C 633.332031 411.167969 631.371094 413.789062 629.800781 412.605469 C 629.800781 412.605469 629.664062 412.605469 629.664062 412.480469 C 631.761719 415.484375 635.167969 417.0625 638.832031 416.535156 C 639.753906 416.40625 640.929688 416.929688 641.191406 418.105469 Z M 334.378906 562.515625 C 337.523438 578.097656 332.414062 595.378906 324.035156 608.472656 C 321.679688 612.265625 317.488281 619.992188 312.511719 620.515625 C 307.667969 621.035156 305.835938 612.921875 302.429688 612.527344 C 302.429688 613.054688 302.296875 613.445312 302.035156 613.96875 C 290.382812 632.691406 265.632812 639.367188 245.601562 644.734375 C 232.238281 648.402344 218.363281 652.070312 204.351562 652.070312 C 190.074219 652.199219 176.328125 647.488281 162.054688 647.09375 C 160.484375 647.09375 160.484375 644.734375 162.054688 644.601562 C 174.496094 643.425781 186.40625 645.652344 198.847656 645.914062 C 212.335938 646.179688 225.429688 643.292969 238.398438 639.761719 C 260.921875 633.742188 280.824219 627.453125 297.324219 610.300781 C 298.5 609.125 299.945312 609.253906 300.988281 609.90625 C 303.34375 608.863281 303.738281 608.863281 306.492188 610.042969 C 309.371094 611.21875 307.929688 612.527344 311.074219 613.179688 C 315.65625 614.101562 317.09375 609.253906 319.453125 605.589844 C 327.703125 592.105469 329.011719 578.226562 329.796875 562.910156 C 329.929688 560.683594 333.855469 559.894531 334.378906 562.515625 Z M 191.644531 250 C 193.089844 250 194.53125 250 196.101562 250 C 197.539062 250.128906 199.113281 249.867188 200.421875 250 C 200.550781 250 200.8125 250 200.945312 250 C 207.492188 260.082031 214.695312 269.898438 222.8125 278.933594 C 223.46875 279.585938 224.121094 279.980469 224.910156 280.113281 C 226.742188 283.515625 228.707031 286.789062 230.667969 290.058594 C 219.800781 280.507812 209.195312 270.816406 198.847656 260.339844 C 195.574219 257.070312 192.300781 253.667969 188.898438 250.394531 C 189.683594 250.128906 190.601562 250 191.644531 250 Z M 12.773438 262.699219 C 16.046875 252.484375 16.703125 241.617188 24.425781 233.503906 C 34.640625 222.902344 49.960938 219.101562 61.09375 209.414062 C 61.621094 209.675781 62.273438 209.808594 63.054688 209.542969 C 81.648438 203.652344 99.066406 202.472656 117.792969 208.367188 C 135.210938 213.863281 150.53125 224.335938 164.28125 235.992188 C 188.246094 256.152344 208.667969 282.859375 236.039062 298.703125 C 239.054688 303.285156 242.195312 307.734375 245.601562 312.191406 C 254.765625 324.367188 264.847656 335.890625 275.980469 346.363281 C 286.976562 356.835938 299.417969 368.621094 313.039062 375.554688 C 315.917969 376.996094 319.453125 373.203125 316.699219 370.710938 C 305.183594 360.371094 292.214844 351.988281 281.085938 341.253906 C 269.433594 330.125 258.5625 317.949219 249.003906 304.855469 C 230.929688 280.113281 216.921875 252.484375 207.753906 223.160156 C 202.253906 205.488281 198.585938 187.285156 195.839844 168.957031 C 193.222656 151.019531 189.292969 131.382812 193.875 113.445312 C 197.671875 98.652344 206.050781 85.558594 211.160156 71.289062 C 213.253906 65.527344 214.828125 59.507812 215.214844 53.355469 C 215.484375 50.207031 214.171875 45.5 215.089844 42.488281 C 219.144531 28.605469 227.921875 40.128906 231.0625 44.1875 C 232.238281 45.757812 234.597656 43.796875 233.816406 42.09375 C 230.410156 35.808594 222.289062 26.25 214.433594 31.878906 C 206.703125 37.378906 210.632812 53.480469 208.800781 61.210938 C 206.183594 72.070312 200.945312 82.023438 196.230469 92.238281 C 194.660156 86.210938 192.171875 80.058594 190.46875 74.300781 C 190.074219 72.992188 187.984375 73.515625 188.371094 74.824219 C 190.207031 82.023438 191.257812 90.273438 194.003906 97.339844 C 193.609375 98.390625 193.089844 99.304688 192.695312 100.355469 C 191.519531 103.367188 190.46875 106.507812 189.554688 109.519531 C 182.875 96.03125 173.050781 80.195312 172.925781 65.265625 C 172.925781 63.957031 170.828125 63.957031 170.828125 65.265625 C 170.433594 82.15625 179.992188 99.832031 187.851562 114.496094 C 187.984375 114.753906 188.113281 114.886719 188.246094 115.015625 C 186.40625 123.660156 186.148438 132.5625 186.800781 141.855469 C 189.160156 174.71875 195.054688 206.921875 205.789062 237.300781 C 193.222656 206.140625 179.207031 175.242188 172.136719 142.511719 C 171.875 141.199219 169.777344 141.726562 170.039062 143.035156 C 174.101562 164.640625 181.304688 185.058594 189.160156 205.613281 C 192.171875 213.601562 194.917969 222.113281 197.933594 230.621094 C 194.660156 224.863281 191.519531 219.101562 188.503906 213.210938 C 177.507812 192 165.328125 170.398438 160.875 146.570312 C 156.554688 123.921875 154.980469 97.867188 157.472656 74.957031 C 158.78125 62.90625 162.96875 50.207031 172.398438 42.226562 C 182.480469 33.714844 196.101562 33.976562 206.316406 41.832031 C 207.886719 43.140625 209.589844 40.523438 208.410156 39.214844 C 195.054688 23.503906 171.613281 31.484375 161.007812 46.152344 C 145.425781 67.621094 149.355469 99.832031 150.925781 124.574219 C 151.839844 138.582031 153.804688 152.589844 158.253906 165.949219 C 162.835938 179.300781 169.519531 192 175.804688 204.570312 C 182.875 218.707031 190.335938 232.847656 198.71875 246.199219 C 198.195312 245.941406 197.804688 245.8125 197.148438 245.679688 C 195.574219 245.417969 193.875 245.15625 192.171875 245.15625 C 189.949219 245.023438 186.800781 244.765625 184.835938 246.074219 C 176.199219 237.5625 167.292969 229.445312 157.472656 222.113281 C 131.410156 202.605469 92.125 187.023438 60.832031 204.042969 C 59.914062 204.570312 59.523438 205.355469 59.523438 206.269531 C 44.722656 217.925781 22.988281 220.9375 14.085938 239.132812 C 9.234375 249.085938 6.75 260.734375 2.820312 271.078125 C -0.847656 281.027344 1.773438 288.363281 6.882812 297.261719 C 8.847656 300.667969 14.210938 297.527344 12.121094 294.121094 C 8.058594 287.3125 5.699219 281.160156 8.320312 273.304688 C 9.628906 269.898438 11.464844 266.492188 12.773438 262.699219 Z M 49.699219 365.347656 C 34.640625 360.765625 24.820312 345.3125 19.449219 328.554688 C 19.320312 328.421875 19.0625 328.421875 18.929688 328.292969 C 17.75 327.640625 17.878906 326.332031 18.535156 325.542969 C 15.261719 314.152344 13.953125 302.238281 14.34375 293.074219 C 14.738281 285.476562 16.703125 278.410156 20.238281 271.601562 C 24.953125 262.832031 27.574219 254.84375 29.925781 245.15625 C 32.675781 233.636719 37 222.632812 49.046875 218.445312 C 50.878906 217.792969 51.53125 220.542969 49.832031 221.324219 C 34.507812 227.609375 35.558594 246.074219 32.023438 259.292969 C 29.925781 267.019531 25.996094 273.304688 23.25 280.242188 C 59.65625 293.332031 96.054688 306.558594 132.457031 319.785156 C 150.925781 326.457031 169.519531 333.269531 187.984375 340.078125 C 205.660156 346.625 223.074219 353.953125 241.539062 358.144531 C 242.453125 358.273438 242.0625 359.582031 241.144531 359.453125 C 203.699219 352.382812 167.292969 336.277344 131.542969 323.445312 C 95.011719 310.351562 58.472656 297.261719 21.941406 284.039062 C 20.890625 287.3125 20.238281 290.847656 20.105469 294.644531 C 19.976562 305.769531 21.941406 317.425781 26.261719 328.027344 C 39.09375 334.96875 52.582031 340.730469 66.589844 344.921875 C 79.953125 348.980469 93.703125 351.074219 107.316406 354.085938 C 120.414062 357.097656 130.496094 362.855469 141.757812 370.058594 C 154.59375 378.171875 168.730469 384.066406 183.527344 387.335938 C 184.316406 387.46875 184.054688 388.78125 183.132812 388.648438 C 169.519531 385.902344 156.816406 381.710938 144.636719 374.898438 C 130.753906 367.042969 118.96875 359.84375 103.128906 356.703125 C 76.9375 351.464844 52.320312 345.3125 28.75 333.53125 C 34.121094 344.398438 41.710938 353.953125 51.925781 360.632812 C 54.285156 362.074219 52.714844 366.261719 49.699219 365.347656 Z M 533.945312 173.804688 C 534.996094 175.894531 536.171875 178.773438 537.742188 180.871094 C 529.625 184.800781 522.027344 189.515625 515.085938 195.535156 C 500.949219 207.84375 489.945312 223.027344 473.449219 232.066406 C 477.640625 225.519531 481.828125 219.101562 486.410156 212.816406 C 498.984375 195.667969 516.136719 181.921875 529.886719 165.683594 C 530.933594 168.566406 532.636719 171.183594 533.945312 173.804688 Z M 543.242188 140.808594 C 526.746094 167.386719 500.554688 185.191406 481.695312 209.808594 C 471.613281 222.902344 462.839844 237.035156 453.933594 250.917969 C 443.71875 266.625 431.675781 282.203125 423.421875 298.835938 C 422.113281 301.582031 425.78125 304.855469 427.878906 302.238281 C 430.363281 299.097656 432.855469 295.953125 435.082031 292.550781 C 435.476562 292.945312 436.257812 293.074219 436.910156 292.550781 C 451.054688 280.769531 467.945312 272.386719 481.566406 259.949219 C 495.578125 246.988281 502.78125 228.003906 518.886719 217.269531 C 520.0625 216.480469 519.015625 214.652344 517.707031 215.304688 C 501.863281 225.386719 494.402344 242.40625 481.304688 255.367188 C 469.386719 267.28125 452.363281 273.566406 440.1875 285.089844 C 446.472656 275.398438 452.363281 265.316406 458.519531 255.757812 C 462.320312 249.738281 466.113281 243.714844 469.910156 237.691406 C 470.175781 237.691406 470.4375 237.691406 470.699219 237.691406 C 485.234375 232.980469 495.972656 222.375 506.574219 212.03125 C 520.851562 198.023438 535.253906 187.679688 554.371094 181.132812 C 562.226562 178.515625 570.480469 175.375 578.730469 173.933594 C 590.253906 171.96875 593.527344 183.625 600.859375 189.515625 C 611.726562 198.414062 627.574219 200.25 636.738281 211.246094 C 635.953125 211.246094 635.296875 211.246094 634.515625 211.246094 C 625.609375 210.851562 617.097656 210.070312 608.191406 211.378906 C 570.351562 216.742188 541.929688 244.765625 519.410156 273.566406 C 518.492188 274.742188 520.0625 276.578125 521.113281 275.269531 C 539.050781 253.796875 560.003906 233.375 586.585938 223.421875 C 595.886719 219.886719 605.441406 217.925781 615.261719 217.53125 C 604.523438 228.265625 594.050781 238.085938 581.480469 247.121094 C 570.085938 255.367188 558.433594 263.488281 548.613281 273.433594 C 537.347656 284.824219 531.328125 298.570312 524.253906 312.710938 C 515.21875 331.039062 501.601562 345.179688 482.222656 352.382812 C 481.171875 352.777344 481.695312 354.347656 482.617188 353.953125 C 496.753906 348.980469 509.066406 340.730469 518.097656 328.6875 C 529.757812 312.972656 534.46875 293.464844 547.957031 278.804688 C 559.21875 266.492188 573.359375 257.328125 586.847656 247.511719 C 598.371094 239.132812 611.726562 229.835938 619.191406 217.269531 C 621.421875 217.269531 623.644531 217.269531 626.003906 217.53125 C 632.679688 218.050781 639.359375 218.972656 646.035156 217.925781 C 648.652344 217.53125 667.640625 213.210938 668.296875 219.363281 C 667.773438 218.972656 666.984375 218.972656 666.464844 219.628906 C 653.503906 234.683594 640.667969 248.164062 623.644531 258.773438 C 622.464844 259.558594 623.511719 261.257812 624.695312 260.601562 C 640.667969 252.09375 656.121094 240.179688 666.464844 225.125 C 666.726562 227.351562 669.738281 229.179688 671.570312 227.089844 C 677.855469 219.753906 672.355469 209.9375 663.324219 208.367188 C 657.035156 207.191406 650.488281 209.019531 643.941406 210.328125 C 643.941406 210.328125 643.941406 210.195312 643.808594 210.195312 C 635.558594 195.929688 618.667969 194.359375 606.359375 185.191406 C 599.8125 180.351562 597.324219 170.917969 589.597656 167.648438 C 582.265625 164.640625 573.753906 167.78125 566.550781 169.875 C 558.566406 172.230469 550.835938 174.847656 543.242188 178.121094 C 542.585938 175.375 540.621094 172.621094 539.050781 170.53125 C 537.085938 167.78125 534.730469 164.898438 531.722656 163.195312 C 537.085938 156.652344 541.804688 149.710938 545.46875 141.855469 C 546.125 140.679688 544.160156 139.371094 543.242188 140.808594"/></g></g></g></g></svg>