<svg xmlns="http://www.w3.org/2000/svg" xmlns:xlink="http://www.w3.org/1999/xlink" width="810" viewBox="0 0 810 810" height="810" version="1.0"><defs><clipPath id="c"><path d="M0 0H562V683H0z"/></clipPath><filter x="0%" y="0%" width="100%" xmlns:xlink="http://www.w3.org/1999/xlink" xlink:type="simple" xlink:actuate="onLoad" height="100%" id="a" xlink:show="other"><feColorMatrix values="0 0 0 0 1 0 0 0 0 1 0 0 0 0 1 0 0 0 1 0" color-interpolation-filters="sRGB"/></filter><mask id="b"><g filter="url(#a)"><path fill-opacity=".486" d="M-81 -81H891V891H-81z"/></g></mask></defs><g mask="url(#b)"><g><g clip-path="url(#c)" transform="translate(124 64)"><path d="M 93.164062 511.640625 C 105.464844 504.535156 115.175781 498.539062 125.226562 493.183594 C 148.824219 480.625 173.886719 473.796875 200.820312 474.765625 C 206.039062 474.964844 211.15625 475.804688 216.160156 477.292969 C 221.167969 478.78125 225.914062 480.871094 230.394531 483.554688 C 237.679688 487.839844 238.257812 490.992188 233.699219 498.148438 C 229.445312 504.832031 223.085938 509 216.261719 512.675781 C 188.917969 527.398438 159.15625 530.652344 128.824219 530.671875 C 119.039062 530.671875 108.9375 530.042969 99.546875 527.5625 C 87.609375 524.402344 80.597656 528.902344 75.386719 538.652344 C 67.179688 554.042969 58.792969 569.347656 51.007812 584.953125 C 37.585938 611.851562 24.683594 638.988281 14.011719 667.152344 C 12.058594 672.304688 11 678.726562 5.046875 681.789062 C 0.640625 677.953125 3.640625 674.429688 4.863281 671.160156 C 22.167969 625.007812 43.09375 580.558594 67.644531 537.8125 C 75.792969 523.585938 83.238281 508.949219 91.921875 495.023438 C 96.074219 488.316406 95.769531 482.992188 91.347656 477.152344 C 88.707031 473.671875 86.21875 470.078125 83.539062 466.625 C 52.121094 426.214844 68.859375 353.335938 81.363281 348.269531 C 93.367188 347.722656 101.339844 368.273438 103.976562 377.695312 C 111.332031 404.085938 112.355469 421.941406 111.210938 449.640625 C 111.15625 452.359375 111.242188 455.070312 111.472656 457.777344 C 111.472656 458.070312 112.289062 458.300781 113.78125 459.175781 C 137.519531 424.269531 158.195312 387.148438 185.457031 353.703125 C 175.589844 343.183594 164.683594 335.023438 155.847656 324.765625 C 144.765625 311.867188 133.980469 298.800781 127.558594 282.957031 C 110.703125 241.445312 120.414062 213.890625 132.28125 217.125 C 154.757812 223.238281 167.339844 243.949219 179.082031 262.355469 C 191.777344 282.277344 200.457031 303.945312 200.964844 330.761719 C 216.101562 318.667969 223.171875 303.921875 233.6875 291.609375 C 232.425781 289.296875 231.644531 287.269531 230.371094 285.605469 C 208.902344 257.710938 203.648438 223.390625 206.59375 189.082031 C 207.5625 177.804688 208.917969 166.367188 212.949219 155.710938 C 215.617188 148.628906 222.121094 131.113281 232.210938 132.507812 C 236.355469 133.066406 239.273438 137.488281 241.226562 140.742188 C 246.890625 150.148438 250.277344 160.535156 252.804688 171.300781 C 259.199219 198.886719 258.679688 226.542969 254.527344 254.308594 C 254.214844 256.429688 254.265625 258.597656 253.910156 264.84375 C 278.800781 235.90625 302.125 210.042969 327.273438 185.703125 C 323.65625 175.445312 319.460938 165.949219 317.066406 156 C 312.515625 137.082031 312.339844 117.433594 314.894531 98.210938 C 317.992188 75.058594 325.113281 52.308594 342.78125 36.09375 C 351.585938 28.015625 357.195312 38.851562 360.667969 46.390625 C 363.519531 52.574219 365.011719 59.332031 365.675781 66.082031 C 368.296875 91.75 367.96875 117.390625 359.582031 142.285156 C 358.730469 144.835938 358.296875 147.515625 357.28125 151.753906 C 366.507812 147.414062 371.53125 140.257812 377.246094 134.441406 C 392.96875 118.453125 408.941406 102.769531 425.65625 87.835938 C 431.480469 82.710938 436.007812 76.625 439.242188 69.578125 C 455.105469 34.851562 487.3125 14.117188 523.015625 3.679688 C 531.40625 1.21875 542.617188 0.523438 550.453125 5.050781 C 561.632812 11.503906 556.625 25.019531 550.378906 33.214844 C 539.15625 47.945312 522.21875 60.433594 506.183594 69.46875 C 498.257812 73.980469 489.957031 77.636719 481.28125 80.4375 C 472.601562 83.238281 463.730469 85.128906 454.664062 86.109375 C 453.332031 86.253906 452.007812 86.367188 450.675781 86.460938 C 439.757812 87.265625 432.414062 91.734375 425.453125 98.984375 C 420.207031 104.453125 410.140625 113.453125 403.136719 120.136719 C 404.960938 118.386719 418.695312 114.980469 421.335938 114.726562 C 426.050781 114.277344 430.742188 113.894531 435.503906 113.640625 C 444.675781 113.070312 453.839844 113.171875 463 113.953125 C 481.046875 115.632812 502.542969 121.605469 517.332031 132.292969 C 521.601562 135.375 525.964844 142.769531 524.632812 147.484375 C 521.105469 160.03125 511.082031 164.515625 492.890625 164.390625 C 463.78125 164.1875 435.054688 160.863281 409.519531 144.742188 C 403.007812 140.625 395.886719 137.90625 387.363281 135.105469 C 358.925781 164.21875 328.246094 196.535156 298.9375 226.515625 C 308.164062 226.515625 314.136719 227.671875 319.859375 228.683594 C 350.972656 234.242188 378.011719 246.84375 397.796875 272.546875 C 402.421875 278.558594 406.558594 287.210938 401.695312 294.4375 C 396.726562 301.824219 386.710938 303.886719 378.542969 301.457031 C 352.492188 293.738281 328.925781 281.367188 308.441406 263.554688 C 300.71875 256.835938 295.996094 247.386719 289.121094 237.285156 C 247.796875 280.410156 217.023438 330.046875 180.921875 375.886719 C 193.394531 369.476562 205.785156 362.863281 218.375 356.691406 C 232.5625 349.71875 247.855469 344.71875 263.65625 343.207031 C 271.628906 342.445312 279.589844 342.566406 287.535156 343.574219 C 294.273438 344.4375 307.230469 345.160156 311.507812 351.136719 C 315.90625 357.292969 310.488281 364.546875 305.8125 368.636719 C 291.464844 381.171875 271.738281 387.960938 253.585938 392.605469 C 230.589844 398.476562 207.417969 401.328125 183.808594 396.328125 C 169.871094 393.378906 161.210938 397.777344 153.585938 411.304688 C 137.238281 440.308594 118.128906 467.734375 100.21875 495.863281 C 97.65625 499.875 94.328125 503.574219 93.164062 511.640625 Z M 190.753906 342.953125 C 199.632812 314.332031 187.511719 291.386719 174.914062 269.320312 C 164.964844 251.878906 140.609375 219.546875 133.28125 226.132812 C 111.390625 245.808594 148.257812 323.671875 190.753906 342.953125 Z M 230.554688 141.921875 C 203.375 178.09375 207.882812 254.875 238.011719 279.8125 C 257.367188 244.609375 253.832031 163.066406 230.554688 141.921875 Z M 348.070312 45.390625 C 318.402344 67.152344 310.15625 152.84375 335.691406 174.398438 C 360.957031 144.785156 368.070312 70.726562 348.070312 45.390625 Z M 548 15.671875 C 538.917969 7.894531 528.519531 10.824219 518.867188 13.625 C 493.164062 21.085938 471.445312 35.019531 455.164062 56.597656 C 450.820312 62.386719 445.996094 68.246094 444.765625 76.074219 C 483.382812 80.269531 543.027344 45.144531 548.019531 15.671875 Z M 228.011719 492.425781 C 200.515625 469 122.367188 492.230469 102.714844 518.910156 C 144.128906 531.078125 211.863281 517.128906 228.035156 492.390625 Z M 305.4375 357.351562 C 272.269531 340.535156 218.195312 357.660156 181.101562 388.074219 C 222.695312 394.695312 260.605469 389.523438 296.242188 369.683594 C 300.457031 367.304688 304.34375 364.011719 305.4375 357.3125 Z M 402.914062 129.789062 C 430.234375 151.390625 461.117188 156.867188 493.28125 157.207031 C 502.085938 157.292969 518.019531 155.761719 517.964844 148.144531 C 517.8125 125.550781 436.089844 111.398438 402.914062 129.789062 Z M 300.605469 235.796875 C 303.351562 245.925781 308.84375 253.160156 315.734375 259.265625 C 334.410156 275.789062 356.039062 287.058594 379.886719 294.121094 C 384.953125 295.632812 391.734375 294.953125 394.800781 292.722656 C 398.695312 289.902344 395.148438 281.460938 391.320312 276.6875 C 389.960938 274.984375 388.792969 273.105469 387.269531 271.621094 C 369.777344 254.308594 348.070312 244.273438 325.207031 236.597656 C 317.515625 234.023438 309.417969 234.058594 300.605469 235.796875 Z M 84.445312 357.777344 C 62.789062 400.359375 73.980469 455.175781 99.351562 472.507812 C 110.515625 442.433594 102.507812 377.476562 84.445312 357.777344 Z M 84.445312 357.777344"/></g></g></g></svg>