<svg xmlns="http://www.w3.org/2000/svg" width="810" viewBox="0 0 810 810" height="810" version="1.0"><path fill="#FF66C4" d="M 489.375 807.03125 C 485.5625 807.03125 481.847656 805.746094 478.8125 803.316406 C 474.828125 800.109375 472.5 795.285156 472.5 790.15625 L 472.5 664.605469 C 472.5 634.265625 468.617188 612.730469 460.25 596.9375 C 457.785156 592.3125 457.648438 586.8125 459.808594 582.050781 C 461.96875 577.292969 466.257812 573.816406 471.351562 572.636719 C 571.386719 549.550781 641.25 476.347656 641.25 394.605469 C 641.25 354.105469 624.609375 315.460938 593.15625 282.824219 C 588.296875 277.796875 587.046875 270.335938 589.984375 263.992188 C 602.539062 236.925781 599.871094 200.070312 584.988281 177.964844 C 565.3125 185.660156 539.765625 201.757812 523.160156 221.46875 C 518.636719 226.902344 511.175781 228.890625 504.460938 226.429688 C 441.179688 203.207031 368.855469 203.207031 305.574219 226.429688 C 298.921875 228.859375 291.429688 226.902344 286.875 221.5 C 270.269531 201.792969 244.722656 185.691406 225.011719 177.996094 C 210.128906 200.105469 207.460938 236.957031 220.015625 264.027344 C 222.953125 270.335938 221.703125 277.796875 216.84375 282.824219 C 185.390625 315.460938 168.75 354.140625 168.75 394.605469 C 168.75 472.464844 231.625 542.597656 325.214844 569.09375 C 332.503906 571.183594 337.5 577.800781 337.5 585.359375 L 337.5 597.140625 C 337.5 618.265625 329.027344 630.179688 321.90625 636.492188 C 306.652344 649.890625 286.941406 647.863281 284.78125 647.628906 C 284.679688 647.628906 284.546875 647.628906 284.445312 647.628906 C 256.636719 647.628906 235.710938 632.136719 215.492188 617.152344 C 205.335938 609.625 195.042969 601.964844 183.058594 595.621094 C 185.660156 599.128906 188.222656 602.742188 190.824219 606.351562 C 216.136719 641.554688 244.789062 681.480469 286.910156 681.480469 L 320.660156 681.480469 C 329.972656 681.480469 337.535156 689.039062 337.535156 698.355469 L 337.535156 790.15625 C 337.535156 795.285156 335.203125 800.109375 331.222656 803.316406 C 327.207031 806.488281 322.007812 807.671875 317.015625 806.625 C 133.3125 765.855469 0 599.703125 0 411.480469 C 0 188.15625 181.675781 6.480469 405 6.480469 C 628.324219 6.480469 810 188.15625 810 411.480469 C 810 599.671875 676.6875 765.855469 493.019531 806.625 C 491.804688 806.894531 490.589844 807.03125 489.375 807.03125 Z M 498.082031 600.445312 C 503.617188 617.894531 506.25 638.820312 506.25 664.605469 L 506.25 768.488281 C 663.894531 723.734375 776.25 576.890625 776.25 411.480469 C 776.25 206.785156 609.695312 40.230469 405 40.230469 C 200.304688 40.230469 33.75 206.785156 33.75 411.480469 C 33.75 576.890625 146.105469 723.734375 303.75 768.488281 L 303.75 715.230469 L 286.875 715.230469 C 227.476562 715.230469 191.9375 665.785156 163.382812 626.027344 C 147.21875 603.515625 130.476562 580.230469 118.125 580.230469 C 108.808594 580.230469 101.25 572.671875 101.25 563.355469 C 101.25 554.039062 108.808594 546.480469 118.125 546.480469 C 176.851562 546.480469 209.417969 570.609375 235.574219 590.019531 C 253.664062 603.417969 267.90625 613.980469 286.875 613.980469 C 288.765625 614.082031 295.75 614.585938 299.667969 611.078125 C 302.871094 608.175781 303.683594 602.402344 303.75 597.847656 C 202.296875 564.535156 135 484.175781 135 394.640625 C 135 348.605469 152.28125 304.863281 185.085938 267.535156 C 170.605469 225.585938 179.550781 174.351562 207.425781 146.441406 C 211.644531 142.1875 217.789062 140.46875 223.660156 142.054688 C 246.207031 148.027344 279.6875 165.542969 304.695312 191.023438 C 368.988281 170.066406 440.910156 170.066406 505.203125 191.023438 C 530.210938 165.542969 563.691406 148.027344 586.238281 142.054688 C 592.078125 140.46875 598.21875 142.15625 602.472656 146.441406 C 630.382812 174.351562 639.292969 225.585938 624.8125 267.503906 C 657.71875 304.863281 675 348.605469 675 394.605469 C 675 486.675781 603.214844 569.09375 498.082031 600.445312 Z M 498.082031 600.445312"/></svg>