<svg width="1200" height="500" viewBox="0 0 1200 500" fill="none" xmlns="http://www.w3.org/2000/svg">
<path d="M0 0H1200V500H639.13H0V0Z" fill="url(#paint0_linear)"/>
<path class="cloud-3" d="M417.059 201.69C427.458 193.542 441.872 204.61 436.685 216.759V216.759L440.458 214.828C446.873 211.544 453.016 219.667 448.109 224.945V224.945C446.891 226.255 445.182 227 443.393 227H390.191C384.299 227 381.919 219.408 386.756 216.044V216.044V216.044C391.454 212.498 397.672 211.687 403.121 213.91L404.846 214.614V214.614C407.713 210.838 410.881 207.222 414.253 203.89V203.89L417.059 201.69Z" fill="white" fill-opacity="0.26"/>
<path class="cloud-2" d="M772.059 97.6904C782.458 89.5417 796.872 100.61 791.685 112.759V112.759L795.458 110.828C801.873 107.544 808.016 115.667 803.109 120.945V120.945C801.891 122.255 800.182 123 798.393 123H745.191C739.299 123 736.919 115.408 741.756 112.044V112.044V112.044C746.454 108.498 752.672 107.687 758.121 109.91L759.846 110.614V110.614C762.713 106.838 765.881 103.222 769.253 99.8895V99.8895L772.059 97.6904Z" fill="white" fill-opacity="0.73"/>
<path class="cloud-1" d="M432.059 30.6904C442.458 22.5417 456.872 33.6097 451.685 45.7593V45.7593L455.458 43.8277C461.873 40.5441 468.016 48.667 463.109 53.9448V53.9448C461.891 55.2554 460.182 56 458.393 56H405.191C399.299 56 396.919 48.4078 401.756 45.0443V45.0443V45.0443C406.454 41.4978 412.672 40.687 418.121 42.9105L419.846 43.6143V43.6143C422.713 39.8378 425.881 36.2219 429.253 32.8895V32.8895L432.059 30.6904Z" fill="white" fill-opacity="0.87"/>
<defs>
<linearGradient id="paint0_linear" x1="600" y1="-18.8285" x2="598.373" y2="288.694" gradientUnits="userSpaceOnUse">
<stop stop-color="#269E89"/>
<stop offset="1" stop-color="#78DFCD"/>
</linearGradient>
</defs>
<style>
.cloud-1 {
  animation: cloud1-move alternate infinite 15s;
}

.cloud-2 {
  animation: cloud2-move alternate infinite 15s;
}

.cloud-3 {
  animation: cloud3-move alternate infinite 15s;
}

@keyframes cloud1-move {
  0% {
    opacity: 0.2;
    transform: translateX(100px);
  }

  100% {
    opacity: 1;
    transform: translateX(0);
  }
}

@keyframes cloud2-move {
  0% {
    opacity: 1;
    transform: translateX(-100px);
  }

  100% {
    opacity: 0.2;
    transform: translateX(0);
  }
}

@keyframes cloud3-move {
  0% {
    transform: translateX(100px);
  }

  100% {
    transform: translateX(0);
  }
}


</style>
</svg>
