<svg xmlns="http://www.w3.org/2000/svg" width="810" viewBox="0 0 810 810" height="810" version="1.0"><path fill="#DCC3AC" d="M 552.6875 101.765625 C 617.425781 144.660156 601.953125 198.214844 585.585938 256.648438 C 579.234375 278.625 568.078125 296.9375 568.894531 317.039062 C 569.789062 339.992188 581.921875 363.269531 589.738281 384.835938 C 603.175781 422.113281 615.636719 476.96875 614.496094 517.011719 C 613.925781 535.570312 608.144531 557.707031 602.28125 576.507812 C 592.425781 606.949219 565.554688 641.292969 543.648438 659.441406 C 531.027344 670.023438 521.175781 681.335938 507.578125 687.929688 C 443.488281 718.207031 365.070312 704.207031 289.097656 676.859375 C 275.90625 672.140625 257.746094 661.234375 249.195312 652.445312 L 237.144531 644.386719 C 225.09375 631.691406 216.054688 616.46875 210.597656 599.785156 C 192.925781 546.230469 254.246094 470.214844 271.34375 408.195312 C 277.859375 384.757812 278.183594 360.582031 276.882812 338.445312 C 275.578125 316.390625 264.832031 296.285156 272.566406 271.871094 C 283.640625 236.792969 327.125 207.898438 348.132812 192.433594 C 370.285156 176.238281 391.78125 161.996094 412.21875 147.914062 L 431.765625 124.148438 C 444.386719 114.625 470.6875 103.476562 485.671875 98.023438 C 499.597656 93.464844 514.417969 92 528.992188 93.871094 C 537.054688 95.335938 544.789062 101.765625 552.6875 101.765625"/></svg>