<svg xmlns="http://www.w3.org/2000/svg" xmlns:xlink="http://www.w3.org/1999/xlink" width="810" viewBox="0 0 810 810" height="810" version="1.0"><defs><clipPath id="d"><path d="M 0.445312 1.027344 L 633.445312 1.027344 L 633.445312 578.738281 L 0.445312 578.738281 Z M 0.445312 1.027344"/></clipPath><clipPath id="c"><path d="M0 0H635V580H0z"/></clipPath><filter x="0%" y="0%" width="100%" xmlns:xlink="http://www.w3.org/1999/xlink" xlink:type="simple" xlink:actuate="onLoad" height="100%" id="a" xlink:show="other"><feColorMatrix values="0 0 0 0 1 0 0 0 0 1 0 0 0 0 1 0 0 0 1 0" color-interpolation-filters="sRGB"/></filter><mask id="b"><g filter="url(#a)"><path fill-opacity=".51" d="M-81 -81H891V891H-81z"/></g></mask></defs><g mask="url(#b)"><g><g clip-path="url(#c)" transform="translate(88 115)"><g clip-path="url(#d)"><path fill="#100F0D" d="M 324.371094 282.175781 C 324.488281 282.410156 324.488281 282.523438 324.601562 282.753906 C 325.644531 282.988281 326.683594 283.449219 327.492188 284.144531 C 327.261719 284.027344 327.03125 283.796875 326.914062 283.679688 C 327.609375 284.144531 328.304688 284.605469 328.882812 285.183594 C 328.765625 285.0625 328.648438 284.953125 328.535156 284.953125 C 328.648438 285.0625 328.882812 285.300781 328.996094 285.414062 C 329.113281 284.257812 329.460938 283.21875 330.152344 282.292969 L 330.152344 282.175781 C 330.152344 281.714844 330.152344 281.253906 330.269531 280.90625 C 330.039062 280.441406 329.921875 279.980469 329.921875 279.402344 C 329.921875 279.285156 329.804688 279.171875 329.804688 279.054688 C 328.1875 279.285156 326.683594 278.941406 325.414062 277.898438 C 325.296875 277.785156 325.179688 277.667969 325.066406 277.550781 C 324.71875 278.824219 323.792969 279.863281 322.753906 280.558594 C 323.441406 280.90625 323.910156 281.367188 324.371094 282.175781 Z M 628.730469 275.816406 C 627.917969 274.894531 626.070312 275.816406 626.53125 277.089844 C 627.804688 280.328125 628.613281 284.027344 628.382812 287.492188 C 619.59375 280.789062 608.375 276.742188 598.429688 272.464844 C 586.636719 267.378906 574.722656 262.984375 562.121094 260.445312 C 560.847656 260.207031 560.269531 262.175781 561.542969 262.40625 C 584.441406 268.1875 607.679688 278.363281 627.804688 290.84375 C 626.648438 295.355469 623.410156 298.9375 617.167969 299.402344 C 609.882812 299.980469 603.289062 295.125 597.507812 291.539062 C 592.765625 288.648438 587.792969 286.457031 582.707031 284.027344 C 577.964844 281.832031 573.796875 278.476562 569.058594 276.28125 C 567.554688 275.585938 565.359375 276.742188 566.050781 278.59375 C 569.058594 287.144531 579.351562 289.6875 586.753906 293.15625 C 595.425781 297.320312 603.171875 304.027344 613.003906 305.066406 C 629.539062 307.03125 640.058594 288.648438 628.730469 275.816406 Z M 304.367188 295.816406 C 303.441406 294.890625 303.554688 293.042969 304.710938 292.234375 C 303.441406 292.234375 302.285156 292 301.128906 291.421875 C 301.359375 291.886719 301.476562 292.347656 301.359375 292.8125 C 301.359375 292.925781 301.359375 293.042969 301.242188 293.15625 C 301.128906 293.621094 300.78125 293.96875 300.320312 294.082031 C 300.203125 294.082031 300.085938 294.082031 299.972656 294.199219 C 298.121094 294.660156 296.734375 292.347656 298.121094 291.078125 C 298.585938 290.613281 299.164062 290.5 299.742188 290.613281 C 299.277344 290.265625 298.816406 289.804688 298.46875 289.226562 C 297.773438 290.5 296.386719 291.421875 295 291.539062 C 294.882812 292.234375 294.539062 292.925781 294.074219 293.390625 C 294.882812 293.273438 295.695312 293.15625 296.386719 293.15625 C 297.542969 293.15625 298.585938 294.082031 298.699219 295.238281 C 298.816406 296.28125 298.351562 297.089844 297.429688 297.550781 C 298.007812 298.9375 298.121094 300.558594 297.660156 301.945312 C 297.542969 302.292969 297.429688 302.753906 297.3125 303.101562 C 299.277344 303.332031 300.664062 304.375 301.820312 305.992188 C 301.820312 306.109375 301.9375 306.109375 301.9375 306.222656 C 302.167969 306.570312 302.398438 307.03125 302.515625 307.496094 C 303.554688 307.726562 304.367188 308.421875 305.058594 309.113281 C 305.289062 308.652344 305.523438 308.1875 305.753906 307.84375 C 304.945312 306.917969 304.945312 305.296875 305.867188 304.488281 C 302.632812 303.101562 302.054688 298.359375 304.367188 295.816406 Z M 297.660156 283.679688 C 298.007812 282.0625 298.929688 280.558594 300.320312 279.632812 C 300.664062 279.285156 301.128906 278.941406 301.707031 278.59375 C 302.285156 278.246094 302.976562 278.015625 303.671875 277.785156 C 302.976562 277.320312 302.746094 276.394531 303.09375 275.703125 C 302.398438 275.007812 301.820312 274.199219 301.128906 273.503906 C 300.203125 272.464844 299.972656 270.847656 301.011719 269.691406 C 300.550781 268.535156 300.433594 267.144531 301.011719 265.988281 C 299.855469 266.335938 298.238281 265.988281 297.773438 264.832031 C 297.660156 264.601562 297.542969 264.371094 297.542969 264.023438 C 297.3125 264.488281 296.964844 264.832031 296.617188 265.179688 C 296.617188 266.222656 295.695312 267.03125 294.539062 266.914062 C 294.191406 268.1875 293.265625 269.34375 292.226562 270.152344 C 291.878906 270.730469 291.183594 271.078125 290.375 271.078125 C 289.796875 271.308594 289.21875 271.425781 288.640625 271.425781 C 286.558594 271.425781 284.820312 270.382812 283.78125 268.878906 C 283.664062 268.765625 283.554688 268.648438 283.433594 268.648438 C 282.976562 268.1875 282.507812 267.492188 282.277344 266.914062 C 282.046875 266.914062 281.816406 266.800781 281.582031 266.683594 C 281.816406 267.378906 281.929688 268.070312 282.046875 268.765625 C 282.160156 270.382812 281.351562 271.769531 280.3125 272.925781 C 280.773438 273.390625 281.003906 273.96875 280.773438 274.660156 C 280.425781 275.703125 279.964844 276.742188 279.503906 277.667969 C 279.269531 278.246094 278.808594 278.476562 278.230469 278.707031 C 278.347656 278.707031 278.460938 278.707031 278.460938 278.707031 C 280.542969 278.59375 282.738281 279.75 284.011719 281.484375 C 283.78125 280.789062 283.78125 280.210938 284.242188 279.519531 C 284.710938 278.707031 285.628906 278.246094 286.558594 278.246094 C 287.023438 278.246094 287.484375 278.363281 287.832031 278.59375 C 287.484375 278.128906 287.136719 277.667969 286.90625 277.207031 C 285.976562 275.703125 286.558594 273.738281 288.0625 272.8125 C 289.566406 271.886719 291.53125 272.464844 292.457031 273.96875 C 292.804688 274.546875 293.035156 275.125 293.265625 275.703125 C 293.382812 275.816406 293.613281 275.816406 293.726562 275.933594 L 293.84375 276.050781 C 293.960938 275.933594 294.074219 275.816406 294.191406 275.703125 C 295 274.894531 295.695312 274.199219 296.851562 273.96875 C 297.429688 273.96875 298.007812 274.316406 298.238281 274.777344 C 298.816406 275.816406 298.46875 276.972656 298.351562 278.015625 C 298.238281 278.824219 297.542969 279.402344 296.851562 279.632812 C 296.734375 280.90625 295.695312 282.0625 294.421875 281.832031 C 293.148438 281.714844 292.226562 281.136719 291.183594 280.558594 C 291.183594 280.558594 291.183594 280.558594 291.070312 280.558594 C 290.375 280.558594 289.679688 280.328125 289.101562 279.863281 C 289.449219 280.675781 289.335938 281.484375 288.988281 282.292969 C 288.988281 282.410156 288.988281 282.410156 288.871094 282.523438 C 288.523438 283.449219 287.367188 283.796875 286.328125 283.796875 C 286.675781 284.722656 286.328125 285.640625 285.75 286.457031 C 285.75 288.300781 285.171875 290.035156 283.894531 291.421875 C 284.242188 291.886719 284.710938 292.234375 284.941406 292.8125 C 284.941406 292.925781 285.050781 292.925781 285.050781 293.042969 C 285.289062 293.503906 285.519531 293.96875 285.628906 294.546875 C 285.976562 294.429688 286.445312 294.429688 286.785156 294.429688 C 287.023438 294.3125 287.136719 294.082031 287.367188 293.96875 C 287.484375 293.96875 287.484375 293.851562 287.601562 293.851562 C 286.90625 293.042969 286.558594 292 286.445312 290.960938 C 286.328125 288.648438 288.410156 286.6875 290.605469 286.457031 C 291.070312 284.488281 293.035156 282.871094 295.117188 282.871094 C 295.808594 282.410156 296.851562 282.871094 297.660156 283.679688 Z M 311.996094 276.511719 C 312.804688 276.511719 313.617188 276.742188 314.308594 277.089844 C 314.195312 276.742188 314.078125 276.28125 314.078125 275.816406 C 313.960938 272.8125 316.738281 270.269531 319.628906 270.269531 C 319.742188 270.269531 319.742188 270.269531 319.859375 270.269531 C 319.742188 270.269531 319.628906 270.152344 319.394531 270.152344 C 318.816406 269.804688 318.355469 269.457031 317.777344 269.113281 C 316.96875 268.648438 316.507812 267.722656 316.507812 266.914062 C 315.929688 267.722656 315.117188 268.535156 314.195312 269.113281 C 313.847656 270.613281 312.113281 271.886719 310.492188 271.308594 C 310.378906 271.308594 310.261719 271.191406 310.261719 271.191406 C 309.914062 271.078125 309.570312 270.847656 309.335938 270.613281 C 308.875 271.191406 308.296875 271.769531 307.601562 272.117188 C 307.71875 272.347656 307.949219 272.464844 308.066406 272.695312 C 308.875 273.851562 308.296875 275.585938 307.371094 276.394531 C 306.910156 276.742188 306.445312 276.859375 305.984375 276.972656 C 305.867188 277.207031 305.753906 277.4375 305.636719 277.550781 C 306.5625 277.550781 307.488281 277.785156 308.296875 278.128906 C 309.222656 277.207031 310.609375 276.511719 311.996094 276.511719 Z M 484.179688 105.871094 C 474.121094 120.441406 462.902344 133.964844 451.109375 147.03125 C 450.066406 148.1875 451.6875 149.804688 452.84375 148.765625 C 465.097656 135.816406 475.625 121.480469 485.222656 106.449219 C 485.453125 105.871094 484.527344 105.292969 484.179688 105.871094 Z M 323.210938 319.515625 C 322.753906 318.589844 322.40625 317.667969 322.40625 316.511719 C 322.40625 315.816406 322.523438 315.121094 322.753906 314.542969 C 322.523438 314.777344 322.285156 314.890625 321.945312 315.007812 C 320.789062 315.355469 319.511719 314.660156 318.933594 313.734375 C 318.933594 314.3125 318.933594 314.777344 318.816406 315.355469 C 318.933594 316.164062 318.585938 317.089844 317.894531 317.667969 C 317.660156 318.011719 317.429688 318.359375 317.199219 318.707031 C 316.738281 319.285156 316.042969 319.746094 315.234375 320.09375 C 315.582031 321.597656 315.234375 323.214844 314.078125 324.257812 C 314.65625 324.605469 315.234375 324.949219 315.695312 325.414062 C 316.738281 324.71875 318.125 324.488281 319.511719 324.835938 C 319.628906 324.835938 319.742188 324.835938 319.742188 324.949219 C 320.667969 325.183594 321.367188 325.644531 321.945312 326.222656 C 322.175781 325.992188 322.40625 325.761719 322.753906 325.644531 C 322.054688 324.488281 322.40625 322.636719 323.910156 322.058594 C 323.5625 321.367188 323.332031 320.671875 323.332031 319.863281 C 323.210938 319.632812 323.210938 319.515625 323.210938 319.515625 Z M 343.566406 463.566406 C 345.992188 471.65625 351.429688 479.402344 355.820312 486.570312 C 356.398438 487.378906 357.671875 486.6875 357.214844 485.761719 C 353.046875 478.363281 349.925781 469.921875 345.183594 462.871094 C 344.605469 462.0625 343.21875 462.523438 343.566406 463.566406 Z M 393.980469 379.519531 C 398.03125 383.332031 402.773438 386.570312 407.28125 389.925781 C 407.976562 390.382812 408.785156 389.347656 408.207031 388.769531 C 404.046875 385.066406 399.882812 381.019531 395.375 377.785156 C 394.21875 377.089844 393.0625 378.707031 393.980469 379.519531 Z M 115.878906 400.09375 C 117.726562 398.824219 119.578125 397.550781 121.195312 396.046875 C 122.351562 395.007812 120.847656 393.503906 119.578125 393.96875 C 117.496094 394.890625 115.644531 396.046875 113.679688 397.203125 C 112.292969 398.128906 110.210938 398.9375 110.328125 400.90625 C 110.328125 401.25 110.558594 401.597656 110.789062 401.828125 C 112.640625 402.640625 114.375 401.019531 115.878906 400.09375 Z M 334.429688 291.886719 C 334.429688 291.539062 334.429688 291.191406 334.546875 290.84375 C 334.429688 290.84375 334.316406 290.84375 334.085938 290.84375 C 332.8125 290.84375 331.773438 290.5 330.960938 289.804688 C 330.960938 290.730469 330.730469 291.539062 330.269531 292.347656 C 330.382812 292.925781 330.5 293.503906 330.5 294.082031 C 330.5 294.546875 330.5 295.007812 330.382812 295.46875 C 330.730469 296.742188 330.269531 298.246094 328.765625 298.59375 C 327.378906 300.210938 325.296875 301.25 323.210938 301.25 C 322.523438 301.25 321.824219 301.136719 321.128906 300.90625 C 320.210938 300.789062 319.28125 300.328125 318.585938 299.75 C 317.085938 300.09375 315.117188 299.285156 315.234375 297.320312 C 315.234375 297.089844 315.234375 296.972656 315.234375 296.742188 C 315.234375 296.046875 315.582031 295.355469 316.042969 294.890625 C 316.042969 294.777344 316.042969 294.546875 315.929688 294.429688 C 315.351562 294.546875 314.65625 294.429688 314.195312 293.96875 C 313.847656 293.621094 313.382812 293.273438 313.039062 292.8125 C 311.996094 291.769531 312.226562 290.035156 313.5 289.34375 C 314.773438 288.53125 316.160156 289.34375 316.738281 290.613281 C 316.621094 290.035156 316.507812 289.457031 316.507812 288.878906 C 316.273438 288.648438 316.042969 288.53125 315.8125 288.300781 C 315.351562 287.722656 315.003906 287.144531 314.773438 286.566406 C 313.847656 287.144531 312.921875 287.492188 311.882812 287.492188 C 311.765625 287.492188 311.648438 287.492188 311.535156 287.492188 C 311.070312 288.648438 310.378906 289.574219 309.335938 290.382812 C 309.105469 290.613281 308.875 290.730469 308.644531 290.84375 C 309.222656 291.308594 309.222656 292.464844 308.527344 292.8125 C 308.296875 292.925781 307.949219 293.042969 307.71875 293.15625 C 307.835938 293.390625 307.835938 293.734375 307.835938 294.082031 C 307.835938 294.082031 307.835938 294.082031 307.949219 294.082031 C 310.378906 294.082031 311.882812 295.46875 312.691406 297.089844 C 312.804688 297.089844 312.804688 297.089844 312.921875 297.089844 C 314.65625 297.089844 315.8125 299.054688 314.886719 300.558594 L 314.539062 301.25 C 314.078125 301.945312 313.269531 302.292969 312.574219 302.0625 C 311.996094 303.21875 310.957031 304.257812 309.335938 304.605469 C 309.570312 304.953125 309.683594 305.296875 309.800781 305.644531 C 310.378906 305.53125 311.070312 305.53125 311.765625 305.761719 C 313.269531 306.109375 314.65625 307.148438 315.351562 308.421875 C 315.695312 308.652344 316.042969 308.882812 316.390625 309.113281 C 316.738281 308.421875 317.316406 307.84375 318.355469 307.84375 C 319.164062 307.84375 319.742188 308.1875 320.089844 308.765625 C 320.320312 308.652344 320.667969 308.652344 320.898438 308.765625 C 320.898438 308.074219 320.898438 307.265625 321.019531 306.570312 C 321.367188 304.953125 322.753906 303.21875 324.257812 302.40625 C 324.71875 302.175781 325.296875 301.945312 325.875 301.828125 C 326.914062 301.367188 327.957031 301.136719 329.113281 301.25 C 329.113281 299.171875 330.847656 296.742188 332.929688 296.28125 C 333.042969 296.28125 333.042969 296.28125 333.160156 296.28125 C 334.316406 296.046875 335.472656 296.046875 336.511719 296.511719 C 336.628906 296.394531 336.859375 296.394531 336.976562 296.28125 C 335.472656 295.355469 334.429688 293.851562 334.429688 291.886719 Z M 295.460938 100.789062 C 295.230469 93.621094 294.074219 86.453125 293.148438 79.28125 C 293.035156 78.015625 290.953125 77.894531 291.070312 79.28125 C 291.648438 86.453125 291.878906 93.96875 293.035156 101.136719 C 293.265625 102.523438 295.460938 102.175781 295.460938 100.789062 Z M 370.394531 256.398438 C 370.277344 256.398438 370.164062 256.511719 370.046875 256.511719 L 370.164062 256.628906 C 370.277344 256.511719 370.394531 256.511719 370.394531 256.398438 Z M 369.121094 269.226562 L 368.542969 268.996094 C 367.273438 268.535156 366 269.691406 366 270.847656 C 366 272.003906 367.273438 273.160156 368.542969 272.695312 L 369.121094 272.464844 C 370.855469 272.003906 370.855469 269.804688 369.121094 269.226562 Z M 368.3125 296.972656 C 368.199219 295.816406 367.734375 295.007812 367.273438 293.96875 C 366.117188 291.539062 362.070312 293.851562 363.6875 296.046875 C 364.265625 296.972656 364.84375 297.78125 365.769531 298.359375 C 366.695312 299.171875 368.429688 298.246094 368.3125 296.972656 Z M 365.886719 302.640625 C 365.191406 303.449219 364.496094 304.257812 364.382812 305.414062 C 364.382812 306.109375 365.074219 306.6875 365.769531 306.453125 C 366.808594 306.109375 367.386719 305.183594 367.964844 304.257812 C 368.777344 303.101562 366.808594 301.484375 365.886719 302.640625 Z M 363.6875 285.988281 C 364.152344 286.457031 364.84375 286.457031 365.308594 285.988281 C 366.117188 285.183594 366 284.027344 366 282.988281 C 366 281.019531 362.996094 281.019531 362.996094 282.988281 C 362.996094 284.027344 362.878906 285.183594 363.6875 285.988281 Z M 364.382812 278.363281 C 364.496094 278.246094 364.613281 278.015625 364.730469 277.898438 C 365.074219 277.785156 365.421875 277.667969 365.539062 277.320312 C 365.886719 276.628906 365.769531 276.164062 365.539062 275.355469 C 365.074219 273.96875 363.6875 274.082031 362.878906 274.660156 C 362.183594 274.546875 361.375 274.894531 360.683594 274.777344 C 359.410156 274.546875 358.132812 275.125 357.792969 276.394531 C 357.671875 276.742188 357.671875 277.207031 357.792969 277.667969 C 357.09375 277.089844 356.167969 276.742188 355.128906 276.742188 C 352.699219 276.742188 350.273438 278.941406 350.386719 281.484375 C 350.386719 281.832031 350.386719 282.0625 350.503906 282.410156 C 349.925781 281.832031 349.347656 281.253906 348.769531 280.675781 C 347.613281 279.75 345.878906 279.75 345.070312 281.136719 C 344.375 282.410156 344.953125 284.257812 346.457031 284.605469 C 347.613281 284.835938 348.652344 285.183594 349.808594 285.183594 C 350.386719 285.183594 351.082031 284.722656 351.195312 284.027344 C 352.007812 285.300781 353.394531 286.21875 355.128906 286.21875 C 357.554688 286.21875 359.988281 284.027344 359.867188 281.484375 C 359.867188 280.675781 359.640625 279.863281 359.179688 279.171875 C 359.289062 279.171875 359.289062 279.285156 359.410156 279.285156 C 361.144531 279.632812 363.109375 279.75 364.382812 278.363281 Z M 277.652344 308.535156 C 277.769531 308.535156 277.769531 308.304688 277.652344 308.304688 C 277.535156 308.421875 277.535156 308.535156 277.652344 308.535156 Z M 275.917969 307.84375 C 273.953125 307.84375 273.144531 309.808594 273.835938 311.425781 C 273.835938 311.542969 273.835938 311.542969 273.953125 311.652344 C 274.644531 313.15625 277.304688 313.15625 278 311.652344 C 278 311.542969 278 311.542969 278.113281 311.425781 C 278.691406 309.921875 277.882812 307.84375 275.917969 307.84375 Z M 266.4375 309.460938 C 266.550781 309.460938 266.550781 309.230469 266.4375 309.230469 C 266.320312 309.34375 266.320312 309.460938 266.4375 309.460938 Z M 335.820312 319.863281 C 336.050781 319.863281 336.050781 319.515625 335.820312 319.515625 C 335.585938 319.515625 335.585938 319.863281 335.820312 319.863281 Z M 361.839844 302.40625 C 361.839844 302.175781 361.839844 301.945312 361.722656 301.714844 C 361.605469 300.789062 361.492188 300.09375 361.027344 299.285156 C 360.566406 298.359375 359.640625 297.667969 358.710938 297.320312 C 357.792969 296.972656 356.746094 296.859375 355.707031 297.089844 C 356.167969 296.28125 356.515625 295.238281 356.515625 294.199219 C 356.398438 290.960938 353.972656 288.300781 350.617188 288.300781 C 350.386719 288.300781 350.15625 288.300781 349.925781 288.417969 C 349.230469 287.261719 348.191406 286.339844 346.804688 285.988281 C 346.6875 285.988281 346.6875 285.988281 346.570312 285.988281 C 344.605469 285.414062 342.757812 286.109375 341.484375 287.375 L 341.367188 287.375 C 341.714844 287.035156 342.0625 286.6875 342.410156 286.21875 C 343.335938 285.0625 343.914062 283.679688 343.796875 282.175781 C 343.796875 281.367188 343.566406 280.675781 343.335938 279.980469 C 346.339844 278.59375 346.804688 274.199219 344.605469 271.886719 C 345.183594 271.078125 345.183594 269.921875 344.492188 268.996094 C 344.375 268.878906 344.257812 268.648438 344.144531 268.535156 C 343.679688 267.957031 342.410156 267.957031 341.832031 268.535156 C 341.714844 268.648438 341.601562 268.878906 341.484375 268.996094 C 341.136719 269.457031 341.023438 269.921875 340.90625 270.5 C 339.054688 270.613281 337.785156 271.539062 337.089844 272.8125 C 336.398438 272.582031 335.703125 272.347656 335.007812 272.347656 L 334.894531 272.347656 C 334.664062 270.847656 333.96875 269.457031 332.695312 268.535156 C 332.582031 268.417969 332.582031 268.417969 332.464844 268.300781 C 332.695312 267.957031 333.042969 267.722656 333.273438 267.378906 C 333.390625 267.378906 333.507812 267.492188 333.621094 267.492188 C 333.851562 267.609375 333.96875 267.609375 334.199219 267.609375 C 334.316406 267.609375 334.429688 267.609375 334.546875 267.609375 L 335.355469 267.957031 C 336.511719 268.535156 338.015625 268.300781 338.710938 267.03125 C 338.710938 266.914062 338.710938 266.914062 338.824219 266.800781 C 340.558594 265.757812 341.832031 263.910156 341.832031 261.710938 C 341.832031 258.015625 338.015625 255.007812 334.429688 256.050781 C 334.199219 256.050781 334.085938 256.164062 333.851562 256.164062 C 333.273438 256.398438 332.695312 256.628906 332.117188 257.089844 C 331.886719 256.859375 331.773438 256.742188 331.425781 256.511719 C 330.960938 255.933594 330.382812 255.585938 329.804688 255.125 C 330.152344 253.96875 330.152344 252.8125 329.921875 251.65625 C 329.921875 251.425781 329.804688 251.195312 329.804688 250.960938 C 329.460938 249.113281 327.492188 247.261719 325.757812 246.914062 C 324.257812 246.570312 322.632812 246.683594 321.246094 247.492188 C 318.007812 249.460938 317.429688 253.96875 320.089844 256.628906 C 320.210938 256.742188 320.320312 256.859375 320.4375 256.976562 C 319.28125 258.59375 318.703125 260.675781 318.816406 262.40625 C 318.816406 262.867188 318.933594 263.445312 319.050781 263.910156 C 318.585938 264.023438 318.238281 264.140625 317.894531 264.488281 C 318.355469 262.753906 318.007812 260.902344 316.96875 259.402344 C 317.429688 258.941406 317.660156 258.246094 317.660156 257.554688 C 317.660156 256.28125 316.96875 255.355469 315.8125 254.894531 C 314.308594 254.316406 312.574219 255.007812 311.996094 256.398438 C 309.800781 256.28125 307.601562 257.207031 306.332031 258.941406 C 305.523438 259.976562 304.945312 261.25 304.945312 262.636719 C 304.367188 262.753906 303.671875 262.984375 303.210938 263.332031 C 303.324219 263.097656 303.324219 262.984375 303.441406 262.753906 C 304.019531 260.902344 302.515625 258.941406 300.550781 258.941406 C 299.972656 258.941406 299.507812 259.171875 299.046875 259.402344 C 298.816406 256.164062 296.617188 253.621094 293.613281 252.929688 C 293.613281 252.351562 293.382812 251.773438 293.148438 251.078125 C 293.035156 250.847656 292.917969 250.730469 292.804688 250.5 C 293.265625 250.730469 293.726562 250.960938 294.304688 250.960938 C 294.882812 250.960938 295.460938 250.730469 295.808594 250.5 C 295.925781 252.695312 297.082031 254.777344 299.046875 255.933594 C 301.589844 257.4375 304.828125 256.976562 307.023438 254.894531 L 307.140625 254.777344 C 307.835938 254.199219 308.296875 253.390625 308.527344 252.582031 C 308.992188 253.738281 309.914062 254.664062 311.304688 254.664062 C 312.113281 254.664062 312.804688 254.316406 313.382812 253.738281 C 313.960938 253.96875 314.539062 254.316406 315.234375 254.546875 C 316.042969 254.777344 317.085938 254.429688 317.546875 253.621094 C 318.007812 252.8125 317.777344 251.886719 317.199219 251.195312 C 316.851562 250.847656 316.390625 250.5 316.042969 250.152344 C 315.929688 250.039062 315.8125 250.039062 315.695312 249.921875 C 316.160156 249.691406 316.621094 249.574219 316.96875 249.113281 C 317.316406 248.648438 317.660156 247.957031 317.429688 247.378906 C 316.96875 245.757812 315.003906 245.992188 313.730469 246.222656 C 312.574219 246.335938 311.996094 247.839844 312.34375 248.765625 C 312.34375 248.882812 312.460938 248.996094 312.460938 249.113281 C 312.226562 248.996094 311.996094 248.882812 311.882812 248.882812 C 311.996094 247.957031 311.535156 247.03125 310.378906 247.03125 C 308.757812 247.03125 308.414062 248.882812 309.105469 249.804688 C 308.992188 249.921875 308.875 250.039062 308.875 250.152344 C 308.757812 248.648438 308.179688 247.03125 307.023438 245.992188 L 306.910156 245.875 C 306.5625 245.527344 306.101562 245.179688 305.636719 244.949219 C 305.636719 243.445312 304.25 242.289062 302.746094 242.753906 C 302.632812 242.753906 302.515625 242.753906 302.515625 242.867188 C 302.167969 242.984375 301.820312 243.214844 301.476562 243.445312 C 301.476562 243.214844 301.476562 242.984375 301.359375 242.753906 C 301.011719 241.597656 299.625 240.671875 298.351562 241.019531 C 296.851562 241.480469 294.769531 241.945312 294.304688 243.679688 C 294.191406 244.257812 294.304688 244.949219 294.652344 245.414062 C 294.421875 245.414062 294.304688 245.296875 294.074219 245.296875 C 292.917969 245.296875 292.109375 245.875 291.648438 246.683594 C 291.414062 246.570312 291.300781 246.453125 290.953125 246.453125 C 290.835938 246.453125 290.835938 246.453125 290.722656 246.453125 C 291.070312 245.757812 291.070312 245.066406 290.722656 244.257812 C 290.257812 243.101562 289.21875 242.523438 288.0625 242.058594 C 286.558594 241.480469 284.941406 242.867188 284.820312 244.257812 C 284.589844 245.757812 285.75 247.261719 287.367188 247.261719 C 287.367188 247.261719 287.367188 247.261719 287.484375 247.261719 C 288.179688 247.726562 289.101562 247.839844 289.796875 247.492188 C 289.796875 247.726562 289.796875 247.957031 289.796875 248.1875 C 287.714844 247.261719 285.050781 247.609375 283.085938 249.34375 C 282.507812 249.921875 281.929688 250.5 281.582031 251.195312 C 280.773438 252.8125 280.542969 254.429688 281.351562 256.164062 C 281.816406 257.207031 282.394531 257.898438 283.203125 258.476562 C 283.316406 258.710938 283.433594 258.824219 283.554688 259.050781 C 282.855469 259.75 282.394531 260.554688 282.046875 261.480469 C 281.929688 261.480469 281.699219 261.601562 281.582031 261.710938 C 280.773438 262.175781 280.195312 263.097656 280.195312 264.023438 C 280.195312 264.140625 280.195312 264.253906 280.195312 264.253906 C 279.386719 263.445312 278.230469 262.867188 277.074219 262.753906 C 277.769531 262.519531 278.460938 262.058594 278.691406 261.132812 C 278.925781 260.097656 278.925781 259.289062 278.691406 258.363281 C 278.347656 256.742188 276.613281 255.933594 275.222656 256.28125 C 274.414062 255.242188 273.144531 254.429688 271.292969 254.429688 C 270.597656 254.429688 270.019531 254.546875 269.558594 254.777344 C 268.980469 254.546875 268.285156 254.429688 267.59375 254.777344 C 267.128906 255.007812 266.785156 255.355469 266.4375 255.703125 C 266.320312 255.703125 266.089844 255.703125 265.972656 255.820312 C 265.164062 256.164062 264.472656 256.511719 263.894531 257.089844 C 262.738281 258.246094 262.621094 260.445312 263.894531 261.480469 C 264.703125 262.289062 265.972656 262.519531 267.015625 262.289062 C 267.824219 263.792969 269.210938 264.832031 271.410156 264.832031 C 271.640625 264.832031 271.753906 264.832031 271.988281 264.71875 C 271.753906 264.949219 271.523438 265.296875 271.292969 265.644531 C 270.367188 266.914062 270.136719 268.1875 270.136719 269.691406 C 270.019531 272.347656 272.566406 274.777344 275.222656 274.777344 C 275.109375 275.007812 274.992188 275.125 274.878906 275.355469 C 273.488281 275.703125 272.449219 277.207031 272.910156 278.707031 C 272.910156 278.941406 273.027344 279.054688 273.027344 279.285156 C 273.144531 279.863281 273.488281 280.210938 273.835938 280.441406 C 273.375 280.90625 272.910156 281.367188 272.566406 281.945312 C 272.101562 281.832031 271.640625 281.597656 271.0625 281.597656 C 270.945312 280.328125 270.019531 279.171875 268.75 278.941406 C 268.75 278.824219 268.75 278.707031 268.632812 278.476562 C 268.519531 277.898438 268.285156 277.207031 267.824219 276.742188 C 267.941406 276.742188 268.054688 276.742188 268.171875 276.742188 C 270.945312 276.742188 271.523438 273.503906 270.136719 272.003906 C 270.367188 271.539062 269.90625 270.847656 269.328125 271.078125 C 269.097656 271.191406 268.980469 271.191406 268.75 271.308594 C 268.519531 271.308594 268.402344 271.191406 268.171875 271.191406 C 266.089844 271.191406 265.164062 273.042969 265.511719 274.660156 C 265.050781 274.429688 264.585938 274.199219 264.007812 274.082031 C 262.96875 273.738281 261.8125 273.738281 260.769531 274.082031 C 260.65625 273.96875 260.425781 273.96875 260.308594 273.851562 C 263.894531 273.621094 263.777344 268.070312 260.191406 268.070312 C 256.722656 268.070312 256.492188 273.160156 259.613281 273.851562 C 258.113281 273.96875 256.722656 275.238281 256.839844 276.859375 C 256.839844 276.972656 256.839844 277.089844 256.839844 277.207031 C 255.914062 278.707031 255.683594 280.558594 256.144531 282.292969 C 256.609375 283.910156 257.765625 285.53125 259.382812 286.339844 C 259.382812 286.566406 259.5 286.796875 259.613281 286.914062 C 259.269531 286.796875 258.921875 286.796875 258.574219 286.796875 C 255.800781 286.796875 253.140625 289.226562 253.253906 292.117188 C 253.371094 295.007812 255.566406 297.4375 258.574219 297.4375 C 259.035156 297.4375 259.5 297.320312 259.960938 297.203125 C 260.191406 297.203125 260.425781 297.089844 260.65625 296.972656 C 260.886719 296.859375 261.117188 296.742188 261.347656 296.625 C 262.851562 295.703125 264.007812 293.96875 263.894531 292.117188 C 263.777344 290.730469 263.316406 289.574219 262.503906 288.648438 C 263.660156 288.53125 264.355469 287.839844 264.703125 287.035156 C 264.816406 287.035156 264.933594 286.914062 265.164062 286.914062 C 264.816406 290.035156 266.667969 293.621094 270.714844 293.621094 C 271.175781 293.621094 271.523438 293.621094 271.988281 293.503906 C 271.292969 295.007812 270.945312 296.972656 271.640625 298.476562 L 271.753906 298.707031 C 271.871094 299.054688 272.101562 299.402344 272.21875 299.75 C 271.871094 300.210938 271.753906 300.671875 271.753906 301.25 C 271.753906 301.367188 271.753906 301.484375 271.753906 301.597656 C 271.292969 301.25 270.832031 301.019531 270.367188 301.019531 C 270.714844 300.09375 270.253906 298.824219 269.097656 298.59375 C 268.863281 298.59375 268.75 298.476562 268.519531 298.476562 C 268.285156 298.476562 268.171875 298.359375 267.941406 298.476562 C 267.476562 297.898438 266.785156 297.550781 265.859375 297.550781 C 264.816406 297.550781 264.125 298.015625 263.660156 298.59375 C 261.117188 298.59375 259.730469 300.328125 259.382812 302.175781 C 258.574219 301.136719 257.300781 300.441406 255.683594 300.441406 C 249.324219 300.441406 249.324219 310.386719 255.683594 310.386719 C 258.457031 310.386719 260.078125 308.421875 260.425781 306.339844 C 261.117188 307.265625 262.273438 307.84375 263.777344 307.84375 C 265.628906 307.84375 266.785156 307.03125 267.476562 305.761719 C 267.476562 305.875 267.476562 305.875 267.476562 305.992188 C 267.824219 307.265625 268.980469 308.1875 270.253906 308.074219 C 270.832031 308.074219 271.292969 307.957031 271.753906 307.726562 C 272.910156 307.148438 273.375 305.644531 273.144531 304.488281 L 272.910156 303.679688 C 273.257812 303.910156 273.722656 304.140625 274.183594 304.140625 C 274.878906 304.375 275.457031 304.257812 275.917969 303.796875 C 277.304688 304.488281 278.925781 304.605469 280.425781 304.257812 C 280.660156 304.71875 280.773438 305.183594 281.121094 305.644531 C 279.15625 306.570312 279.503906 310.15625 282.160156 310.15625 C 283.554688 310.15625 284.242188 309.230469 284.472656 308.1875 C 284.710938 308.304688 284.941406 308.421875 285.289062 308.421875 C 284.363281 309 283.554688 309.921875 283.085938 310.964844 C 282.738281 311.652344 282.625 312.351562 282.625 313.046875 C 282.160156 313.15625 281.816406 313.386719 281.46875 313.734375 C 280.542969 313.046875 279.039062 313.273438 278.230469 314.082031 C 277.652344 314.660156 277.421875 315.585938 277.535156 316.511719 C 275.109375 315.007812 271.871094 315.121094 269.789062 317.320312 C 269.675781 317.433594 269.558594 317.550781 269.441406 317.667969 C 269.558594 317.433594 269.558594 317.089844 269.558594 316.855469 C 269.441406 315.238281 268.285156 313.851562 266.550781 313.851562 C 266.207031 313.851562 265.742188 313.964844 265.394531 314.082031 C 265.164062 313.964844 265.050781 313.851562 264.816406 313.625 C 264.007812 313.046875 263.199219 313.851562 263.199219 314.542969 C 257.878906 315.585938 258.226562 324.371094 264.355469 324.371094 C 266.089844 324.371094 267.246094 323.679688 268.054688 322.636719 C 268.285156 323.910156 268.863281 325.066406 269.789062 326.105469 C 272.566406 329.113281 277.769531 328.1875 279.617188 324.835938 C 280.773438 322.753906 280.773438 320.324219 279.503906 318.359375 C 280.195312 318.589844 281.003906 318.589844 281.582031 318.128906 C 281.582031 318.9375 281.929688 319.746094 282.738281 320.210938 C 283.554688 320.558594 284.132812 320.902344 285.050781 321.019531 C 286.445312 321.019531 287.136719 319.980469 287.136719 318.824219 C 288.0625 318.9375 288.871094 318.9375 289.679688 318.707031 C 290.257812 318.476562 290.722656 318.246094 291.300781 318.011719 C 290.953125 318.824219 290.835938 319.515625 290.492188 320.324219 C 289.566406 323.5625 291.300781 327.496094 294.421875 328.882812 C 294.304688 328.996094 294.074219 329.113281 293.960938 329.230469 C 292.570312 330.617188 293.613281 333.042969 295.460938 332.929688 C 295.578125 332.929688 295.808594 332.929688 295.925781 332.929688 C 296.851562 332.929688 297.660156 332.121094 297.660156 331.195312 C 297.660156 331.078125 297.660156 330.847656 297.660156 330.730469 C 297.660156 330.269531 297.542969 329.808594 297.195312 329.460938 C 298.46875 329.460938 299.855469 329.230469 301.011719 328.535156 C 301.476562 328.1875 302.054688 327.839844 302.515625 327.378906 C 303.210938 327.148438 303.671875 326.453125 303.789062 325.761719 C 304.132812 325.296875 304.25 324.71875 304.367188 324.140625 C 304.597656 322.871094 304.828125 321.597656 304.597656 320.210938 C 305.867188 320.210938 307.140625 319.632812 308.066406 318.707031 C 308.179688 318.9375 308.414062 319.167969 308.644531 319.285156 C 308.066406 320.210938 307.835938 321.367188 308.066406 322.40625 C 307.601562 322.984375 307.257812 323.5625 307.601562 324.257812 C 307.835938 324.71875 308.179688 324.949219 308.644531 325.066406 C 304.597656 327.726562 304.945312 334.894531 309.800781 336.628906 C 309.570312 336.628906 309.335938 336.628906 309.222656 336.746094 C 307.371094 337.085938 307.371094 340.210938 309.222656 340.554688 C 309.570312 340.671875 309.914062 340.671875 310.378906 340.671875 C 312.574219 340.554688 312.921875 337.902344 311.417969 336.976562 C 311.648438 336.976562 311.882812 337.085938 312.226562 337.085938 C 314.539062 337.085938 316.273438 336.050781 317.316406 334.546875 C 318.585938 335.125 320.210938 335.242188 321.476562 334.546875 C 321.824219 335.125 322.523438 335.589844 323.441406 335.589844 C 326.222656 335.589844 326.453125 331.773438 324.257812 331.078125 C 324.371094 330.617188 324.371094 330.269531 324.371094 329.808594 C 324.371094 329.808594 324.371094 329.808594 324.488281 329.808594 C 326.105469 329.808594 326.683594 328.304688 326.222656 327.148438 C 326.335938 327.148438 326.335938 327.03125 326.453125 327.03125 C 326.453125 327.839844 326.914062 328.652344 327.726562 328.996094 C 327.726562 329.34375 327.839844 329.691406 327.957031 330.152344 C 328.070312 330.5 328.1875 330.730469 328.417969 331.078125 C 327.839844 332.003906 327.609375 333.160156 327.726562 334.433594 C 326.570312 335.242188 325.414062 336.050781 324.601562 337.207031 C 323.792969 338.480469 325.179688 340.09375 326.570312 339.746094 C 327.726562 339.398438 328.648438 338.710938 329.574219 338.132812 C 331.308594 339.863281 334.777344 339.863281 336.511719 338.011719 C 336.976562 338.011719 337.4375 337.902344 337.898438 337.554688 C 338.59375 336.976562 339.402344 336.28125 340.097656 335.703125 C 341.601562 334.433594 339.632812 331.773438 338.015625 332.8125 C 337.4375 330.5 335.472656 328.652344 332.929688 328.652344 L 332.8125 328.652344 C 332.8125 328.535156 332.8125 328.417969 332.695312 328.304688 C 332.464844 327.148438 331.425781 326.453125 330.382812 326.453125 C 330.269531 326.105469 330.039062 325.761719 329.691406 325.527344 C 331.773438 325.296875 333.621094 323.792969 334.085938 321.828125 C 335.125 320.902344 335.820312 319.632812 335.933594 318.246094 C 337.089844 318.707031 338.476562 319.167969 339.75 318.9375 C 339.632812 318.9375 339.632812 319.054688 339.519531 319.054688 C 339.171875 319.285156 338.941406 319.632812 338.710938 319.863281 C 337.785156 320.671875 337.207031 321.714844 336.742188 322.984375 C 335.820312 324.949219 335.585938 327.378906 336.859375 329.34375 C 337.4375 330.269531 338.246094 331.078125 339.289062 331.773438 C 340.90625 332.8125 342.640625 332.699219 344.492188 332.464844 C 346.226562 332.234375 347.960938 330.964844 349 329.460938 C 349.578125 329.113281 350.039062 328.882812 350.503906 328.535156 C 351.660156 327.839844 351.195312 326.339844 350.273438 325.875 C 350.386719 324.488281 350.273438 323.101562 349.695312 321.828125 C 350.503906 321.480469 351.3125 321.019531 352.121094 320.558594 C 354.550781 319.167969 352.238281 315.355469 349.925781 316.855469 C 349.230469 317.320312 348.421875 317.78125 347.726562 318.359375 C 347.496094 318.476562 347.382812 318.707031 347.148438 318.9375 C 346.917969 318.824219 346.804688 318.707031 346.570312 318.476562 C 345.300781 317.78125 343.796875 317.550781 342.410156 317.667969 C 341.945312 317.78125 341.484375 317.898438 341.023438 318.011719 C 342.179688 316.855469 341.714844 315.238281 340.558594 314.429688 C 339.75 313.851562 338.941406 313.964844 338.363281 313.734375 C 338.246094 313.734375 338.246094 313.734375 338.132812 313.734375 C 338.246094 313.503906 338.363281 313.273438 338.476562 313.046875 C 338.59375 312.925781 338.824219 312.699219 338.941406 312.46875 C 339.054688 312.351562 339.171875 312.230469 339.171875 312.121094 C 339.289062 312.121094 339.519531 312.230469 339.632812 312.230469 C 341.367188 312.351562 342.988281 311.425781 344.257812 310.386719 C 344.722656 311.425781 345.300781 312.351562 346.226562 312.925781 C 346.339844 313.273438 346.570312 313.625 346.804688 313.964844 C 347.960938 315.355469 350.734375 316.511719 352.121094 314.660156 C 352.585938 313.964844 352.699219 313.386719 352.351562 312.699219 C 352.351562 312.578125 352.238281 312.578125 352.238281 312.578125 C 353.394531 311.652344 354.203125 310.15625 354.203125 308.652344 C 354.085938 305.875 351.890625 303.449219 349 303.449219 C 348.304688 303.449219 347.613281 303.5625 347.035156 303.910156 C 346.804688 301.945312 345.992188 300.328125 344.722656 298.824219 C 344.144531 298.246094 343.449219 297.78125 342.757812 297.4375 C 343.101562 297.320312 343.335938 297.089844 343.566406 296.859375 C 344.257812 297.203125 345.070312 297.4375 345.878906 297.4375 C 346.804688 299.632812 348.769531 301.136719 351.3125 301.136719 C 352.007812 301.136719 352.585938 301.019531 353.277344 300.789062 C 352.816406 301.828125 352.585938 302.984375 352.929688 304.140625 C 353.164062 305.183594 353.855469 305.992188 354.664062 306.6875 C 355.589844 307.378906 356.515625 307.609375 357.671875 307.726562 L 358.371094 307.84375 C 359.640625 307.03125 362.183594 304.605469 361.839844 302.40625 Z M 360.566406 314.429688 C 360.105469 313.734375 359.058594 313.273438 358.371094 313.851562 C 357.554688 314.429688 356.976562 315.121094 356.515625 315.933594 C 355.589844 317.78125 358.371094 319.515625 359.289062 317.550781 C 359.410156 317.203125 359.640625 316.855469 359.988281 316.625 C 360.683594 316.164062 361.027344 315.238281 360.566406 314.429688 Z M 355.707031 319.863281 C 354.664062 319.515625 353.394531 320.210938 353.164062 321.367188 C 352.929688 322.175781 352.816406 322.984375 352.699219 323.792969 C 352.585938 324.835938 353.625 325.761719 354.550781 325.875 C 355.589844 325.992188 356.515625 325.414062 356.863281 324.371094 C 357.09375 323.792969 357.09375 323.101562 357.214844 322.40625 C 357.445312 321.367188 356.863281 320.210938 355.707031 319.863281 Z M 346.917969 344.949219 C 346.109375 343.5625 345.53125 342.058594 344.835938 340.671875 C 344.257812 340.902344 343.679688 341.132812 342.988281 341.367188 C 344.375 342.523438 345.648438 343.679688 346.917969 344.949219 Z M 339.289062 342.175781 C 339.171875 342.175781 339.054688 342.175781 339.054688 342.175781 C 347.960938 349.460938 354.78125 360.675781 361.027344 370.035156 C 370.164062 383.910156 378.835938 398.015625 386.929688 412.46875 C 387.390625 413.160156 386.234375 413.855469 385.773438 413.160156 C 377.5625 399.980469 369.238281 386.917969 360.449219 374.082031 C 356.976562 368.996094 353.164062 364.253906 349.230469 359.519531 C 358.253906 371.65625 366.117188 385.183594 373.285156 397.667969 C 379.296875 408.1875 384.730469 419.054688 389.472656 430.152344 C 389.933594 430.152344 390.28125 430.152344 390.628906 430.617188 C 405.894531 449.226562 423.238281 467.035156 441.164062 483.101562 C 450.53125 491.542969 460.242188 500.558594 471.117188 506.917969 C 477.476562 510.617188 485.683594 513.96875 492.96875 511.195312 C 501.414062 507.957031 500.367188 502.175781 499.90625 495.007812 C 499.789062 493.972656 500.714844 493.046875 501.640625 492.699219 C 498.054688 490.847656 494.703125 488.652344 492.160156 486.6875 C 473.195312 471.65625 459.664062 450.847656 441.511719 434.777344 C 422.546875 417.898438 401.734375 403.332031 382.765625 386.457031 C 380.800781 384.605469 378.835938 382.871094 376.871094 381.019531 C 377.792969 382.175781 378.605469 383.21875 379.527344 384.375 C 395.136719 404.140625 410.519531 423.910156 425.898438 443.683594 C 426.246094 444.140625 425.667969 444.835938 425.203125 444.371094 C 409.710938 425.527344 394.101562 406.6875 378.71875 387.726562 C 366.117188 372.234375 354.203125 355.585938 339.289062 342.175781 Z M 340.097656 348.304688 C 338.941406 346.800781 337.785156 345.414062 336.742188 343.910156 C 336.628906 344.023438 336.511719 344.140625 336.28125 344.257812 C 337.554688 345.527344 338.824219 346.914062 340.097656 348.304688 Z M 325.527344 340.671875 C 325.414062 340.554688 325.414062 340.441406 325.296875 340.324219 C 325.179688 340.441406 324.949219 340.441406 324.835938 340.554688 C 325.066406 340.671875 325.296875 340.671875 325.527344 340.671875 Z M 317.085938 338.363281 C 316.96875 338.363281 316.96875 338.589844 317.085938 338.589844 C 317.199219 338.589844 317.199219 338.363281 317.085938 338.363281 Z M 304.132812 337.785156 C 306.101562 337.785156 306.101562 334.777344 304.132812 334.777344 C 302.167969 334.777344 302.167969 337.785156 304.132812 337.785156 Z M 299.164062 343.792969 C 299.046875 343.5625 298.929688 343.445312 298.816406 343.214844 C 298.816406 343.332031 298.699219 343.332031 298.699219 343.445312 C 298.699219 343.5625 298.929688 343.679688 299.164062 343.792969 Z M 286.207031 324.605469 C 285.398438 324.605469 284.710938 325.183594 284.589844 325.875 L 284.472656 325.875 C 281.003906 325.875 281.003906 331.195312 284.472656 331.195312 C 286.445312 331.195312 287.367188 329.34375 287.023438 327.839844 C 287.023438 327.839844 287.136719 327.839844 287.136719 327.726562 C 288.410156 326.917969 288.0625 324.605469 286.207031 324.605469 Z M 290.257812 333.042969 C 290.257812 331.425781 288.757812 330.5 287.253906 330.730469 C 287.136719 330.730469 287.136719 330.730469 287.023438 330.730469 C 284.820312 331.078125 284.820312 334.777344 287.023438 335.242188 C 287.136719 335.242188 287.136719 335.242188 287.253906 335.242188 C 288.871094 335.589844 290.257812 334.777344 290.257812 333.042969 Z M 295.117188 341.132812 C 294.421875 339.976562 293.148438 339.863281 291.992188 340.324219 C 291.300781 340.671875 290.605469 341.019531 289.914062 341.367188 C 287.253906 342.867188 289.679688 347.03125 292.339844 345.527344 C 293.035156 345.179688 293.726562 344.71875 294.304688 344.257812 C 295.347656 343.5625 295.808594 342.289062 295.117188 341.132812 Z M 295.230469 334.664062 L 294.769531 334.316406 C 293.148438 333.277344 291.183594 334.664062 290.953125 336.28125 C 290.492188 335.589844 289.566406 335.242188 288.757812 335.472656 C 287.714844 335.703125 286.90625 336.976562 287.253906 338.011719 C 287.601562 338.9375 287.832031 339.515625 288.640625 340.09375 C 289.796875 340.789062 290.953125 340.09375 291.414062 338.9375 C 291.414062 338.820312 291.414062 338.820312 291.53125 338.710938 C 292.339844 339.746094 293.960938 340.210938 295.230469 339.515625 C 297.195312 338.480469 296.964844 335.820312 295.230469 334.664062 Z M 279.847656 325.527344 C 279.964844 325.527344 279.964844 325.296875 279.847656 325.296875 C 279.734375 325.414062 279.734375 325.527344 279.847656 325.527344 Z M 304.132812 351.773438 C 304.132812 351.539062 304.132812 351.308594 304.132812 351.195312 C 303.210938 351.195312 302.285156 351.078125 301.589844 351.078125 C 300.085938 350.960938 298.238281 350.382812 296.386719 349.691406 C 295.925781 355.703125 294.539062 361.714844 293.148438 367.722656 C 290.492188 378.941406 288.523438 390.15625 287.253906 401.597656 C 287.136719 402.871094 285.171875 402.871094 285.289062 401.597656 C 285.628906 392.117188 286.675781 382.753906 288.523438 373.390625 C 290.144531 365.296875 292.109375 357.4375 292.804688 349.460938 C 291.648438 349.574219 290.375 349.460938 289.21875 349.226562 C 286.328125 356.164062 282.855469 362.871094 279.964844 369.691406 C 275.222656 380.789062 270.714844 392.117188 266.4375 403.332031 C 258.34375 424.605469 251.175781 446.222656 244 467.84375 C 243.769531 468.769531 242.382812 468.300781 242.613281 467.492188 C 248.394531 444.835938 255.683594 422.753906 263.894531 400.90625 C 270.367188 383.796875 276.496094 364.722656 285.171875 348.070312 C 284.710938 347.957031 284.363281 347.726562 283.894531 347.492188 C 282.507812 347.148438 281.121094 346.453125 280.195312 345.414062 C 279.964844 345.296875 279.734375 345.066406 279.503906 344.949219 C 258.691406 380.675781 231.859375 413.855469 224.113281 455.355469 C 220.183594 476.050781 219.835938 497.320312 220.066406 518.363281 C 220.296875 536.859375 222.148438 552.582031 233.015625 567.960938 C 233.480469 568.652344 233.480469 569.460938 233.132812 570.15625 C 257.765625 584.953125 291.414062 490.617188 296.386719 475.472656 C 309.570312 434.894531 311.765625 393.851562 304.132812 351.773438 Z M 216.019531 461.714844 C 218.5625 444.71875 223.535156 428.996094 230.820312 413.96875 C 230.125 415.121094 229.433594 416.167969 228.738281 417.320312 C 228.738281 417.671875 228.738281 417.898438 228.507812 418.246094 C 222.378906 428.996094 217.523438 439.75 215.789062 452.234375 C 215.671875 453.160156 214.054688 452.929688 214.171875 452.003906 C 214.511719 445.644531 215.558594 439.171875 217.523438 433.042969 C 213.933594 437.785156 210.351562 442.527344 206.765625 447.378906 C 203.527344 474.199219 200.523438 500.328125 206.1875 527.148438 C 206.304688 527.839844 205.261719 528.1875 205.03125 527.496094 C 197.285156 503.449219 199.136719 477.898438 202.488281 453.160156 C 200.292969 456.164062 198.09375 459.171875 196.011719 462.179688 C 191.734375 479.402344 191.15625 496.511719 191.273438 514.316406 C 191.386719 524.71875 191.851562 535.242188 194.394531 545.417969 C 195.433594 549.460938 196.476562 555.933594 199.367188 559.054688 C 204.800781 564.835938 210.582031 563.101562 214.980469 557.4375 C 215.671875 556.511719 217.175781 556.28125 217.984375 556.859375 C 213.933594 547.261719 213.246094 535.820312 212.898438 525.992188 C 212.4375 504.488281 212.777344 482.871094 216.019531 461.714844 Z M 243.421875 391.660156 C 253.71875 375.007812 264.703125 358.476562 276.957031 343.214844 C 275.917969 342.289062 274.992188 341.25 274.066406 340.09375 C 261.925781 355.933594 252.792969 373.96875 243.421875 391.660156 Z M 207.34375 435.703125 C 232.4375 405.183594 245.273438 366.105469 272.566406 337.4375 C 271.871094 336.167969 271.410156 334.777344 271.0625 333.390625 L 270.945312 333.390625 C 270.253906 333.621094 269.558594 333.855469 268.863281 333.96875 C 258.34375 347.378906 248.046875 360.90625 237.988281 374.660156 C 237.296875 375.585938 235.90625 374.777344 236.484375 373.738281 C 245.390625 359.867188 255.105469 346.453125 265.28125 333.507812 C 264.816406 333.390625 264.472656 333.160156 264.007812 332.8125 C 240.1875 362.179688 213.476562 389.6875 185.722656 415.359375 C 184.914062 416.046875 183.871094 415.011719 184.566406 414.203125 C 210.703125 386.917969 235.90625 358.824219 261.234375 330.847656 C 260.191406 330.152344 259.152344 329.34375 258.113281 328.417969 C 257.648438 327.957031 257.300781 327.609375 256.839844 327.148438 C 240.070312 345.066406 219.488281 360.445312 200.984375 376.511719 C 182.484375 392.578125 163.867188 408.421875 145.25 424.488281 C 138.191406 430.5 130.675781 436.976562 122.816406 442.984375 C 123.625 443.5625 124.085938 444.601562 123.394531 445.527344 C 117.613281 453.042969 113.566406 461.136719 110.90625 470.269531 C 108.824219 477.320312 104.316406 489.808594 107.320312 497.320312 C 110.90625 491.890625 115.414062 486.917969 119.691406 482.175781 C 129.058594 472.003906 138.425781 461.945312 148.023438 452.003906 C 148.71875 451.195312 149.875 452.351562 149.179688 453.160156 C 135.648438 468.878906 120.847656 483.449219 109.402344 500.671875 C 109.519531 500.789062 109.632812 500.90625 109.632812 501.019531 C 111.136719 502.40625 110.675781 504.375 109.402344 505.414062 C 110.328125 506.453125 111.253906 507.265625 112.410156 507.84375 C 119.578125 505.644531 128.132812 495.238281 132.875 490.734375 C 139.234375 484.722656 145.480469 478.476562 151.609375 472.117188 C 163.75 459.402344 174.964844 445.875 185.953125 432.121094 C 186.648438 431.195312 188.152344 432.351562 187.457031 433.277344 C 175.660156 450.039062 162.476562 465.648438 148.257812 480.328125 C 140.972656 487.84375 133.453125 495.007812 125.589844 501.945312 C 122.816406 504.375 120.15625 507.378906 117.035156 509.34375 C 133.222656 512.234375 160.742188 492.003906 168.835938 484.488281 C 183.871094 470.5 194.164062 451.65625 207.34375 435.703125 Z M 250.132812 292.695312 C 250.25 292.117188 250.25 291.539062 250.359375 291.078125 C 250.480469 289.6875 249.09375 288.417969 247.707031 288.417969 C 246.3125 288.417969 244.925781 289.574219 245.042969 291.078125 C 245.042969 291.65625 245.15625 292.234375 245.273438 292.695312 C 245.734375 295.125 249.671875 295.125 250.132812 292.695312 Z M 245.851562 282.523438 C 245.96875 282.410156 245.96875 282.410156 245.851562 282.523438 C 245.851562 282.410156 245.851562 282.410156 245.851562 282.410156 C 245.15625 281.253906 244.695312 279.863281 244.578125 278.59375 C 231.398438 276.050781 218.796875 267.03125 208.152344 259.519531 C 194.511719 249.921875 181.328125 239.398438 166.523438 231.308594 C 165.601562 230.847656 166.410156 229.574219 167.335938 229.921875 C 181.792969 236.625 194.511719 245.644531 207.460938 254.664062 C 219.488281 262.984375 231.976562 268.765625 244.695312 275.355469 C 244.8125 274.429688 245.15625 273.390625 245.503906 272.464844 C 245.503906 272.347656 245.503906 272.347656 245.503906 272.234375 C 245.390625 263.675781 225.269531 253.273438 218.796875 248.648438 C 210.929688 243.101562 203.183594 237.433594 195.320312 232.003906 C 179.132812 220.558594 162.824219 209.230469 146.636719 197.78125 C 145.597656 197.089844 146.523438 195.355469 147.679688 196.046875 C 168.953125 209.578125 189.886719 223.679688 210.464844 238.242188 C 220.761719 245.527344 231.167969 252.8125 241.226562 260.328125 C 244.234375 262.519531 247.007812 264.71875 248.285156 267.609375 C 248.515625 267.261719 248.863281 266.800781 249.09375 266.453125 C 229.78125 248.535156 211.96875 229.230469 191.851562 212 C 169.992188 193.273438 146.289062 176.050781 120.503906 163.097656 C 119.578125 162.636719 120.386719 161.25 121.3125 161.710938 C 146.984375 173.738281 170.226562 189.34375 191.964844 207.496094 C 212.667969 224.835938 233.363281 243.5625 251.636719 263.675781 C 252.097656 263.214844 252.445312 262.867188 252.910156 262.519531 C 252.792969 261.25 253.140625 259.867188 253.832031 258.59375 C 253.71875 258.59375 253.601562 258.476562 253.488281 258.363281 C 228.390625 230.269531 203.527344 203.101562 174.15625 179.285156 C 158.777344 166.800781 142.707031 155.242188 126.167969 144.257812 C 109.75 133.386719 90.898438 119.285156 70.085938 122.292969 C 69.277344 122.40625 68.578125 122.292969 67.890625 121.945312 C 65.339844 126.453125 64.53125 131.421875 64.996094 136.742188 C 84.191406 162.058594 107.089844 187.03125 132.757812 205.761719 C 133.453125 206.222656 132.875 207.496094 132.066406 206.917969 C 118.191406 197.898438 105.933594 187.144531 94.367188 175.238281 C 84.886719 165.527344 74.59375 155.355469 66.382812 144.257812 C 69.964844 157.78125 79.453125 171.65625 85.8125 181.015625 C 97.835938 198.9375 113.332031 213.964844 131.253906 225.992188 C 166.640625 249.691406 206.765625 265.527344 245.851562 282.523438 Z M 243.65625 288.648438 C 238.566406 287.375 233.59375 285.878906 228.507812 284.144531 C 229.433594 284.953125 230.472656 285.878906 231.28125 286.796875 C 235.5625 287.261719 239.609375 287.953125 243.65625 288.648438 Z M 177.167969 259.75 C 176.121094 259.289062 175.195312 258.710938 174.273438 258.246094 C 169.53125 255.820312 164.789062 253.390625 160.050781 250.960938 C 131.253906 242.40625 100.84375 245.644531 71.242188 247.148438 C 70.316406 247.148438 70.085938 245.644531 71.011719 245.414062 C 87.082031 242.289062 103.96875 241.828125 120.386719 242.058594 C 127.554688 242.175781 136.921875 241.828125 145.480469 242.984375 C 139.816406 239.863281 134.378906 236.507812 128.941406 233.039062 C 112.292969 228.417969 92.632812 228.882812 76.097656 231.542969 C 66.613281 233.039062 57.246094 236.394531 50.078125 242.984375 C 44.296875 248.304688 42.214844 254.199219 40.597656 260.902344 C 44.644531 259.050781 48.691406 257.554688 52.855469 256.28125 C 74.710938 249.691406 97.953125 250.269531 120.386719 252.117188 C 139.347656 253.738281 158.546875 255.820312 177.167969 259.75 Z M 250.359375 280.210938 C 250.25 280.210938 250.25 280.441406 250.359375 280.441406 C 250.480469 280.441406 250.480469 280.210938 250.359375 280.210938 Z M 252.792969 275.007812 C 254.410156 274.316406 254.527344 272.234375 254.296875 270.730469 C 254.066406 269.457031 252.5625 268.878906 251.519531 269.113281 C 250.25 269.457031 249.671875 270.730469 249.902344 271.886719 C 250.019531 272.464844 249.78125 273.160156 250.019531 273.738281 C 250.359375 275.125 251.753906 275.472656 252.792969 275.007812 Z M 258.457031 261.363281 C 258.34375 261.363281 258.34375 261.601562 258.457031 261.601562 C 258.574219 261.601562 258.574219 261.363281 258.457031 261.363281 Z M 269.558594 248.1875 C 267.941406 248.1875 266.4375 249.574219 266.550781 251.195312 C 266.667969 252.8125 267.941406 254.199219 269.558594 254.199219 C 271.175781 254.199219 272.679688 252.8125 272.566406 251.195312 C 272.566406 249.574219 271.292969 248.1875 269.558594 248.1875 Z M 116.917969 130.84375 C 118.304688 131.769531 119.808594 132.695312 121.195312 133.617188 C 134.144531 142.058594 146.753906 150.960938 159.007812 160.324219 C 153.460938 152.234375 148.835938 143.679688 145.367188 134.773438 C 144.902344 133.734375 146.636719 133.039062 147.214844 133.964844 C 154.617188 147.726562 163.054688 159.863281 173 171.308594 C 190.464844 185.410156 207.921875 200.789062 223.652344 217.550781 C 219.140625 211.191406 214.632812 204.835938 210.234375 198.59375 C 198.324219 181.714844 186.996094 163.5625 171.265625 149.921875 C 170.457031 149.226562 171.613281 148.070312 172.421875 148.765625 C 188.265625 161.25 199.480469 177.667969 211.160156 193.851562 C 224.808594 212.808594 238.683594 231.773438 252.097656 250.960938 C 252.5625 251.539062 252.445312 252.117188 252.214844 252.582031 C 253.023438 253.851562 253.949219 255.125 254.757812 256.398438 C 256.839844 253.042969 260.078125 249.804688 261.925781 248.304688 C 264.125 246.453125 267.363281 244.140625 270.832031 242.523438 C 271.410156 241.597656 271.988281 240.789062 272.679688 240.09375 C 272.101562 240.210938 271.410156 240.09375 270.714844 239.632812 C 270.832031 241.945312 268.632812 244.371094 266.207031 242.636719 C 249.441406 230.964844 235.675781 211.652344 224 195.007812 C 211.28125 176.859375 202.488281 156.160156 189.539062 138.242188 C 182.832031 129.113281 174.734375 121.136719 167.914062 112 C 161.554688 103.558594 157.042969 94.082031 150.914062 85.640625 C 147.5625 81.015625 142.128906 75.816406 135.535156 77.320312 C 134.492188 77.546875 133.453125 78.125 132.410156 78.703125 C 132.179688 90.035156 134.03125 100.558594 137.382812 111.308594 C 137.730469 112.464844 135.878906 113.273438 135.417969 112.117188 C 131.140625 102.523438 129.175781 92.117188 129.058594 81.59375 C 128.363281 82.40625 127.785156 83.214844 127.207031 83.90625 C 123.625 88.648438 121.3125 94.082031 119.691406 99.863281 C 116.917969 110.035156 117.035156 120.441406 116.917969 130.84375 Z M 173.695312 108.878906 C 181.445312 118.476562 190.347656 127.03125 197.402344 137.203125 C 205.03125 148.304688 210.8125 160.554688 217.640625 172.117188 C 224.691406 184.023438 232.671875 195.46875 241.34375 206.222656 C 243.191406 208.53125 245.15625 210.84375 247.238281 213.042969 C 241.804688 202.175781 236.253906 191.421875 230.472656 180.789062 C 222.378906 166.105469 213.933594 151.539062 207.574219 135.929688 C 207.230469 135.007812 208.730469 134.429688 209.078125 135.238281 C 212.898438 142.984375 216.945312 150.617188 221.109375 158.242188 C 215.210938 145.296875 210.003906 132.121094 205.839844 118.589844 C 202.835938 108.878906 200.058594 96.859375 202.605469 86.796875 C 196.359375 83.214844 187.339844 85.640625 182.484375 90.5 C 184.914062 105.871094 190.347656 120.324219 198.789062 133.386719 C 199.25 134.195312 198.09375 134.773438 197.632812 134.082031 C 188.730469 121.828125 182.832031 108.300781 179.941406 93.621094 C 176.699219 98.015625 175.433594 103.449219 173.695312 108.878906 Z M 207.34375 98.246094 C 208.730469 115.699219 217.292969 133.851562 224.460938 149.691406 C 237.988281 179.75 252.332031 209.917969 274.414062 234.664062 C 275.222656 235.589844 275.339844 236.855469 274.878906 237.898438 C 276.035156 237.085938 277.304688 236.394531 278.578125 235.816406 C 265.859375 221.714844 258.34375 201.945312 251.636719 184.71875 C 243.078125 162.40625 235.5625 139.632812 223.1875 119.054688 C 222.609375 118.011719 224.113281 117.203125 224.691406 118.128906 C 237.179688 136.164062 244.695312 156.628906 252.445312 176.972656 C 256.609375 187.953125 261.003906 199.054688 266.320312 209.578125 C 270.367188 217.550781 275.339844 224.605469 280.425781 231.773438 C 268.285156 209.339844 259.152344 185.527344 253.140625 160.785156 C 252.675781 161.019531 251.984375 160.902344 251.753906 160.441406 C 249.902344 157.316406 249.09375 153.507812 247.9375 150.039062 C 246.660156 146.105469 244.8125 142.289062 243.886719 138.359375 C 243.65625 137.433594 244.925781 136.972656 245.390625 137.664062 C 247.585938 140.902344 248.863281 144.835938 250.359375 148.535156 C 250.480469 148.648438 250.480469 148.882812 250.597656 148.996094 C 248.285156 137.433594 246.660156 125.761719 245.734375 114.082031 C 244.925781 104.375 244.695312 94.660156 244.8125 84.949219 C 240.996094 77.667969 233.710938 72.925781 225.847656 73.273438 C 227.929688 75.472656 229.546875 78.125 231.050781 80.554688 C 234.867188 86.796875 237.757812 93.503906 239.953125 100.558594 C 240.417969 101.945312 238.335938 102.523438 237.875 101.136719 C 234.636719 91.308594 229.894531 80.671875 221.6875 73.96875 C 220.414062 74.316406 219.140625 74.777344 217.871094 75.472656 C 209.308594 79.859375 206.652344 89.109375 207.34375 98.246094 Z M 282.855469 244.023438 C 282.160156 243.332031 281.351562 243.101562 280.425781 243.101562 C 278.925781 243.101562 277.535156 244.371094 277.652344 245.875 C 277.652344 246.453125 277.882812 247.03125 278.230469 247.492188 C 277.304688 246.453125 275.800781 246.453125 274.761719 247.378906 C 274.183594 247.957031 273.605469 248.417969 273.144531 249.113281 C 272.21875 250.617188 273.835938 252.8125 275.570312 252.234375 C 276.378906 252.003906 276.957031 251.539062 277.652344 251.078125 C 278.808594 250.382812 279.15625 248.882812 278.460938 247.839844 C 278.925781 248.417969 279.617188 248.765625 280.425781 248.765625 C 281.351562 248.765625 282.160156 248.535156 282.855469 247.839844 C 283.78125 246.683594 283.78125 245.066406 282.855469 244.023438 Z M 320.4375 247.378906 C 320.667969 247.378906 321.019531 247.261719 321.246094 247.261719 C 322.175781 247.03125 322.175781 245.644531 321.246094 245.414062 C 321.019531 245.414062 320.667969 245.296875 320.4375 245.296875 C 318.703125 244.835938 318.703125 247.726562 320.4375 247.378906 Z M 320.210938 241.480469 C 320.320312 241.480469 320.320312 241.25 320.210938 241.25 C 320.089844 241.25 320.089844 241.480469 320.210938 241.480469 Z M 328.304688 247.492188 C 329.574219 247.609375 331.195312 247.492188 331.425781 245.992188 C 331.65625 244.371094 330.039062 243.792969 328.882812 243.214844 C 327.609375 242.753906 326.335938 243.910156 326.222656 245.066406 C 325.992188 246.453125 326.914062 247.378906 328.304688 247.492188 Z M 328.648438 240.324219 C 329.691406 240.324219 329.691406 238.707031 328.648438 238.707031 C 327.609375 238.820312 327.609375 240.324219 328.648438 240.324219 Z M 332.695312 248.1875 C 330.847656 248.1875 329.804688 250.617188 331.195312 251.886719 C 331.308594 252.003906 331.539062 252.234375 331.65625 252.351562 C 332.234375 252.929688 333.273438 252.929688 333.851562 252.351562 C 333.96875 252.234375 334.199219 252.003906 334.316406 251.886719 C 335.585938 250.5 334.546875 248.1875 332.695312 248.1875 Z M 334.429688 248.304688 C 335.355469 248.765625 336.28125 249.226562 337.089844 249.691406 C 338.246094 250.269531 339.519531 249.921875 340.097656 248.648438 C 340.558594 247.492188 339.980469 246.222656 338.710938 245.875 C 337.785156 245.527344 336.742188 245.179688 335.820312 244.949219 C 333.96875 244.257812 332.582031 247.378906 334.429688 248.304688 Z M 336.28125 243.910156 C 336.164062 243.910156 336.164062 244.140625 336.28125 244.140625 C 336.398438 244.140625 336.398438 243.910156 336.28125 243.910156 Z M 335.472656 233.855469 C 335.703125 233.964844 335.820312 234.085938 335.933594 234.316406 C 336.628906 234.085938 337.320312 233.855469 338.015625 233.738281 C 340.210938 222.871094 344.027344 212 347.035156 201.367188 C 350.386719 189.6875 353.972656 178.015625 357.792969 166.453125 C 365.308594 143.792969 374.324219 121.945312 385.425781 100.789062 C 385.886719 99.980469 387.042969 100.671875 386.699219 101.484375 C 375.945312 123.679688 367.273438 147.03125 359.757812 170.613281 C 353.277344 191.078125 349.117188 212.808594 342.0625 233.160156 C 342.523438 233.160156 343.101562 233.160156 343.566406 233.160156 C 348.191406 224.140625 352.929688 215.238281 356.398438 205.644531 C 360.683594 194.082031 364.035156 182.519531 371.433594 172.464844 C 372.011719 171.769531 373.285156 172.464844 372.707031 173.160156 C 364.730469 185.0625 362.300781 198.9375 357.214844 212 C 354.320312 219.402344 350.964844 226.800781 347.265625 233.964844 C 347.726562 234.195312 348.191406 234.433594 348.769531 234.664062 C 348.882812 234.773438 349 234.773438 349.117188 234.890625 C 352.007812 227.839844 356.863281 221.945312 361.492188 215.816406 C 367.621094 207.726562 372.9375 199.054688 377.792969 190.152344 C 387.507812 172.234375 395.488281 153.390625 405.203125 135.351562 C 415.375 116.511719 427.285156 98.824219 437.117188 79.746094 C 446.945312 60.671875 456.773438 39.863281 446.714844 19.980469 C 444.519531 33.964844 436.308594 48.304688 429.945312 60.785156 C 429.597656 61.363281 428.789062 60.902344 429.019531 60.324219 C 432.609375 52.691406 435.847656 44.71875 438.738281 36.742188 C 441.050781 30.613281 442.550781 24.027344 445.675781 18.246094 C 445.328125 17.667969 444.980469 17.089844 444.632812 16.511719 C 444.171875 17.433594 443.363281 18.128906 441.972656 18.011719 C 418.84375 16.625 400.921875 35.585938 388.664062 53.160156 C 377.449219 69.34375 369.816406 87.609375 363.804688 106.21875 C 350.617188 147.492188 343.335938 191.308594 335.472656 233.855469 Z M 353.625 245.527344 C 353.277344 245.644531 352.929688 245.757812 352.585938 245.992188 C 351.3125 246.914062 351.3125 248.417969 352.585938 249.34375 C 352.929688 249.574219 353.164062 249.691406 353.625 249.804688 C 355.011719 250.152344 356.398438 249.113281 356.398438 247.726562 C 356.398438 246.105469 355.011719 245.179688 353.625 245.527344 Z M 356.058594 260.207031 C 356.167969 260.207031 356.167969 259.976562 356.058594 259.976562 C 355.820312 260.097656 355.820312 260.207031 356.058594 260.207031 Z M 353.277344 267.609375 C 353.277344 268.070312 353.394531 268.417969 353.742188 268.765625 C 354.203125 269.226562 354.78125 269.34375 355.359375 269.226562 L 355.476562 269.226562 C 355.589844 269.226562 355.707031 269.226562 355.9375 269.226562 C 359.058594 269.226562 359.058594 264.488281 355.9375 264.488281 C 354.550781 264.488281 353.855469 265.410156 353.625 266.453125 C 353.394531 266.800781 353.164062 267.144531 353.277344 267.609375 Z M 353.394531 258.132812 C 353.742188 257.4375 353.394531 256.398438 352.816406 255.820312 L 352.585938 255.585938 C 352.585938 255.242188 352.585938 254.894531 352.351562 254.546875 C 351.660156 253.621094 351.082031 252.8125 350.273438 252.003906 C 348.539062 250.152344 345.648438 253.042969 347.496094 254.777344 C 347.726562 255.007812 347.960938 255.242188 348.191406 255.472656 C 347.726562 256.28125 347.726562 257.320312 348.539062 258.246094 C 348.882812 258.59375 349.117188 258.824219 349.460938 259.171875 C 350.273438 259.976562 351.3125 259.976562 352.351562 259.519531 C 352.929688 259.289062 353.164062 258.59375 353.394531 258.132812 Z M 346.109375 264.371094 C 348.652344 264.371094 348.652344 260.445312 346.109375 260.445312 C 343.566406 260.445312 343.566406 264.371094 346.109375 264.371094 Z M 343.449219 251.65625 C 345.761719 251.65625 345.761719 248.070312 343.449219 248.070312 C 341.136719 248.070312 341.136719 251.65625 343.449219 251.65625 Z M 341.253906 245.992188 C 341.367188 245.992188 341.367188 245.757812 341.253906 245.757812 C 341.136719 245.757812 341.136719 245.992188 341.253906 245.992188 Z M 339.402344 251.773438 C 336.164062 251.773438 336.164062 256.859375 339.402344 256.859375 C 342.640625 256.859375 342.757812 251.773438 339.402344 251.773438 Z M 351.082031 273.390625 C 351.890625 273.160156 352.585938 272.464844 352.585938 271.539062 C 352.585938 270.730469 352.351562 269.921875 352.238281 269.113281 C 352.007812 267.957031 350.734375 267.378906 349.695312 267.609375 C 349.460938 267.722656 349.347656 267.722656 349.117188 267.839844 C 348.882812 267.261719 348.652344 266.800781 348.421875 266.335938 C 347.382812 263.792969 343.679688 265.988281 344.722656 268.535156 C 345.300781 269.921875 345.878906 271.425781 346.339844 272.8125 C 346.804688 274.199219 346.917969 275.703125 348.074219 276.742188 C 349.117188 277.667969 350.617188 277.320312 351.082031 275.933594 C 351.429688 275.007812 351.3125 274.199219 351.082031 273.390625 Z M 355.820312 260.902344 C 355.011719 261.710938 355.359375 263.097656 356.515625 263.445312 C 356.636719 263.445312 356.746094 263.445312 356.746094 263.5625 C 357.792969 263.910156 358.832031 262.867188 358.480469 261.828125 C 358.480469 261.710938 358.480469 261.601562 358.371094 261.601562 C 358.023438 260.445312 356.636719 259.976562 355.820312 260.902344 Z M 361.027344 271.769531 C 361.492188 272.003906 361.953125 272.234375 362.417969 272.347656 C 363.109375 272.582031 363.917969 271.769531 363.6875 271.078125 C 363.574219 270.613281 363.339844 270.152344 363.109375 269.691406 C 362.648438 268.765625 361.375 268.765625 360.683594 269.34375 C 360.105469 270.035156 360.105469 271.425781 361.027344 271.769531 Z M 365.886719 268.648438 C 368.199219 268.648438 368.199219 265.066406 365.886719 265.066406 C 363.574219 265.066406 363.574219 268.648438 365.886719 268.648438 Z M 194.742188 302.40625 C 192.777344 302.292969 190.808594 302.0625 188.960938 301.945312 C 173.695312 303.449219 158.894531 305.992188 144.324219 311.425781 C 127.785156 317.550781 113.910156 326.570312 99.6875 336.628906 C 98.644531 337.324219 97.488281 335.703125 98.414062 334.894531 C 117.265625 316.972656 144.210938 304.605469 170.917969 299.980469 C 159.820312 298.707031 148.835938 297.320312 138.078125 296.511719 C 117.84375 299.863281 98.875 319.054688 85.925781 333.160156 C 78.179688 341.597656 71.125 350.5 64.761719 360.097656 C 61.410156 365.179688 49.269531 380.210938 52.855469 387.496094 C 58.980469 381.367188 65.457031 375.703125 72.050781 370.152344 C 90.667969 354.546875 110.097656 339.167969 131.023438 326.800781 C 140.503906 321.136719 150.453125 316.277344 160.742188 312.351562 C 171.84375 308.1875 183.410156 305.644531 194.742188 302.40625 Z M 461.050781 182.0625 C 474.46875 172.8125 488.34375 164.023438 502.339844 156.28125 C 518.640625 147.261719 536.910156 142.523438 554.953125 138.476562 C 562.929688 136.625 571.484375 135.238281 579.816406 135.699219 C 580.507812 126.222656 581.203125 115.585938 572.988281 109.804688 C 563.855469 103.332031 552.175781 103.558594 541.886719 106.449219 C 532.980469 108.996094 524.074219 112.464844 516.214844 117.433594 C 509.390625 121.714844 505.574219 127.839844 500.253906 133.039062 C 493.894531 142.175781 487.1875 151.195312 480.132812 159.863281 C 497.941406 147.261719 517.023438 136.046875 535.636719 125.644531 C 536.453125 125.183594 537.140625 126.339844 536.332031 126.917969 C 521.878906 135.699219 507.65625 145.179688 493.894531 154.894531 C 485.222656 161.019531 476.898438 167.609375 468.457031 174.082031 C 465.914062 176.628906 463.480469 179.402344 461.050781 182.0625 Z M 625.144531 365.527344 C 625.953125 378.707031 618.785156 393.042969 605.484375 396.972656 C 602.015625 398.015625 599.820312 392.8125 603.054688 391.191406 C 605.484375 389.925781 607.566406 388.421875 609.414062 386.800781 C 603.289062 383.332031 597.507812 378.707031 591.722656 374.660156 C 590.683594 373.96875 591.609375 372.234375 592.765625 372.925781 C 599.007812 376.742188 605.714844 380.210938 611.386719 384.722656 C 613.929688 381.832031 615.664062 378.476562 616.589844 374.894531 C 600.628906 365.179688 585.363281 356.742188 567.671875 350.039062 C 566.515625 349.574219 566.976562 347.726562 568.25 348.070312 C 585.25 352.464844 603.054688 360.210938 617.398438 370.960938 C 618.207031 363.675781 616.242188 355.820312 611.847656 348.882812 C 602.476562 334.199219 586.175781 324.605469 570.675781 317.550781 C 538.648438 302.871094 503.835938 295.125 471.695312 280.789062 C 470.191406 281.019531 468.6875 281.253906 467.300781 281.597656 C 452.957031 284.144531 438.738281 287.375 424.742188 291.308594 C 410.75 295.125 396.992188 300.558594 382.882812 303.910156 C 382.882812 304.257812 382.882812 304.71875 382.765625 305.066406 C 402.773438 299.863281 423.238281 297.898438 443.824219 296.394531 C 444.75 296.28125 444.980469 297.898438 444.054688 298.128906 C 423.816406 301.019531 403.929688 303.5625 384.152344 308.304688 C 406.589844 307.609375 429.140625 308.765625 451.457031 310.5 C 469.148438 311.890625 490.773438 310.847656 505.808594 321.945312 C 506.5 322.40625 505.808594 323.5625 505.113281 323.101562 C 488.574219 311.890625 463.25 314.199219 444.054688 313.15625 C 423.355469 312 402.65625 311.542969 381.957031 312 C 382.1875 313.046875 381.03125 314.082031 379.992188 313.503906 C 379.527344 313.273438 379.183594 313.046875 378.71875 312.925781 C 378.027344 313.625 377.214844 314.199219 376.40625 314.777344 C 376.058594 315.238281 375.714844 315.699219 375.367188 316.164062 C 392.363281 316.394531 409.25 317.550781 426.128906 319.980469 C 443.59375 322.523438 464.058594 324.371094 478.515625 335.355469 C 479.09375 335.820312 478.515625 336.859375 477.9375 336.398438 C 462.324219 325.875 440.472656 324.71875 422.3125 322.523438 C 406.011719 320.558594 389.703125 319.746094 373.285156 319.632812 C 373.167969 319.863281 373.054688 320.09375 372.9375 320.210938 C 391.4375 324.949219 410.40625 328.882812 428.09375 336.050781 C 434.34375 338.589844 440.355469 341.710938 446.019531 345.179688 C 472.039062 347.03125 498.75 355.007812 523.84375 361.484375 C 536.101562 364.601562 548.824219 367.492188 560.5 372.347656 C 573.796875 377.898438 581.433594 389.109375 596.695312 390.035156 C 599.125 390.15625 600.742188 393.96875 598.085938 395.125 C 588.371094 399.402344 579.351562 393.734375 571.601562 387.84375 C 559.113281 378.363281 545.46875 374.660156 530.550781 370.382812 C 516.328125 366.453125 502.101562 362.871094 487.648438 359.519531 C 477.476562 357.089844 467.070312 355.242188 456.890625 352.464844 C 463.480469 357.320312 469.613281 362.640625 475.507812 368.300781 C 491.117188 383.679688 504.074219 401.597656 516.097656 419.980469 C 526.386719 435.472656 540.5 452.695312 540.730469 472.117188 C 540.730469 476.628906 534.136719 476.511719 533.789062 472.117188 C 532.167969 451.773438 516.214844 432.8125 505.230469 416.394531 C 494.007812 399.75 481.984375 383.679688 467.300781 369.921875 C 452.378906 355.820312 435.035156 344.835938 415.609375 338.011719 C 407.515625 335.125 399.304688 332.8125 391.089844 330.5 C 411.214844 339.398438 430.644531 350.382812 448.679688 362.292969 C 449.375 362.757812 448.796875 363.796875 447.988281 363.335938 C 421.96875 348.304688 395.027344 336.28125 367.386719 325.183594 C 366.347656 325.761719 365.191406 326.222656 364.035156 326.453125 C 364.152344 326.453125 364.152344 326.453125 364.265625 326.453125 C 393.402344 340.902344 421.273438 358.476562 446.714844 378.59375 C 468.457031 395.703125 487.996094 415.589844 498.054688 441.710938 C 498.402344 442.527344 497.132812 442.757812 496.785156 442.058594 C 485.453125 414.78125 463.480469 394.429688 440.238281 377.089844 C 415.722656 358.824219 389.703125 343.214844 362.53125 329.230469 C 361.375 328.652344 361.605469 327.378906 362.300781 326.800781 C 361.722656 326.917969 361.144531 326.917969 360.566406 326.917969 C 360.914062 329.230469 359.410156 331.542969 357.09375 333.507812 C 367.621094 339.058594 377.792969 346.570312 387.390625 353.042969 C 400.460938 361.832031 412.832031 371.308594 424.972656 381.253906 C 425.4375 381.714844 424.742188 382.523438 424.28125 382.175781 C 411.792969 372.925781 398.957031 364.023438 385.886719 355.585938 C 375.480469 348.765625 363.804688 343.101562 353.394531 336.28125 C 352.46875 336.859375 351.542969 337.4375 350.734375 337.902344 C 359.640625 350.269531 372.707031 360.90625 384.152344 370.382812 C 384.847656 370.960938 383.921875 372.117188 383.230469 371.539062 C 375.25 365.527344 367.621094 359.402344 360.335938 352.464844 C 357.445312 349.691406 354.085938 346.800781 351.195312 343.5625 C 360.335938 358.824219 375.25 371.886719 388.085938 382.988281 C 403.121094 396.046875 419.191406 407.84375 434.574219 420.441406 C 450.300781 433.390625 464.058594 447.492188 477.476562 462.757812 C 487.417969 474.199219 511.589844 499.054688 528.585938 490.964844 C 513.554688 483.332031 500.375 472.117188 488.460938 460.445312 C 482.679688 454.777344 476.550781 448.882812 471.578125 442.289062 C 466.492188 435.703125 463.710938 427.148438 456.425781 422.523438 C 455.734375 422.058594 456.3125 421.019531 457.121094 421.367188 C 462.785156 424.488281 465.792969 428.996094 469.148438 434.316406 C 473.773438 441.601562 479.902344 447.609375 486.03125 453.621094 C 499.789062 467.265625 514.480469 478.824219 531.128906 488.769531 C 531.246094 488.882812 531.359375 489 531.476562 489.113281 C 533.324219 487.726562 535.058594 485.878906 536.679688 483.332031 C 538.066406 481.253906 541.421875 482.523438 540.730469 485.066406 C 535.984375 502.640625 518.757812 500.789062 504.882812 494.550781 C 511.011719 501.019531 505.34375 512.699219 498.289062 516.746094 C 485.683594 523.910156 470.882812 516.515625 460.472656 508.882812 C 434.226562 489.460938 412.023438 466.109375 392.941406 439.867188 C 395.136719 445.527344 397.109375 451.308594 398.84375 457.207031 C 405.085938 478.128906 408.4375 500.210938 406.820312 522.058594 C 406.011719 533.507812 402.890625 557.898438 385.425781 552.117188 C 382.765625 551.195312 383.113281 546.683594 386.121094 547.03125 C 386.464844 547.03125 386.929688 547.03125 387.277344 547.03125 C 385.078125 536.628906 381.839844 526.339844 376.984375 516.746094 C 376.636719 516.050781 377.679688 515.472656 378.027344 516.167969 C 383.691406 525.761719 387.855469 535.820312 390.050781 546.683594 C 405.316406 542.757812 401.15625 504.027344 400 493.046875 C 398.03125 475.007812 393.0625 457.207031 386.582031 440.328125 C 379.761719 422.636719 370.855469 405.761719 361.144531 389.578125 C 352.238281 374.777344 341.253906 361.136719 332.351562 346.453125 C 331.308594 346.800781 330.269531 347.148438 329.113281 347.261719 C 328.882812 347.261719 328.648438 347.378906 328.417969 347.378906 C 363.109375 385.183594 372.707031 440.675781 387.390625 488.304688 C 387.621094 489.113281 386.351562 489.460938 386.121094 488.652344 C 368.890625 439.75 359.640625 385.878906 323.5625 347.261719 C 321.945312 347.03125 320.320312 346.683594 318.816406 346.105469 C 318.355469 346.800781 317.894531 347.378906 317.199219 347.957031 C 325.066406 358.824219 331.308594 371.539062 337.667969 383.101562 C 338.132812 383.910156 336.976562 384.605469 336.398438 383.796875 C 329.113281 372.8125 320.550781 361.484375 314.539062 349.574219 C 313.847656 349.921875 313.152344 350.269531 312.460938 350.5 C 328.417969 387.84375 344.144531 425.183594 360.335938 462.410156 C 360.566406 462.988281 359.757812 463.566406 359.410156 462.988281 C 341.367188 426.339844 324.257812 389 309.105469 351.078125 C 308.992188 351.078125 308.757812 351.078125 308.644531 350.960938 C 307.949219 351.078125 307.257812 351.078125 306.5625 351.195312 C 312.460938 367.492188 315.117188 384.605469 315.234375 401.945312 C 319.742188 417.550781 330.847656 430.5 335.242188 446.453125 C 335.472656 447.261719 334.316406 447.492188 334.085938 446.800781 C 329.691406 433.96875 320.667969 422.871094 315.234375 410.5 C 315.003906 418.359375 314.195312 426.222656 313.039062 433.96875 C 321.714844 452.695312 331.773438 470.730469 341.601562 488.882812 C 346.109375 497.203125 350.503906 505.644531 355.707031 513.507812 C 361.375 522.175781 368.429688 528.882812 375.019531 536.746094 C 376.871094 539.058594 374.558594 542.640625 371.78125 541.023438 C 355.828125 531.542969 345.996094 510.386719 338.015625 494.550781 C 329.34375 477.089844 318.585938 459.632812 311.996094 441.132812 C 308.644531 460.328125 302.976562 479.054688 296.039062 496.511719 C 287.253906 518.710938 276.613281 540.558594 264.007812 560.90625 C 256.261719 573.503906 240.996094 585.761719 227.003906 573.96875 C 225.386719 572.585938 225.847656 570.734375 227.003906 569.695312 C 223.421875 566.570312 220.761719 562.757812 218.796875 558.59375 C 218.21875 566.226562 210.121094 571.082031 202.835938 569.578125 C 192.199219 567.265625 188.960938 553.042969 187.109375 544.027344 C 184.105469 529.34375 184.796875 514.085938 185.375 499.171875 C 185.722656 490.617188 186.183594 481.714844 188.152344 473.160156 C 176.46875 488.304688 163.054688 501.136719 145.132812 509.578125 C 133.335938 515.242188 111.714844 521.480469 103.507812 509 C 102.808594 509 102.113281 508.304688 102.351562 507.496094 C 102.351562 507.378906 102.460938 507.265625 102.460938 507.265625 C 101.652344 505.644531 101.074219 503.910156 100.726562 501.828125 C 100.613281 501.484375 100.613281 501.136719 100.726562 500.789062 C 97.605469 494.082031 100.613281 484.488281 102.460938 477.550781 C 105.003906 467.613281 108.363281 457.554688 114.605469 449.460938 C 92.285156 464.953125 67.082031 475.472656 40.136719 464.835938 C 37.707031 463.914062 38.632812 460.097656 41.175781 460.90625 C 86.042969 474.777344 122.816406 436.511719 153.460938 409.921875 C 170.570312 395.125 187.6875 380.210938 204.683594 365.296875 C 220.644531 351.308594 236.023438 335.589844 253.140625 322.984375 C 251.519531 320.210938 250.480469 317.320312 250.359375 314.082031 C 250.019531 314.082031 249.78125 313.964844 249.441406 313.851562 C 238.796875 327.726562 224.34375 338.242188 208.730469 345.757812 C 207.691406 346.222656 206.765625 344.71875 207.808594 344.257812 C 223.074219 336.050781 235.214844 324.949219 246.546875 312.230469 C 245.503906 311.3125 244.8125 310.039062 244.234375 308.652344 C 234.984375 317.433594 221.917969 323.101562 211.738281 330.152344 C 195.898438 341.132812 180.980469 353.273438 166.988281 366.453125 C 166.0625 367.378906 164.675781 365.988281 165.601562 365.070312 C 177.507812 353.390625 190.117188 342.40625 203.527344 332.351562 C 210.582031 327.03125 217.871094 321.945312 225.269531 317.203125 C 231.515625 313.15625 237.875 309.578125 243.191406 304.605469 C 243.078125 303.5625 242.960938 302.523438 242.84375 301.484375 C 222.496094 310.964844 202.257812 318.824219 183.179688 330.847656 C 163.171875 343.445312 145.480469 358.710938 128.019531 374.546875 C 127.324219 375.125 126.398438 374.199219 126.976562 373.503906 C 142.238281 356.164062 160.976562 341.480469 180.289062 328.996094 C 195.898438 318.9375 213.355469 308.652344 231.398438 302.0625 C 221.570312 303.449219 211.507812 303.5625 201.332031 303.101562 C 201.214844 303.332031 201.101562 303.5625 200.753906 303.796875 C 191.734375 308.304688 182.136719 310.847656 172.652344 313.964844 C 162.015625 317.433594 151.957031 322.058594 142.238281 327.496094 C 124.433594 337.4375 108.246094 349.921875 92.402344 362.757812 C 80.609375 372.234375 27.066406 415.472656 25.5625 441.601562 C 29.378906 437.089844 34.695312 433.042969 38.515625 429.460938 C 44.761719 423.679688 51.234375 418.128906 57.941406 412.929688 C 72.167969 401.828125 87.3125 392.347656 103.386719 384.027344 C 104.316406 383.566406 105.003906 384.835938 104.195312 385.414062 C 89.394531 393.503906 75.289062 402.753906 62.105469 413.046875 C 55.511719 418.246094 49.152344 423.5625 42.910156 429.34375 C 40.597656 431.425781 29.148438 440.558594 25.910156 445.757812 C 26.140625 447.378906 26.71875 448.765625 27.527344 450.152344 C 34.695312 442.179688 42.679688 434.894531 51.234375 428.417969 C 52.042969 427.839844 53.085938 429.230469 52.277344 429.808594 C 43.949219 436.746094 36.320312 444.371094 29.148438 452.464844 C 30.648438 454.199219 32.621094 455.703125 35.164062 456.976562 C 37.128906 457.898438 36.203125 461.367188 34.007812 461.136719 C 29.957031 460.789062 26.949219 459.402344 24.753906 457.554688 C 24.523438 457.898438 24.175781 458.246094 23.945312 458.59375 C 22.789062 459.980469 20.820312 458.015625 21.976562 456.628906 C 22.324219 456.28125 22.554688 455.933594 22.902344 455.472656 C 16.542969 446.570312 21.746094 429.808594 26.71875 420.789062 C 32.5 410.5 39.789062 401.25 47.882812 392.695312 C 42.5625 387.84375 46.378906 378.707031 49.386719 372.925781 C 56.089844 360.097656 64.648438 348.1875 74.132812 337.324219 C 87.3125 322.175781 105.472656 303.332031 126.050781 296.511719 C 107.667969 295.816406 89.28125 295.46875 70.894531 295.703125 C 60.371094 295.816406 51.582031 297.78125 42.332031 302.753906 C 36.203125 305.992188 30.535156 309.578125 23.710938 311.074219 C 21.863281 311.425781 20.476562 308.765625 22.324219 307.84375 C 36.203125 301.019531 48.113281 290.960938 63.953125 289.6875 C 83.265625 288.070312 103.160156 289.109375 122.46875 289.574219 C 142.589844 290.035156 162.363281 291.769531 182.371094 293.96875 C 202.488281 296.164062 222.378906 297.4375 242.382812 293.390625 C 242.613281 293.390625 242.84375 293.273438 242.960938 293.273438 C 242.960938 293.042969 242.960938 292.695312 243.078125 292.347656 C 228.390625 290.960938 213.824219 288.648438 199.25 286.6875 C 182.949219 284.488281 166.0625 282.871094 149.992188 279.054688 C 149.296875 278.941406 149.414062 277.785156 150.222656 277.785156 C 166.757812 278.246094 183.410156 281.136719 199.828125 283.21875 C 208.847656 284.375 217.871094 285.414062 226.890625 286.566406 C 207.921875 273.621094 184.914062 273.738281 162.59375 274.082031 C 149.414062 274.316406 136.34375 274.546875 123.160156 274.777344 C 110.210938 275.007812 96.5625 276.164062 83.730469 274.546875 C 83.265625 274.429688 82.921875 273.621094 83.613281 273.503906 C 97.605469 271.078125 112.640625 271.886719 126.746094 271.539062 C 141.320312 271.191406 155.886719 270.730469 170.457031 270.5 C 180.171875 270.382812 190.578125 270.5 200.523438 272.234375 C 195.550781 269.691406 190.578125 267.144531 185.722656 264.601562 C 152.765625 261.023438 119.808594 255.820312 86.621094 257.554688 C 69.625 258.476562 52.390625 261.710938 37.359375 270.152344 C 31.113281 273.621094 25.332031 277.898438 20.359375 282.988281 C 17.351562 286.109375 14.695312 289.457031 12.382812 293.042969 C 11.226562 294.890625 5.210938 304.835938 8.335938 307.84375 C 14.925781 295.007812 30.1875 286.21875 43.140625 281.714844 C 43.949219 281.484375 44.414062 282.640625 43.71875 282.988281 C 36.667969 285.988281 29.957031 290.035156 24.058594 295.007812 C 19.203125 299.054688 15.617188 304.140625 11.339844 308.765625 C 14 309.230469 14.230469 313.15625 11.570312 313.964844 C 6.367188 315.585938 1.859375 312.808594 0.703125 307.378906 C -0.914062 299.632812 5.445312 290.613281 9.835938 284.835938 C 16.195312 276.511719 24.40625 269.804688 33.539062 264.71875 C 30.304688 246.335938 51.003906 231.308594 66.496094 227.378906 C 83.382812 223.101562 103.269531 223.332031 120.847656 228.1875 C 117.84375 225.992188 114.835938 223.792969 112.0625 221.480469 C 94.367188 206.917969 79.796875 188.300781 69.507812 167.957031 C 62.683594 154.429688 51.003906 130.726562 65.6875 118.589844 C 65.804688 117.550781 66.496094 116.625 68 116.394531 C 84.421875 113.964844 98.992188 120.441406 112.523438 128.652344 C 111.136719 110.496094 113.101562 85.410156 128.597656 74.546875 C 146.753906 61.941406 159.585938 88.300781 168.492188 102.292969 C 170.6875 94.429688 175.3125 86.796875 182.253906 82.867188 C 189.308594 78.820312 197.285156 79.171875 203.414062 83.90625 C 205.378906 78.703125 209.078125 74.316406 215.210938 71.308594 C 216.019531 70.960938 216.714844 70.613281 217.523438 70.382812 C 217.753906 69.804688 218.21875 69.34375 219.027344 69.574219 C 219.257812 69.574219 219.488281 69.691406 219.71875 69.804688 C 229.546875 67.261719 239.492188 71.539062 244.925781 79.746094 C 245.273438 69.226562 246.199219 58.589844 247.585938 48.1875 C 250.019531 30.726562 253.832031 12.347656 268.980469 1.59375 C 271.0625 0.0898438 273.027344 1.824219 273.375 3.792969 C 273.375 3.675781 273.488281 3.558594 273.488281 3.445312 C 274.066406 1.941406 276.265625 2.519531 275.917969 4.136719 C 272.910156 20.09375 272.566406 34.890625 272.796875 51.078125 C 272.796875 52.460938 270.945312 52.351562 270.714844 51.078125 C 269.097656 36.972656 267.59375 20.558594 272.21875 6.683594 C 272.449219 6.21875 272.449219 6.335938 272.332031 6.335938 C 255.800781 18.128906 253.832031 42.753906 251.984375 61.25 C 249.902344 80.902344 250.019531 100.789062 251.867188 120.558594 C 255.683594 160.207031 267.015625 198.9375 284.941406 234.542969 C 287.253906 234.433594 289.679688 234.773438 291.878906 235.589844 C 287.832031 228.074219 286.445312 219.285156 284.710938 210.960938 C 282.277344 199.980469 280.082031 188.878906 278.113281 177.898438 C 274.183594 156.160156 271.410156 134.3125 269.328125 112.347656 C 269.210938 110.960938 271.292969 110.960938 271.523438 112.347656 C 274.300781 133.964844 277.769531 155.472656 281.699219 176.859375 C 283.554688 187.375 285.628906 197.78125 287.945312 208.183594 C 289.914062 217.320312 291.414062 226.917969 296.039062 235.121094 C 296.273438 235.121094 296.386719 235.121094 296.617188 235.011719 C 297.660156 234.890625 298.699219 234.773438 299.855469 234.773438 C 299.742188 204.71875 297.890625 175.238281 292.457031 145.414062 C 292.226562 144.023438 294.304688 143.445312 294.539062 144.835938 C 301.242188 174.082031 304.945312 204.71875 303.789062 234.890625 C 304.480469 235.011719 305.175781 235.121094 305.867188 235.242188 C 309.105469 195.703125 312.34375 156.050781 313.039062 116.277344 C 313.152344 105.640625 313.269531 95.125 313.039062 84.484375 C 313.039062 84.371094 312.921875 84.253906 312.921875 84.023438 C 312.691406 82.171875 312.691406 80.4375 312.921875 78.703125 C 312.691406 70.960938 312.460938 63.097656 311.996094 55.351562 C 310.957031 36.046875 306.679688 12.578125 285.867188 5.179688 C 284.589844 4.714844 285.050781 2.75 286.445312 3.097656 C 302.167969 7.144531 310.957031 20.210938 314.65625 35.46875 C 316.851562 44.488281 318.007812 53.847656 318.703125 63.332031 C 320.4375 60.554688 322.523438 57.894531 324.601562 55.351562 C 331.195312 47.378906 339.289062 37.320312 349.695312 34.660156 C 357.324219 32.695312 365.652344 34.773438 369.816406 41.710938 C 375.019531 50.382812 372.246094 62.753906 370.625 72.003906 C 370.394531 73.042969 368.777344 72.8125 368.890625 71.769531 C 369.355469 64.488281 370.277344 55.46875 368.429688 48.304688 C 366.347656 40.210938 360.683594 38.011719 354.78125 38.9375 C 354.898438 39.167969 355.011719 39.398438 354.898438 39.632812 C 352.351562 49.460938 348.074219 58.820312 345.53125 68.765625 C 345.300781 69.691406 344.027344 69.226562 344.144531 68.417969 C 345.992188 58.820312 348.304688 47.839844 353.277344 39.285156 C 349 40.324219 344.835938 42.636719 341.601562 45.414062 C 331.65625 54.3125 322.632812 65.296875 319.28125 78.125 C 319.394531 84.71875 319.511719 91.191406 319.628906 97.550781 C 319.859375 110.960938 319.628906 124.371094 319.164062 137.664062 C 323.5625 123.5625 329.226562 109.804688 334.894531 96.625 C 335.355469 95.585938 337.089844 96.394531 336.742188 97.4375 C 329.574219 118.011719 322.753906 138.011719 318.238281 158.9375 C 316.851562 185.179688 314.65625 211.308594 312.574219 237.433594 C 312.804688 237.085938 313.152344 236.742188 313.382812 236.394531 C 313.730469 219.632812 317.660156 201.828125 320.898438 185.640625 C 324.835938 165.757812 330.152344 146.222656 336.628906 127.03125 C 337.089844 125.761719 338.941406 126.339844 338.59375 127.609375 C 333.042969 146.453125 328.304688 165.527344 324.601562 184.832031 C 321.597656 200.671875 320.550781 217.089844 318.007812 233.039062 C 320.898438 231.65625 324.140625 230.847656 327.261719 230.964844 C 327.957031 215.121094 332.234375 198.59375 336.628906 183.566406 C 336.859375 182.640625 338.246094 182.988281 338.015625 183.90625 C 335.125 199.632812 333.738281 215.699219 330.960938 231.308594 C 331.773438 231.542969 332.582031 231.773438 333.390625 232.121094 C 340.097656 184.601562 346.226562 135.121094 363.109375 89.921875 C 375.136719 57.664062 401.269531 8.878906 442.089844 11.308594 C 443.476562 11.421875 444.285156 12.117188 444.75 13.15625 C 445.210938 12.925781 445.789062 13.042969 446.253906 13.386719 C 461.746094 25.992188 456.542969 49.460938 450.300781 65.296875 C 444.285156 80.671875 436.078125 95.007812 427.75 109.226562 C 428.910156 108.183594 430.066406 107.261719 431.222656 106.21875 C 440.933594 97.898438 451.109375 90.265625 461.167969 82.40625 C 475.972656 71.078125 491.929688 55.816406 512.398438 59.863281 C 513.324219 60.09375 513.089844 61.597656 512.167969 61.480469 C 490.65625 60.324219 472.851562 79.398438 457.582031 92.117188 C 449.722656 98.707031 441.628906 104.953125 433.878906 111.769531 C 427.054688 117.78125 421.734375 124.949219 415.375 131.421875 C 415.261719 131.542969 415.03125 131.652344 414.796875 131.769531 C 405.546875 148.765625 397.453125 166.335938 388.777344 183.566406 C 383.691406 193.621094 378.371094 203.449219 372.011719 212.808594 C 365.886719 221.828125 358.253906 229.691406 354.320312 240.09375 C 354.203125 240.441406 353.972656 240.789062 353.742188 241.019531 L 353.742188 241.132812 C 389.242188 202.523438 424.28125 163.675781 449.605469 117.433594 C 450.066406 116.625 451.222656 117.320312 450.878906 118.128906 C 428.09375 165.410156 392.824219 205.296875 356.976562 243.214844 C 358.480469 244.488281 359.640625 245.992188 360.566406 247.492188 C 375.136719 238.128906 386.464844 224.488281 398.265625 211.886719 C 412.371094 196.859375 426.59375 182.0625 440.933594 167.378906 C 441.628906 166.566406 442.785156 167.722656 442.089844 168.535156 C 427.515625 184.71875 412.71875 200.789062 397.917969 216.742188 C 386.8125 228.652344 375.945312 241.828125 361.953125 250.5 C 362.183594 251.308594 362.53125 252.117188 362.648438 252.929688 C 363.917969 252.929688 365.308594 253.273438 366.464844 253.851562 C 376.984375 249.34375 386.121094 241.25 395.027344 234.195312 C 403.121094 227.839844 410.984375 221.25 418.730469 214.3125 C 433.765625 200.90625 447.871094 186.566406 461.050781 171.425781 C 474.816406 155.820312 487.535156 139.167969 498.980469 121.828125 C 504.652344 113.273438 510.433594 104.605469 515.289062 95.585938 C 521.183594 84.484375 522.6875 75.238281 518.527344 63.445312 C 517.601562 60.785156 521.417969 58.589844 523.265625 60.671875 C 535.984375 75.125 524.191406 95.585938 515.171875 110.035156 C 515.519531 109.804688 515.980469 109.574219 516.328125 109.339844 C 526.851562 103.558594 539.683594 98.476562 551.714844 98.015625 C 561.65625 97.667969 574.035156 101.25 580.277344 109.457031 C 585.710938 116.511719 585.019531 127.03125 583.167969 135.816406 C 589.644531 136.625 595.886719 138.707031 601.4375 142.984375 C 610.570312 149.921875 616.933594 163.792969 609.761719 173.96875 C 608.726562 175.472656 605.832031 175.125 606.0625 172.925781 C 606.410156 168.996094 606.292969 165.527344 605.832031 162.519531 C 571.601562 165.527344 541.191406 180.789062 510.894531 195.816406 C 510.085938 196.164062 509.507812 195.125 510.199219 194.660156 C 539.804688 178.246094 570.90625 162.289062 605.253906 159.863281 C 597.96875 133.503906 555.53125 143.679688 533.671875 149.460938 C 502.570312 157.78125 477.820312 178.246094 449.953125 193.503906 L 449.835938 193.503906 C 440.238281 203.332031 430.175781 212.695312 419.65625 221.480469 C 417.34375 223.449219 414.914062 225.414062 412.601562 227.378906 C 417.109375 224.949219 421.621094 222.636719 425.78125 220.324219 C 447.640625 208.421875 469.960938 198.707031 494.472656 194.082031 C 495.050781 193.96875 495.398438 194.890625 494.703125 195.007812 C 470.769531 200.210938 448.449219 210.84375 427.171875 222.636719 C 409.828125 232.351562 392.484375 241.828125 377.101562 254.429688 C 385.65625 248.765625 395.714844 244.71875 403.929688 240.671875 C 421.621094 231.886719 439.777344 224.371094 458.160156 217.433594 C 458.972656 217.089844 459.203125 218.359375 458.507812 218.707031 C 440.933594 225.761719 423.703125 233.738281 406.820312 242.289062 C 394.90625 248.304688 382.882812 254.085938 372.707031 262.519531 C 372.824219 263.214844 373.054688 263.910156 373.054688 264.601562 C 373.402344 265.179688 373.863281 265.875 373.980469 266.566406 C 374.210938 267.144531 374.210938 267.722656 374.324219 268.417969 C 375.597656 269.921875 376.292969 271.65625 376.636719 273.621094 C 415.261719 259.628906 454 245.757812 492.738281 231.886719 C 511.933594 225.066406 531.011719 218.011719 549.632812 209.578125 C 567.09375 201.597656 582.128906 190.960938 598.546875 181.367188 C 599.820312 180.675781 601.089844 182.292969 600.050781 183.328125 C 587.214844 197.203125 567.785156 207.027344 551.019531 215.121094 C 539.105469 220.902344 526.851562 225.992188 514.59375 230.730469 C 530.78125 230.039062 547.550781 233.390625 562.582031 238.128906 C 573.335938 241.597656 583.863281 245.992188 593.921875 250.960938 C 603.867188 255.820312 614.507812 260.902344 622.484375 268.765625 C 624.105469 270.382812 622.484375 273.621094 620.171875 272.8125 C 610.570312 269.457031 602.132812 263.5625 593.226562 258.941406 C 583.285156 253.851562 572.878906 249.34375 562.234375 245.757812 C 541.421875 238.589844 520.839844 236.742188 499.097656 236.625 C 458.277344 251.65625 417.34375 266.335938 376.40625 281.019531 C 376.753906 281.253906 377.101562 281.367188 377.449219 281.597656 C 405.203125 268.765625 436.308594 261.363281 466.144531 256.742188 C 466.832031 256.628906 467.179688 257.667969 466.492188 257.785156 C 436.425781 263.675781 408.4375 273.621094 379.992188 284.375 C 380.453125 285.0625 380.800781 285.761719 381.148438 286.566406 C 392.941406 281.714844 405.664062 278.707031 417.921875 275.816406 C 418.613281 275.585938 418.960938 276.742188 418.265625 276.972656 C 405.894531 280.328125 393.980469 285.0625 381.957031 289.226562 C 382.535156 291.65625 382.535156 294.3125 382.074219 296.625 C 395.027344 291.078125 409.132812 287.613281 422.546875 283.910156 C 438.273438 279.632812 454.113281 275.933594 470.304688 273.390625 C 499.445312 268.878906 531.359375 265.988281 559.691406 275.816406 C 561.425781 276.394531 560.734375 279.054688 558.882812 278.59375 C 534.136719 273.273438 506.386719 275.238281 480.828125 279.054688 C 500.605469 284.605469 520.144531 292.234375 539.574219 298.707031 C 559.113281 305.296875 579.238281 311.890625 596.351562 323.679688 C 610.34375 333.621094 624.105469 347.839844 625.144531 365.527344 Z M 402.3125 112.117188 C 404.738281 108.53125 406.011719 104.136719 407.628906 100.09375 C 409.480469 95.585938 411.445312 90.960938 413.527344 86.566406 C 413.988281 85.527344 412.484375 84.601562 412.023438 85.640625 C 407.976562 93.621094 402.195312 102.640625 400.691406 111.421875 C 400.460938 112.347656 401.734375 113.042969 402.3125 112.117188 Z M 282.394531 413.160156 C 279.964844 416.972656 280.425781 419.632812 280.195312 424.257812 C 279.734375 431.078125 277.882812 437.667969 276.496094 444.371094 C 273.605469 457.089844 271.0625 469.921875 268.285156 482.753906 C 268.054688 483.679688 269.441406 484.027344 269.675781 483.101562 C 272.566406 470.960938 275.800781 458.941406 278.808594 446.800781 C 281.46875 435.703125 282.507812 425.066406 284.242188 413.855469 C 284.242188 412.8125 282.976562 412.234375 282.394531 413.160156 Z M 261.464844 517.902344 C 259.382812 520.324219 258.457031 523.679688 257.300781 526.570312 C 255.800781 530.386719 254.527344 534.199219 253.371094 538.132812 C 253.140625 538.941406 254.410156 539.519531 254.875 538.710938 C 256.492188 535.355469 257.996094 532.121094 259.382812 528.652344 C 260.65625 525.414062 262.621094 521.945312 262.738281 518.363281 C 262.621094 517.785156 261.8125 517.4375 261.464844 517.902344 Z M 243.65625 482.175781 C 237.640625 489.808594 237.410156 503.449219 238.683594 512.582031 C 238.796875 513.625 240.53125 513.390625 240.53125 512.351562 C 240.53125 506.6875 240.765625 501.136719 241.921875 495.585938 C 242.84375 491.3125 244.695312 487.148438 245.15625 482.871094 C 245.273438 482.0625 244.117188 481.597656 243.65625 482.175781 Z M 486.839844 493.15625 C 490.539062 496.859375 493.777344 502.40625 498.289062 505.066406 C 498.980469 505.414062 499.90625 504.835938 499.675781 504.027344 C 497.824219 498.824219 492.160156 494.3125 488.226562 490.503906 C 483.601562 485.992188 478.515625 482.0625 473.3125 478.363281 C 472.273438 477.550781 471.230469 479.402344 472.273438 480.210938 C 477.359375 484.144531 482.214844 488.535156 486.839844 493.15625 Z M 434.457031 454.429688 C 433.878906 453.738281 434.804688 452.695312 435.5 453.390625 C 436.886719 454.777344 438.503906 456.164062 440.125 457.320312 C 441.511719 458.363281 443.363281 459.289062 444.402344 460.558594 C 444.980469 461.253906 444.402344 462.410156 443.476562 462.179688 C 441.742188 461.832031 440.125 460.210938 438.738281 459.054688 C 437.234375 457.667969 435.730469 456.164062 434.457031 454.429688"/></g></g></g></g></svg>