<svg xmlns="http://www.w3.org/2000/svg" width="810" viewBox="0 0 810 810" height="810" version="1.0"><defs><clipPath id="a"><path d="M 149.097656 149.097656 L 659 149.097656 L 659 658 L 149.097656 658 Z M 149.097656 149.097656"/></clipPath></defs><g clip-path="url(#a)"><path d="M 149.097656 160.722656 C 149.097656 153.316406 155.105469 147.308594 162.507812 147.308594 L 269.816406 147.308594 C 277.222656 147.308594 283.230469 153.316406 283.230469 160.722656 L 283.230469 268.027344 C 283.230469 275.433594 277.222656 281.441406 269.816406 281.441406 L 162.507812 281.441406 C 155.105469 281.441406 149.097656 275.433594 149.097656 268.027344 Z M 175.921875 254.617188 L 256.402344 254.617188 L 256.402344 174.132812 L 175.921875 174.132812 Z M 149.097656 348.507812 C 149.097656 341.105469 155.105469 335.097656 162.507812 335.097656 L 269.816406 335.097656 C 277.222656 335.097656 283.230469 341.105469 283.230469 348.507812 L 283.230469 455.816406 C 283.230469 463.222656 277.222656 469.230469 269.816406 469.230469 L 162.507812 469.230469 C 155.105469 469.230469 149.097656 463.222656 149.097656 455.816406 Z M 175.921875 442.402344 L 256.402344 442.402344 L 256.402344 361.921875 L 175.921875 361.921875 Z M 149.097656 536.296875 C 149.097656 528.894531 155.105469 522.882812 162.507812 522.882812 L 269.816406 522.882812 C 277.222656 522.882812 283.230469 528.894531 283.230469 536.296875 L 283.230469 643.605469 C 283.230469 651.011719 277.222656 657.019531 269.816406 657.019531 L 162.507812 657.019531 C 155.105469 657.019531 149.097656 651.011719 149.097656 643.605469 Z M 175.921875 630.191406 L 256.402344 630.191406 L 256.402344 549.710938 L 175.921875 549.710938 Z M 336.882812 160.722656 C 336.882812 153.316406 342.894531 147.308594 350.296875 147.308594 L 457.605469 147.308594 C 465.011719 147.308594 471.019531 153.316406 471.019531 160.722656 L 471.019531 268.027344 C 471.019531 275.433594 465.011719 281.441406 457.605469 281.441406 L 350.296875 281.441406 C 342.894531 281.441406 336.882812 275.433594 336.882812 268.027344 Z M 363.710938 254.617188 L 444.191406 254.617188 L 444.191406 174.132812 L 363.710938 174.132812 Z M 336.882812 348.507812 C 336.882812 341.105469 342.894531 335.097656 350.296875 335.097656 L 457.605469 335.097656 C 465.011719 335.097656 471.019531 341.105469 471.019531 348.507812 L 471.019531 455.816406 C 471.019531 463.222656 465.011719 469.230469 457.605469 469.230469 L 350.296875 469.230469 C 342.894531 469.230469 336.882812 463.222656 336.882812 455.816406 Z M 363.710938 442.402344 L 444.191406 442.402344 L 444.191406 361.921875 L 363.710938 361.921875 Z M 336.882812 536.296875 C 336.882812 528.894531 342.894531 522.882812 350.296875 522.882812 L 457.605469 522.882812 C 465.011719 522.882812 471.019531 528.894531 471.019531 536.296875 L 471.019531 643.605469 C 471.019531 651.011719 465.011719 657.019531 457.605469 657.019531 L 350.296875 657.019531 C 342.894531 657.019531 336.882812 651.011719 336.882812 643.605469 Z M 363.710938 630.191406 L 444.191406 630.191406 L 444.191406 549.710938 L 363.710938 549.710938 Z M 524.671875 160.722656 C 524.671875 153.316406 530.679688 147.308594 538.085938 147.308594 L 645.394531 147.308594 C 652.800781 147.308594 658.808594 153.316406 658.808594 160.722656 L 658.808594 268.027344 C 658.808594 275.433594 652.800781 281.441406 645.394531 281.441406 L 538.085938 281.441406 C 530.679688 281.441406 524.671875 275.433594 524.671875 268.027344 Z M 551.5 254.617188 L 631.980469 254.617188 L 631.980469 174.132812 L 551.5 174.132812 Z M 524.671875 348.507812 C 524.671875 341.105469 530.679688 335.097656 538.085938 335.097656 L 645.394531 335.097656 C 652.800781 335.097656 658.808594 341.105469 658.808594 348.507812 L 658.808594 455.816406 C 658.808594 463.222656 652.800781 469.230469 645.394531 469.230469 L 538.085938 469.230469 C 530.679688 469.230469 524.671875 463.222656 524.671875 455.816406 Z M 551.5 442.402344 L 631.980469 442.402344 L 631.980469 361.921875 L 551.5 361.921875 Z M 524.671875 536.296875 C 524.671875 528.894531 530.679688 522.882812 538.085938 522.882812 L 645.394531 522.882812 C 652.800781 522.882812 658.808594 528.894531 658.808594 536.296875 L 658.808594 643.605469 C 658.808594 651.011719 652.800781 657.019531 645.394531 657.019531 L 538.085938 657.019531 C 530.679688 657.019531 524.671875 651.011719 524.671875 643.605469 Z M 551.5 630.191406 L 631.980469 630.191406 L 631.980469 549.710938 L 551.5 549.710938 Z M 551.5 630.191406"/></g></svg>