<svg width="30" height="15" viewBox="0 0 30 15" fill="none" xmlns="http://www.w3.org/2000/svg">
<path d="M13.5 3H7.5C6.30653 3 5.16193 3.47411 4.31802 4.31802C3.47411 5.16193 3 6.30653 3 7.5C3 8.69347 3.47411 9.83807 4.31802 10.682C5.16193 11.5259 6.30653 12 7.5 12H13.5V15H7.5C5.51088 15 3.60322 14.2098 2.1967 12.8033C0.790176 11.3968 0 9.48912 0 7.5C0 5.51088 0.790176 3.60322 2.1967 2.1967C3.60322 0.790176 5.51088 0 7.5 0H13.5V3ZM16.5 12H22.5C23.6935 12 24.8381 11.5259 25.682 10.682C26.5259 9.83807 27 8.69347 27 7.5C27 6.30653 26.5259 5.16193 25.682 4.31802C24.8381 3.47411 23.6935 3 22.5 3H16.5V0H22.5C24.4891 0 26.3968 0.790176 27.8033 2.1967C29.2098 3.60322 30 5.51088 30 7.5C30 9.48912 29.2098 11.3968 27.8033 12.8033C26.3968 14.2098 24.4891 15 22.5 15H16.5V12ZM10.5 6H19.5C19.8978 6 20.2794 6.15804 20.5607 6.43934C20.842 6.72064 21 7.10218 21 7.5C21 7.89782 20.842 8.27936 20.5607 8.56066C20.2794 8.84196 19.8978 9 19.5 9H10.5C10.1022 9 9.72064 8.84196 9.43934 8.56066C9.15804 8.27936 9 7.89782 9 7.5C9 7.10218 9.15804 6.72064 9.43934 6.43934C9.72064 6.15804 10.1022 6 10.5 6V6Z" fill="#438ABF"/>
</svg>
