<svg width="28" height="28" viewBox="0 0 28 28" fill="none" xmlns="http://www.w3.org/2000/svg">
<path d="M24.0625 15.3562L27.3437 18.5937L12.775 25.55C12.775 25.55 10.85 26.425 9.93125 25.025C6.34375 19.425 24.0625 15.3562 24.0625 15.3562Z" fill="#12B699"/>
<path d="M12.425 21.4812C12.425 21.4812 9.625 22.4437 10.15 24.325C10.675 26.25 12.9063 25.0687 12.9063 25.0687L26.7313 18.6375C26.7313 18.6375 25.9438 16.5812 27.3438 15.225L12.425 21.4812Z" fill="#D9E3E8"/>
<path d="M14.7438 2.1875L28 15.0938L12.3375 21.2188L2.275 5.55625L14.7438 2.1875Z" fill="#42ADE2"/>
<path d="M15.1375 5.11875L17.675 7.83125L8.18125 11.2438L5.95 7.7875L15.1375 5.11875Z" fill="white"/>
<path d="M26.6875 16.625L17.4563 20.3875L26.5563 16.2312L26.6875 16.625Z" fill="#94989B"/>
<path d="M26.5563 17.7625L16.7125 21.8312L26.3813 17.325L26.5563 17.7625Z" fill="#94989B"/>
<path d="M26.6438 18.375L14.0875 23.8437L26.4688 17.9812L26.6438 18.375Z" fill="#94989B"/>
<path d="M9.93125 25.025C8.4 21.8312 12.3375 21.2625 12.3375 21.2625L2.275 5.55625C2.275 5.55625 0 5.5125 0 7.875C0 8.8375 0.4375 9.58125 0.4375 9.58125L9.93125 25.025" fill="#438ABF"/>
</svg>
