<svg width="31" height="30" viewBox="0 0 31 30" fill="none" xmlns="http://www.w3.org/2000/svg">
<path d="M27.1702 6.57125C28.3456 7.93625 28.932 9.52875 28.932 11.3487C28.932 17.945 25.0545 19.8787 21.4107 20.4475C21.8808 21.2437 21.9984 22.1537 21.9984 23.0637V27.7262C21.9984 28.295 21.6457 28.6362 21.1756 28.6362C21.0516 28.6379 20.9286 28.6155 20.8137 28.5704C20.6988 28.5253 20.5945 28.4583 20.5068 28.3735C20.4191 28.2886 20.3499 28.1876 20.3033 28.0765C20.2566 27.9653 20.2335 27.8462 20.2353 27.7262V23.0637C20.2972 22.587 20.2445 22.1029 20.0814 21.6491C19.9183 21.1954 19.6492 20.7841 19.2949 20.4475L19.8826 18.9687C23.5264 18.5137 27.2878 17.3762 27.2878 11.235C27.2878 9.75625 26.7 8.39125 25.6422 7.25375L25.4071 6.345C25.8541 5.25506 25.8952 4.04856 25.5233 2.9325C24.9369 3.045 23.7615 3.27375 21.7646 4.63875L21.058 4.75125C18.282 4.06908 15.3737 4.06908 12.5976 4.75125L11.8911 4.63875C9.77792 3.3875 8.6025 3.04625 8.0135 3.04625C7.66088 4.18375 7.66088 5.43375 8.12975 6.45875L7.89596 7.3675C6.72054 8.505 6.13284 9.98375 6.13284 11.3487C6.13284 17.3762 9.65908 18.6275 13.5367 19.0825L14.0068 20.5612C13.3016 21.2437 12.949 22.1537 13.0665 23.0637V27.84C13.0682 27.96 13.0451 28.0791 12.9985 28.1902C12.9518 28.3014 12.8826 28.4024 12.795 28.4872C12.7073 28.5721 12.6029 28.639 12.4881 28.6842C12.3732 28.7293 12.2501 28.7517 12.1262 28.75C12.0022 28.7517 11.8791 28.7293 11.7643 28.6842C11.6494 28.639 11.545 28.5721 11.4574 28.4872C11.3697 28.4024 11.3005 28.3014 11.2539 28.1902C11.2072 28.0791 11.1841 27.96 11.1858 27.84V25.225C7.30825 26.0212 5.78021 24.0875 4.60479 22.61C4.01709 21.9275 3.54692 21.3587 2.95921 21.245C2.84296 21.1312 2.48904 20.6762 2.60658 20.2212C2.72413 19.7662 3.19429 19.425 3.66575 19.6525C4.84117 19.88 5.54513 20.79 6.24908 21.5862C7.30825 22.9512 8.36613 24.2012 11.5385 23.52V23.065C11.4222 22.155 11.656 21.245 12.1262 20.4487C8.59992 19.7662 4.48725 17.8325 4.48725 11.35C4.48725 9.53 5.07496 7.9375 6.25038 6.5725C5.89775 4.98125 6.01529 3.275 6.603 1.91L7.19071 1.455C7.42579 1.34125 9.07138 1 12.4775 3.04625C15.2938 2.36384 18.2405 2.36384 21.0568 3.04625C24.3492 0.885 26.1123 1.225 26.3474 1.34L26.9351 1.795C27.5228 3.3875 27.6404 4.98 27.1702 6.57125V6.57125Z" fill="white"/>
</svg>
